SplineFontDB: 3.2
FontName: hindi115b
FullName: hindi115b
FamilyName: hindi115b
Weight: Regular
Copyright: github.com/zawa8/font hscii4(4phinger maths) hscii5
Version: w0.000
ItalicAngle: 0
UnderlinePosition: -128
UnderlineWidth: 51.2
Ascent: 819
Descent: 205
InvalidEm: 0
sfntRevision: 0x00010000
LayerCount: 2
Layer: 0 1 "Back" 1
Layer: 1 1 "Fore" 0
XUID: [1021 242 -508030597 9470343]
UniqueID: 1680864978
StyleMap: 0x0040
FSType: 0
OS2Version: 4
OS2_WeightWidthSlopeOnly: 0
OS2_UseTypoMetrics: 1
CreationTime: 1432194851
ModificationTime: 1741479102
PfmFamily: 81
TTFWeight: 400
TTFWidth: 5
LineGap: 0
VLineGap: 0
Panose: 0 0 0 0 0 0 0 0 0 0
OS2TypoAscent: 918
OS2TypoAOffset: 0
OS2TypoDescent: -418
OS2TypoDOffset: 0
OS2TypoLinegap: 0
OS2WinAscent: 1380
OS2WinAOffset: 0
OS2WinDescent: 571
OS2WinDOffset: 0
HheadAscent: 918
HheadAOffset: 0
HheadDescent: -418
HheadDOffset: 0
OS2SubXSize: 666
OS2SubYSize: 614
OS2SubXOff: 0
OS2SubYOff: 77
OS2SupXSize: 666
OS2SupYSize: 614
OS2SupXOff: 0
OS2SupYOff: 358
OS2StrikeYSize: 51
OS2StrikeYPos: 330
OS2CapHeight: 637
OS2XHeight: 549
OS2Vendor: 'zawa'
OS2CodePages: 00000013.00000000
OS2UnicodeRanges: 80008023.00002046.00000000.00000000
MarkAttachClasses: 1
MarkAttachSets: 10
"MarkSet-0" 68 uni0902 uni0901 uni0930094D uni0930094D0902 uni0930094D0901 NullMark
"MarkSet-1" 143 visargaUdattavedic reversedVisargaUdattavedic visargaAnudattavedic reversedVisargaAnudattavedic visargaUdattaTailvedic visargaAnudattaTailvedic
"MarkSet-2" 101 uni20F0 acutecomb uni0306 uni030C uni0302 uni0308 uni0307 gravecomb uni030B uni0304 uni030A tildecomb
"MarkSet-3" 49 uni0306 uni030C uni0302 uni0308 uni0304 tildecomb
"MarkSet-4" 83 uni0945 uni0955 uni0901 invertedCandrabindudeva uni0902.alt uni09450902 uni09450901
"MarkSet-5" 27 uni0941 uni094D uni093C094D

StartChar: exclam
Encoding: 33 33 2
Width: 171
GlyphClass: 1
Flags: W
LayerCount: 2
Fore
SplineSet
83 115 m 0,0,1
 67 115 67 115 57.5 126 c 128,-1,2
 48 137 48 137 43.5 165 c 128,-1,3
 39 193 39 193 38 239.5 c 128,-1,4
 37 286 37 286 37 356 c 0,5,6
 37 455 37 455 38 510.5 c 128,-1,7
 39 566 39 566 45 593 c 128,-1,8
 51 620 51 620 64 625.5 c 128,-1,9
 77 631 77 631 100 631 c 0,10,11
 112 631 112 631 119.5 623.5 c 128,-1,12
 127 616 127 616 131.5 592.5 c 128,-1,13
 136 569 136 569 137.5 523 c 128,-1,14
 139 477 139 477 139 398 c 0,15,16
 139 255 139 255 129 185 c 128,-1,17
 119 115 119 115 83 115 c 0,0,1
70 607 m 0,18,19
 66 607 66 607 59.5 595 c 128,-1,20
 53 583 53 583 53 557 c 0,21,22
 53 544 53 544 54.5 531 c 128,-1,23
 56 518 56 518 63 518 c 0,24,25
 69 518 69 518 71.5 522 c 128,-1,26
 74 526 74 526 74 532 c 128,-1,27
 74 538 74 538 73.5 545 c 128,-1,28
 73 552 73 552 73 558 c 0,29,30
 74 575 74 575 76 591 c 128,-1,31
 78 607 78 607 70 607 c 0,18,19
84 -8 m 0,32,33
 65 -8 65 -8 53 4.5 c 128,-1,34
 41 17 41 17 41 39 c 0,35,36
 41 58 41 58 51 75 c 128,-1,37
 61 92 61 92 84 92 c 0,38,39
 108 92 108 92 120 76 c 128,-1,40
 132 60 132 60 132 39 c 0,41,42
 132 15 132 15 118 3.5 c 128,-1,43
 104 -8 104 -8 84 -8 c 0,32,33
66 45 m 0,44,45
 67 56 67 56 71 65.5 c 128,-1,46
 75 75 75 75 70 75 c 0,47,48
 63 75 63 75 58 60 c 128,-1,49
 53 45 53 45 53 34 c 0,50,51
 53 24 53 24 58 24 c 0,52,53
 62 24 62 24 63.5 31.5 c 128,-1,54
 65 39 65 39 66 45 c 0,44,45
EndSplineSet
Validated: 1
EndChar

StartChar: quotedbl
Encoding: 34 34 3
Width: 417
GlyphClass: 1
Flags: W
LayerCount: 2
Fore
SplineSet
164 731 m 1,0,-1
 143 467 l 1,1,-1
 87 467 l 1,2,-1
 67 731 l 1,3,-1
 164 731 l 1,0,-1
351 731 m 1,4,-1
 331 467 l 1,5,-1
 274 467 l 1,6,-1
 254 731 l 1,7,-1
 351 731 l 1,4,-1
EndSplineSet
Validated: 1
EndChar

StartChar: numbersign
Encoding: 35 35 4
Width: 504
VWidth: 1000
GlyphClass: 1
Flags: W
LayerCount: 2
Fore
SplineSet
57 0 m 1,0,-1
 95 167 l 1,1,-1
 3 167 l 1,2,-1
 3 234 l 1,3,-1
 108 234 l 1,4,-1
 140 376 l 1,5,-1
 29 376 l 1,6,-1
 29 442 l 1,7,-1
 152 442 l 1,8,-1
 192 614 l 1,9,-1
 264 614 l 1,10,-1
 224 442 l 1,11,-1
 348 442 l 1,12,-1
 388 614 l 1,13,-1
 457 614 l 1,14,-1
 417 442 l 1,15,-1
 498 442 l 1,16,-1
 498 376 l 1,17,-1
 404 376 l 1,18,-1
 373 234 l 1,19,-1
 477 234 l 1,20,-1
 477 167 l 1,21,-1
 360 167 l 1,22,-1
 319 0 l 1,23,-1
 248 0 l 1,24,-1
 289 167 l 1,25,-1
 166 167 l 1,26,-1
 127 0 l 1,27,-1
 57 0 l 1,0,-1
179 234 m 1,28,-1
 302 234 l 1,29,-1
 333 376 l 1,30,-1
 210 376 l 1,31,-1
 179 234 l 1,28,-1
EndSplineSet
EndChar

StartChar: percent
Encoding: 37 37 5
Width: 493
GlyphClass: 1
Flags: W
LayerCount: 2
Fore
SplineSet
108 -6 m 0,0,1
 104 -6 104 -6 96 -4 c 128,-1,2
 88 -2 88 -2 81 2 c 128,-1,3
 74 6 74 6 68.5 11.5 c 128,-1,4
 63 17 63 17 63 24 c 0,5,6
 63 31 63 31 67.5 48 c 128,-1,7
 72 65 72 65 84 95.5 c 128,-1,8
 96 126 96 126 118 172.5 c 128,-1,9
 140 219 140 219 176 287 c 0,10,11
 231 392 231 392 265.5 460.5 c 128,-1,12
 300 529 300 529 322 569 c 0,13,14
 344 610 344 610 361.5 622 c 128,-1,15
 379 634 379 634 392 634 c 0,16,17
 409 634 409 634 416 621.5 c 128,-1,18
 423 609 423 609 422 591 c 128,-1,19
 421 573 421 573 415.5 554.5 c 128,-1,20
 410 536 410 536 403 522 c 0,21,22
 389 492 389 492 365.5 444.5 c 128,-1,23
 342 397 342 397 315 343.5 c 128,-1,24
 288 290 288 290 259.5 234.5 c 128,-1,25
 231 179 231 179 207.5 133.5 c 128,-1,26
 184 88 184 88 168.5 57.5 c 128,-1,27
 153 27 153 27 150 23 c 0,28,29
 139 6 139 6 128 0 c 128,-1,30
 117 -6 117 -6 108 -6 c 0,0,1
114 402 m 0,31,32
 90 402 90 402 72 412 c 128,-1,33
 54 422 54 422 42 438.5 c 128,-1,34
 30 455 30 455 23.5 476.5 c 128,-1,35
 17 498 17 498 17 522 c 0,36,37
 17 541 17 541 24 561 c 128,-1,38
 31 581 31 581 43 596.5 c 128,-1,39
 55 612 55 612 72.5 622.5 c 128,-1,40
 90 633 90 633 112 633 c 0,41,42
 155 633 155 633 179.5 609 c 128,-1,43
 204 585 204 585 204 529 c 0,44,45
 204 501 204 501 196.5 478.5 c 128,-1,46
 189 456 189 456 177 439 c 128,-1,47
 165 422 165 422 148.5 412 c 128,-1,48
 132 402 132 402 114 402 c 0,31,32
114 471 m 0,49,50
 121 471 121 471 126 476.5 c 128,-1,51
 131 482 131 482 134 491 c 128,-1,52
 137 500 137 500 138.5 510 c 128,-1,53
 140 520 140 520 140 529 c 0,54,55
 140 546 140 546 133 558.5 c 128,-1,56
 126 571 126 571 114 571 c 0,57,58
 103 571 103 571 94.5 556.5 c 128,-1,59
 86 542 86 542 86 524 c 256,60,61
 86 507 86 507 93.5 489 c 128,-1,62
 101 471 101 471 114 471 c 0,49,50
44 524 m 256,63,64
 44 540 44 540 44 548 c 128,-1,65
 44 556 44 556 41 556 c 0,66,67
 35 556 35 556 33 543 c 128,-1,68
 31 530 31 530 31 526 c 0,69,70
 31 523 31 523 31 517.5 c 128,-1,71
 31 512 31 512 32.5 506.5 c 128,-1,72
 34 501 34 501 36.5 496.5 c 128,-1,73
 39 492 39 492 44 492 c 0,74,75
 48 492 48 492 46 500 c 128,-1,76
 44 508 44 508 44 524 c 256,63,64
70 464 m 0,77,78
 70 475 70 475 60 475 c 0,79,80
 54 475 54 475 54 467 c 0,81,82
 54 465 54 465 56.5 461 c 128,-1,83
 59 457 59 457 62 457 c 0,84,85
 70 457 70 457 70 464 c 0,77,78
389 -6 m 0,86,87
 365 -6 365 -6 347.5 3.5 c 128,-1,88
 330 13 330 13 317.5 29.5 c 128,-1,89
 305 46 305 46 299 67.5 c 128,-1,90
 293 89 293 89 293 114 c 0,91,92
 293 133 293 133 299.5 152.5 c 128,-1,93
 306 172 306 172 318.5 188 c 128,-1,94
 331 204 331 204 348.5 214 c 128,-1,95
 366 224 366 224 387 224 c 0,96,97
 430 224 430 224 454.5 200 c 128,-1,98
 479 176 479 176 479 121 c 0,99,100
 479 93 479 93 472 70 c 128,-1,101
 465 47 465 47 452.5 30 c 128,-1,102
 440 13 440 13 423.5 3.5 c 128,-1,103
 407 -6 407 -6 389 -6 c 0,86,87
389 62 m 0,104,105
 396 62 396 62 401.5 68 c 128,-1,106
 407 74 407 74 410 82.5 c 128,-1,107
 413 91 413 91 414.5 101.5 c 128,-1,108
 416 112 416 112 416 121 c 0,109,110
 416 138 416 138 408.5 150.5 c 128,-1,111
 401 163 401 163 389 163 c 0,112,113
 378 163 378 163 369.5 148 c 128,-1,114
 361 133 361 133 361 116 c 256,115,116
 361 99 361 99 368.5 80.5 c 128,-1,117
 376 62 376 62 389 62 c 0,104,105
319 116 m 256,118,119
 319 132 319 132 319 139.5 c 128,-1,120
 319 147 319 147 316 147 c 0,121,122
 310 147 310 147 308 134.5 c 128,-1,123
 306 122 306 122 306 118 c 0,124,125
 306 115 306 115 306 109 c 128,-1,126
 306 103 306 103 307.5 97.5 c 128,-1,127
 309 92 309 92 311.5 87.5 c 128,-1,128
 314 83 314 83 319 83 c 0,129,130
 323 83 323 83 321 91.5 c 128,-1,131
 319 100 319 100 319 116 c 256,118,119
105 84 m 0,132,133
 100 89 100 89 94.5 84 c 128,-1,134
 89 79 89 79 86 71 c 256,135,136
 83 63 83 63 80 51.5 c 128,-1,137
 77 40 77 40 77 35 c 0,138,139
 78 24 78 24 81.5 24 c 128,-1,140
 85 24 85 24 92 41 c 0,141,142
 97 53 97 53 102 67.5 c 128,-1,143
 107 82 107 82 105 84 c 0,132,133
345 55 m 0,144,145
 345 66 345 66 336 67 c 0,146,147
 330 67 330 67 330 58 c 0,148,149
 330 56 330 56 332.5 52 c 128,-1,150
 335 48 335 48 338 48 c 0,151,152
 345 48 345 48 345 55 c 0,144,145
EndSplineSet
EndChar

StartChar: quotesingle
Encoding: 39 39 6
Width: 230
GlyphClass: 1
Flags: W
LayerCount: 2
Fore
SplineSet
164 731 m 1,0,-1
 143 467 l 1,1,-1
 87 467 l 1,2,-1
 67 731 l 1,3,-1
 164 731 l 1,0,-1
EndSplineSet
EndChar

StartChar: parenleft
Encoding: 40 40 7
Width: 307
GlyphClass: 1
Flags: W
LayerCount: 2
Fore
SplineSet
211 -74 m 0,0,1
 156 -52 156 -52 118.5 -13 c 128,-1,2
 81 26 81 26 58 73.5 c 128,-1,3
 35 121 35 121 24.5 173.5 c 128,-1,4
 14 226 14 226 14 275 c 0,5,6
 14 322 14 322 23 371.5 c 128,-1,7
 32 421 32 421 47.5 467 c 128,-1,8
 63 513 63 513 87 553.5 c 128,-1,9
 111 594 111 594 139 624 c 0,10,11
 167 652 167 652 192.5 670 c 128,-1,12
 218 688 218 688 239 688 c 0,13,14
 254 688 254 688 263 676 c 128,-1,15
 272 664 272 664 272 651 c 0,16,17
 272 643 272 643 259.5 632 c 128,-1,18
 247 621 247 621 223 596 c 0,19,20
 192 563 192 563 172 524 c 128,-1,21
 152 485 152 485 139.5 443.5 c 128,-1,22
 127 402 127 402 122.5 359.5 c 128,-1,23
 118 317 118 317 118 279 c 256,24,25
 118 240 118 240 124 197.5 c 128,-1,26
 130 155 130 155 144.5 116 c 128,-1,27
 159 77 159 77 182.5 44.5 c 128,-1,28
 206 12 206 12 241 -7 c 0,29,30
 258 -16 258 -16 266.5 -23 c 128,-1,31
 275 -30 275 -30 275 -44 c 0,32,33
 275 -57 275 -57 262 -67.5 c 128,-1,34
 249 -78 249 -78 231 -78 c 0,35,36
 220 -78 220 -78 211 -74 c 0,0,1
197 635 m 0,37,38
 202 640 202 640 208 645.5 c 128,-1,39
 214 651 214 651 207 651 c 0,40,41
 199 651 199 651 188 643.5 c 128,-1,42
 177 636 177 636 167 625.5 c 128,-1,43
 157 615 157 615 150 604.5 c 128,-1,44
 143 594 143 594 143 588 c 0,45,46
 143 583 143 583 147 583 c 0,47,48
 152 583 152 583 157 589.5 c 128,-1,49
 162 596 162 596 165 601 c 0,50,51
 169 608 169 608 176.5 616 c 128,-1,52
 184 624 184 624 197 635 c 0,37,38
137 560 m 0,53,54
 137 568 137 568 131 568 c 0,55,56
 119 568 119 568 119 560 c 0,57,58
 119 554 119 554 122 552.5 c 128,-1,59
 125 551 125 551 127 551 c 256,60,61
 129 551 129 551 133 552.5 c 128,-1,62
 137 554 137 554 137 560 c 0,53,54
EndSplineSet
EndChar

StartChar: parenright
Encoding: 41 41 8
Width: 307
GlyphClass: 1
Flags: W
LayerCount: 2
Fore
SplineSet
82 -95 m 0,0,1
 68 -95 68 -95 55 -86.5 c 128,-1,2
 42 -78 42 -78 42 -68 c 0,3,4
 42 -59 42 -59 52 -44.5 c 128,-1,5
 62 -30 62 -30 77 -9 c 128,-1,6
 92 12 92 12 110 42 c 128,-1,7
 128 72 128 72 143 111 c 128,-1,8
 158 150 158 150 168 200 c 128,-1,9
 178 250 178 250 178 312 c 0,10,11
 178 360 178 360 170.5 408 c 128,-1,12
 163 456 163 456 148.5 496 c 128,-1,13
 134 536 134 536 114 565.5 c 128,-1,14
 94 595 94 595 70 608 c 0,15,16
 58 615 58 615 43.5 625 c 128,-1,17
 29 635 29 635 29 653 c 0,18,19
 29 668 29 668 42 678 c 128,-1,20
 55 688 55 688 77 688 c 0,21,22
 115 688 115 688 151.5 661.5 c 128,-1,23
 188 635 188 635 217 586 c 128,-1,24
 246 537 246 537 263.5 466.5 c 128,-1,25
 281 396 281 396 281 309 c 0,26,27
 281 232 281 232 272 179 c 128,-1,28
 263 126 263 126 247 87 c 128,-1,29
 231 48 231 48 209.5 17.5 c 128,-1,30
 188 -13 188 -13 163 -45 c 0,31,32
 139 -75 139 -75 119 -85 c 128,-1,33
 99 -95 99 -95 82 -95 c 0,0,1
49 636 m 0,34,35
 53 636 53 636 56.5 643.5 c 128,-1,36
 60 651 60 651 60 659 c 0,37,38
 60 672 60 672 53 673 c 0,39,40
 49 673 49 673 45.5 665 c 128,-1,41
 42 657 42 657 42 649 c 0,42,43
 42 636 42 636 49 636 c 0,34,35
77 -61 m 256,44,45
 82 -51 82 -51 82.5 -41 c 128,-1,46
 83 -31 83 -31 79 -30 c 0,47,48
 77 -30 77 -30 73.5 -34 c 128,-1,49
 70 -38 70 -38 66 -44 c 128,-1,50
 62 -50 62 -50 59.5 -56 c 128,-1,51
 57 -62 57 -62 57 -66 c 0,52,53
 57 -74 57 -74 61 -75 c 0,54,55
 64 -76 64 -76 68 -73.5 c 128,-1,56
 72 -71 72 -71 77 -61 c 256,44,45
EndSplineSet
EndChar

StartChar: asterisk
Encoding: 42 42 9
Width: 564
GlyphClass: 1
Flags: W
LayerCount: 2
Fore
SplineSet
330 778 m 1,0,-1
 309 582 l 1,1,-1
 506 637 l 1,2,-1
 520 543 l 1,3,-1
 332 527 l 1,4,-1
 454 366 l 1,5,-1
 366 317 l 1,6,-1
 279 497 l 1,7,-1
 200 317 l 1,8,-1
 109 366 l 1,9,-1
 228 527 l 1,10,-1
 42 543 l 1,11,-1
 56 637 l 1,12,-1
 251 582 l 1,13,-1
 229 778 l 1,14,-1
 330 778 l 1,0,-1
EndSplineSet
EndChar

StartChar: plus
Encoding: 43 43 10
Width: 585
GlyphClass: 1
Flags: W
LayerCount: 2
Fore
SplineSet
329 397 m 1,0,-1
 532 397 l 1,1,-1
 532 325 l 1,2,-1
 329 325 l 1,3,-1
 329 114 l 1,4,-1
 255 114 l 1,5,-1
 255 325 l 1,6,-1
 51 325 l 1,7,-1
 51 397 l 1,8,-1
 255 397 l 1,9,-1
 255 609 l 1,10,-1
 329 609 l 1,11,-1
 329 397 l 1,0,-1
EndSplineSet
EndChar

StartChar: comma
Encoding: 44 44 11
Width: 274
GlyphClass: 1
Flags: W
LayerCount: 2
Fore
SplineSet
197 108 m 1,0,1
 188 72 188 72 173.5 30 c 128,-1,2
 159 -12 159 -12 142 -53.5 c 128,-1,3
 125 -95 125 -95 109 -132 c 1,4,-1
 42 -132 l 1,5,6
 52 -93 52 -93 62 -48.5 c 128,-1,7
 72 -4 72 -4 80 39.5 c 128,-1,8
 88 83 88 83 93 119 c 1,9,-1
 189 119 l 1,10,-1
 197 108 l 1,0,1
EndSplineSet
EndChar

StartChar: hyphen
Encoding: 45 45 12
Width: 329
GlyphClass: 1
Flags: W
LayerCount: 2
Fore
SplineSet
41 234 m 1,0,-1
 41 314 l 1,1,-1
 289 314 l 1,2,-1
 289 234 l 1,3,-1
 41 234 l 1,0,-1
EndSplineSet
EndChar

StartChar: period
Encoding: 46 46 13
Width: 269
GlyphClass: 1
Flags: W
LayerCount: 2
Fore
SplineSet
127 -8 m 0,0,1
 86 -8 86 -8 57 20.5 c 128,-1,2
 28 49 28 49 28 94 c 0,3,4
 28 119 28 119 36.5 141 c 128,-1,5
 45 163 45 163 60.5 179 c 128,-1,6
 76 195 76 195 97.5 204.5 c 128,-1,7
 119 214 119 214 144 214 c 0,8,9
 164 214 164 214 182 205.5 c 128,-1,10
 200 197 200 197 212 181.5 c 128,-1,11
 224 166 224 166 231 146.5 c 128,-1,12
 238 127 238 127 238 105 c 0,13,14
 238 77 238 77 229 56.5 c 128,-1,15
 220 36 220 36 204.5 21.5 c 128,-1,16
 189 7 189 7 169.5 -0.5 c 128,-1,17
 150 -8 150 -8 127 -8 c 0,0,1
89 169 m 0,18,19
 96 176 96 176 97.5 181 c 128,-1,20
 99 186 99 186 97 186 c 0,21,22
 89 186 89 186 80 178.5 c 128,-1,23
 71 171 71 171 63 160.5 c 128,-1,24
 55 150 55 150 50 137.5 c 128,-1,25
 45 125 45 125 45 115 c 0,26,27
 45 113 45 113 46.5 106.5 c 128,-1,28
 48 100 48 100 51 100 c 0,29,30
 55 100 55 100 61 123 c 0,31,32
 64 137 64 137 72.5 149 c 128,-1,33
 81 161 81 161 89 169 c 0,18,19
131 50 m 0,34,35
 143 50 143 50 160 64.5 c 128,-1,36
 177 79 177 79 177 105 c 0,37,38
 177 125 177 125 166.5 139.5 c 128,-1,39
 156 154 156 154 138 154 c 256,40,41
 121 154 121 154 106.5 140 c 128,-1,42
 92 126 92 126 92 101 c 256,43,44
 92 76 92 76 103.5 63 c 128,-1,45
 115 50 115 50 131 50 c 0,34,35
EndSplineSet
EndChar

StartChar: slash
Encoding: 47 47 14
Width: 408
GlyphClass: 1
Flags: W
LayerCount: 2
Fore
SplineSet
84 -79 m 0,0,1
 80 -79 80 -79 68 -77 c 128,-1,2
 56 -75 56 -75 44 -70.5 c 128,-1,3
 32 -66 32 -66 22.5 -58.5 c 128,-1,4
 13 -51 13 -51 13 -42 c 0,5,6
 13 -39 13 -39 24 -10 c 128,-1,7
 35 19 35 19 52.5 65.5 c 128,-1,8
 70 112 70 112 93 170 c 128,-1,9
 116 228 116 228 140.5 289.5 c 128,-1,10
 165 351 165 351 189.5 411.5 c 128,-1,11
 214 472 214 472 234.5 521.5 c 128,-1,12
 255 571 255 571 270.5 606 c 128,-1,13
 286 641 286 641 292 651 c 0,14,15
 299 662 299 662 311 672 c 128,-1,16
 323 682 323 682 337 682 c 0,17,18
 344 682 344 682 352.5 679.5 c 128,-1,19
 361 677 361 677 369 672.5 c 128,-1,20
 377 668 377 668 382 661.5 c 128,-1,21
 387 655 387 655 387 648 c 0,22,23
 387 640 387 640 378.5 614 c 128,-1,24
 370 588 370 588 358 557.5 c 128,-1,25
 346 527 346 527 334.5 499 c 128,-1,26
 323 471 323 471 316 458 c 0,27,28
 312 449 312 449 301 420.5 c 128,-1,29
 290 392 290 392 274.5 352.5 c 128,-1,30
 259 313 259 313 240.5 265.5 c 128,-1,31
 222 218 222 218 202.5 170.5 c 128,-1,32
 183 123 183 123 164 78 c 128,-1,33
 145 33 145 33 129.5 -2 c 128,-1,34
 114 -37 114 -37 101.5 -58 c 128,-1,35
 89 -79 89 -79 84 -79 c 0,0,1
58 -38 m 0,36,37
 62 -26 62 -26 70.5 -7.5 c 128,-1,38
 79 11 79 11 86 28 c 128,-1,39
 93 45 93 45 96.5 58 c 128,-1,40
 100 71 100 71 95 72 c 0,41,42
 93 73 93 73 88 73 c 128,-1,43
 83 73 83 73 80 68 c 0,44,45
 78 64 78 64 71.5 50 c 128,-1,46
 65 36 65 36 58 20 c 128,-1,47
 51 4 51 4 46 -11 c 128,-1,48
 41 -26 41 -26 41 -32 c 0,49,50
 41 -39 41 -39 48.5 -41 c 128,-1,51
 56 -43 56 -43 58 -38 c 0,36,37
EndSplineSet
EndChar

StartChar: zero
Encoding: 48 48 15
Width: 405
GlyphClass: 1
Flags: W
LayerCount: 2
Fore
SplineSet
208 -17 m 0,0,1
 155 -17 155 -17 119.5 12 c 128,-1,2
 84 41 84 41 62.5 88 c 128,-1,3
 41 135 41 135 32.5 194.5 c 128,-1,4
 24 254 24 254 24 314 c 256,5,6
 24 374 24 374 34 432 c 128,-1,7
 44 490 44 490 67 535.5 c 128,-1,8
 90 581 90 581 127 608.5 c 128,-1,9
 164 636 164 636 216 636 c 0,10,11
 251 636 251 636 276.5 618.5 c 128,-1,12
 302 601 302 601 320.5 573.5 c 128,-1,13
 339 546 339 546 351.5 511 c 128,-1,14
 364 476 364 476 370.5 440 c 128,-1,15
 377 404 377 404 379.5 371 c 128,-1,16
 382 338 382 338 382 314 c 0,17,18
 382 264 382 264 373 205.5 c 128,-1,19
 364 147 364 147 343.5 97.5 c 128,-1,20
 323 48 323 48 289.5 15.5 c 128,-1,21
 256 -17 256 -17 208 -17 c 0,0,1
98 524 m 0,22,23
 107 543 107 543 112.5 553 c 128,-1,24
 118 563 118 563 118 566 c 0,25,26
 118 568 118 568 114 568.5 c 128,-1,27
 110 569 110 569 104 562 c 0,28,29
 100 556 100 556 93 543 c 128,-1,30
 86 530 86 530 79 516 c 128,-1,31
 72 502 72 502 67 488 c 128,-1,32
 62 474 62 474 62 467 c 256,33,34
 62 460 62 460 67.5 462 c 128,-1,35
 73 464 73 464 76 471 c 0,36,37
 79 479 79 479 84 492.5 c 128,-1,38
 89 506 89 506 98 524 c 0,22,23
209 60 m 0,39,40
 241 60 241 60 259.5 87 c 128,-1,41
 278 114 278 114 287.5 154 c 128,-1,42
 297 194 297 194 299.5 240 c 128,-1,43
 302 286 302 286 302 324 c 0,44,45
 302 348 302 348 299 386.5 c 128,-1,46
 296 425 296 425 287 462.5 c 128,-1,47
 278 500 278 500 261 527 c 128,-1,48
 244 554 244 554 216 554 c 0,49,50
 193 554 193 554 177 526.5 c 128,-1,51
 161 499 161 499 150 460.5 c 128,-1,52
 139 422 139 422 134 380 c 128,-1,53
 129 338 129 338 129 308 c 0,54,55
 129 293 129 293 129 269 c 128,-1,56
 129 245 129 245 131 217 c 128,-1,57
 133 189 133 189 137.5 161.5 c 128,-1,58
 142 134 142 134 151 111.5 c 128,-1,59
 160 89 160 89 174.5 74.5 c 128,-1,60
 189 60 189 60 209 60 c 0,39,40
EndSplineSet
EndChar

StartChar: one
Encoding: 49 49 16
Width: 250
GlyphClass: 1
Flags: W
LayerCount: 2
Fore
SplineSet
163 0 m 0,0,1
 117 0 117 0 117 48 c 2,2,-1
 117 461 l 2,3,4
 117 470 117 470 116.5 477 c 128,-1,5
 116 484 116 484 114 484 c 0,6,7
 111 484 111 484 104.5 476.5 c 128,-1,8
 98 469 98 469 90.5 459.5 c 128,-1,9
 83 450 83 450 74.5 440 c 128,-1,10
 66 430 66 430 57 426 c 0,11,12
 48 421 48 421 38 421 c 0,13,14
 24 421 24 421 14.5 431 c 128,-1,15
 5 441 5 441 5 456 c 0,16,17
 5 461 5 461 15 474 c 128,-1,18
 25 487 25 487 32 498 c 0,19,20
 41 511 41 511 59.5 533.5 c 128,-1,21
 78 556 78 556 99 577.5 c 128,-1,22
 120 599 120 599 139.5 615 c 128,-1,23
 159 631 159 631 171 631 c 0,24,25
 177 631 177 631 185.5 630 c 128,-1,26
 194 629 194 629 201.5 626 c 128,-1,27
 209 623 209 623 214 617 c 128,-1,28
 219 611 219 611 219 601 c 2,29,-1
 219 49 l 2,30,31
 219 31 219 31 202.5 15.5 c 128,-1,32
 186 0 186 0 163 0 c 0,0,1
162 606 m 0,33,34
 167 614 167 614 170 617 c 128,-1,35
 173 620 173 620 170 621 c 0,36,37
 168 621 168 621 161 618 c 128,-1,38
 154 615 154 615 147 609 c 0,39,40
 142 604 142 604 134 597 c 128,-1,41
 126 590 126 590 126 586 c 0,42,43
 126 583 126 583 130 582 c 0,44,45
 137 581 137 581 147.5 591 c 128,-1,46
 158 601 158 601 162 606 c 0,33,34
151 46 m 0,47,48
 151 54 151 54 148 59.5 c 128,-1,49
 145 65 145 65 145 76 c 0,50,51
 145 81 145 81 144.5 85 c 128,-1,52
 144 89 144 89 139 89 c 0,53,54
 135 89 135 89 133 79.5 c 128,-1,55
 131 70 131 70 131 58.5 c 128,-1,56
 131 47 131 47 133 37.5 c 128,-1,57
 135 28 135 28 139 28 c 0,58,59
 151 28 151 28 151 46 c 0,47,48
EndSplineSet
EndChar

StartChar: two
Encoding: 50 50 17
Width: 352
GlyphClass: 1
Flags: W
LayerCount: 2
Fore
SplineSet
46 0 m 2,0,1
 37 0 37 0 29.5 13.5 c 128,-1,2
 22 27 22 27 24 39 c 256,3,4
 26 51 26 51 40 69.5 c 128,-1,5
 54 88 54 88 71 109 c 0,6,7
 108 155 108 155 137.5 203.5 c 128,-1,8
 167 252 167 252 188 299.5 c 128,-1,9
 209 347 209 347 220 392 c 128,-1,10
 231 437 231 437 231 476 c 0,11,12
 231 518 231 518 213.5 532.5 c 128,-1,13
 196 547 196 547 175 547 c 256,14,15
 155 547 155 547 139.5 530 c 128,-1,16
 124 513 124 513 124 475 c 0,17,18
 124 452 124 452 129 440.5 c 128,-1,19
 134 429 134 429 134 413 c 0,20,21
 134 399 134 399 118 392.5 c 128,-1,22
 102 386 102 386 91 386 c 0,23,24
 64 386 64 386 46.5 413 c 128,-1,25
 29 440 29 440 29 481 c 0,26,27
 29 514 29 514 39.5 542 c 128,-1,28
 50 570 50 570 70 591 c 128,-1,29
 90 612 90 612 117 624.5 c 128,-1,30
 144 637 144 637 176 637 c 0,31,32
 207 637 207 637 236 625 c 128,-1,33
 265 613 265 613 287.5 591 c 128,-1,34
 310 569 310 569 323.5 538 c 128,-1,35
 337 507 337 507 337 468 c 0,36,37
 337 420 337 420 324.5 373 c 128,-1,38
 312 326 312 326 293 284 c 128,-1,39
 274 242 274 242 252.5 206 c 128,-1,40
 231 170 231 170 212.5 143.5 c 128,-1,41
 194 117 194 117 181.5 100.5 c 128,-1,42
 169 84 169 84 169 81 c 1,43,44
 172 81 172 81 177 81 c 2,45,-1
 202 81 l 1,46,-1
 291 84 l 2,47,48
 309 85 309 85 318.5 81 c 128,-1,49
 328 77 328 77 332 69 c 128,-1,50
 336 61 336 61 336 51 c 128,-1,51
 336 41 336 41 336 30 c 0,52,53
 336 12 336 12 325 6 c 128,-1,54
 314 0 314 0 282 0 c 2,55,-1
 46 0 l 2,0,1
62 500 m 0,56,57
 63 512 63 512 61 519 c 128,-1,58
 59 526 59 526 56 525 c 0,59,60
 52 525 52 525 49.5 518.5 c 128,-1,61
 47 512 47 512 46.5 503.5 c 128,-1,62
 46 495 46 495 46 487 c 128,-1,63
 46 479 46 479 46 476 c 0,64,65
 48 463 48 463 51 461 c 0,66,67
 56 456 56 456 58 463 c 128,-1,68
 60 470 60 470 62 500 c 0,56,57
65 434 m 0,69,70
 65 441 65 441 57 441 c 256,71,72
 50 441 50 441 50 433 c 0,73,74
 50 431 50 431 52 428 c 128,-1,75
 54 425 54 425 56 425 c 0,76,77
 60 425 60 425 62.5 428 c 128,-1,78
 65 431 65 431 65 434 c 0,69,70
63 51 m 0,79,80
 71 70 71 70 69 71 c 0,81,82
 62 71 62 71 54 61.5 c 128,-1,83
 46 52 46 52 46 41 c 0,84,85
 46 33 46 33 50 33 c 0,86,87
 55 33 55 33 63 51 c 0,79,80
EndSplineSet
EndChar

StartChar: three
Encoding: 51 51 18
Width: 355
GlyphClass: 1
Flags: W
LayerCount: 2
Fore
SplineSet
228 498 m 0,0,1
 228 528 228 528 214 540.5 c 128,-1,2
 200 553 200 553 171 553 c 0,3,4
 137 553 137 553 120.5 527 c 128,-1,5
 104 501 104 501 104 440 c 0,6,7
 104 426 104 426 93.5 420 c 128,-1,8
 83 414 83 414 72 414 c 0,9,10
 10 414 10 414 9 505 c 0,11,12
 9 533 9 533 23 557 c 128,-1,13
 37 581 37 581 59 598.5 c 128,-1,14
 81 616 81 616 109.5 626.5 c 128,-1,15
 138 637 138 637 167 637 c 0,16,17
 212 637 212 637 244 625.5 c 128,-1,18
 276 614 276 614 296.5 594.5 c 128,-1,19
 317 575 317 575 327.5 550 c 128,-1,20
 338 525 338 525 338 499 c 0,21,22
 338 458 338 458 320 428 c 128,-1,23
 302 398 302 398 280 377 c 128,-1,24
 258 356 258 356 240 344 c 128,-1,25
 222 332 222 332 222 326 c 256,26,27
 222 320 222 320 240.5 313 c 128,-1,28
 259 306 259 306 281.5 290.5 c 128,-1,29
 304 275 304 275 322.5 247 c 128,-1,30
 341 219 341 219 341 171 c 0,31,32
 341 124 341 124 323 90.5 c 128,-1,33
 305 57 305 57 276 35.5 c 128,-1,34
 247 14 247 14 210 4 c 128,-1,35
 173 -6 173 -6 135 -6 c 0,36,37
 119 -6 119 -6 98.5 -1.5 c 128,-1,38
 78 3 78 3 60 13 c 128,-1,39
 42 23 42 23 29.5 37.5 c 128,-1,40
 17 52 17 52 17 73 c 0,41,42
 17 88 17 88 23.5 98 c 128,-1,43
 30 108 30 108 41 108 c 0,44,45
 54 108 54 108 65 103 c 128,-1,46
 76 98 76 98 86.5 92.5 c 128,-1,47
 97 87 97 87 109.5 82.5 c 128,-1,48
 122 78 122 78 137 78 c 0,49,50
 165 78 165 78 183.5 86 c 128,-1,51
 202 94 202 94 212.5 107.5 c 128,-1,52
 223 121 223 121 227 137.5 c 128,-1,53
 231 154 231 154 231 170 c 0,54,55
 231 203 231 203 213 225.5 c 128,-1,56
 195 248 195 248 165 248 c 0,57,58
 122 248 122 248 104.5 263.5 c 128,-1,59
 87 279 87 279 87 299 c 0,60,61
 87 318 87 318 109 342.5 c 128,-1,62
 131 367 131 367 157.5 392.5 c 128,-1,63
 184 418 184 418 206 445 c 128,-1,64
 228 472 228 472 228 498 c 0,0,1
51 527 m 0,65,66
 52 539 52 539 50 546.5 c 128,-1,67
 48 554 48 554 45 553 c 0,68,69
 41 553 41 553 37.5 547 c 128,-1,70
 34 541 34 541 31.5 532.5 c 128,-1,71
 29 524 29 524 27.5 516 c 128,-1,72
 26 508 26 508 27 504 c 0,73,74
 29 491 29 491 32 488 c 0,75,76
 37 483 37 483 43 490 c 128,-1,77
 49 497 49 497 51 527 c 0,65,66
45 462 m 0,78,79
 45 469 45 469 38 469 c 256,80,81
 31 469 31 469 31 461 c 0,82,83
 31 459 31 459 33 456 c 128,-1,84
 35 453 35 453 37 453 c 0,85,86
 41 453 41 453 43 456 c 128,-1,87
 45 459 45 459 45 462 c 0,78,79
121 298 m 0,88,89
 123 303 123 303 127 311 c 128,-1,90
 131 319 131 319 136 327 c 0,91,92
 140 333 140 333 141 338 c 128,-1,93
 142 343 142 343 140 343 c 0,94,95
 136 343 136 343 130 337 c 128,-1,96
 124 331 124 331 118.5 322.5 c 128,-1,97
 113 314 113 314 108.5 305.5 c 128,-1,98
 104 297 104 297 104 291 c 0,99,100
 104 282 104 282 110 282 c 256,101,102
 115 282 115 282 121 298 c 0,88,89
49 82 m 0,103,104
 49 104 49 104 40 94 c 0,105,106
 35 89 35 89 33 80 c 128,-1,107
 31 71 31 71 32 63 c 0,108,109
 33 59 33 59 35 57.5 c 128,-1,110
 37 56 37 56 39 56 c 256,111,112
 41 56 41 56 45 65 c 128,-1,113
 49 74 49 74 49 82 c 0,103,104
EndSplineSet
EndChar

StartChar: four
Encoding: 52 52 19
Width: 396
GlyphClass: 1
Flags: W
LayerCount: 2
Fore
SplineSet
306 0 m 0,0,1
 281 0 281 0 272.5 20 c 128,-1,2
 264 40 264 40 264 63 c 2,3,-1
 264 133 l 2,4,5
 264 145 264 145 251 145 c 2,6,-1
 66 145 l 2,7,8
 43 145 43 145 32.5 155.5 c 128,-1,9
 22 166 22 166 22 177 c 0,10,11
 22 182 22 182 30.5 214.5 c 128,-1,12
 39 247 39 247 52 293 c 128,-1,13
 65 339 65 339 80 391 c 128,-1,14
 95 443 95 443 109 489.5 c 128,-1,15
 123 536 123 536 133 568.5 c 128,-1,16
 143 601 143 601 146 606 c 0,17,18
 154 621 154 621 164.5 625 c 128,-1,19
 175 629 175 629 185 629 c 0,20,21
 190 629 190 629 199.5 627 c 128,-1,22
 209 625 209 625 217.5 621 c 128,-1,23
 226 617 226 617 233 612 c 128,-1,24
 240 607 240 607 240 601 c 256,25,26
 240 595 240 595 234.5 572 c 128,-1,27
 229 549 229 549 221 515.5 c 128,-1,28
 213 482 213 482 203 443 c 128,-1,29
 193 404 193 404 182.5 367 c 128,-1,30
 172 330 172 330 163 298.5 c 128,-1,31
 154 267 154 267 147 249 c 0,32,33
 145 244 145 244 144 241 c 128,-1,34
 143 238 143 238 143 234 c 0,35,36
 143 229 143 229 152 229 c 2,37,-1
 251 229 l 2,38,39
 259 229 259 229 261.5 231.5 c 128,-1,40
 264 234 264 234 264 241 c 2,41,-1
 264 549 l 2,42,43
 264 575 264 575 268.5 590.5 c 128,-1,44
 273 606 273 606 280.5 615.5 c 128,-1,45
 288 625 288 625 297 628 c 128,-1,46
 306 631 306 631 316 631 c 0,47,48
 344 631 344 631 357.5 611.5 c 128,-1,49
 371 592 371 592 371 563 c 2,50,-1
 371 72 l 2,51,52
 371 50 371 50 365.5 36 c 128,-1,53
 360 22 360 22 351 14 c 128,-1,54
 342 6 342 6 330 3 c 128,-1,55
 318 0 318 0 306 0 c 0,0,1
285 554 m 256,56,57
 289 554 289 554 292.5 560 c 128,-1,58
 296 566 296 566 298.5 574.5 c 128,-1,59
 301 583 301 583 302.5 591.5 c 128,-1,60
 304 600 304 600 304 605 c 0,61,62
 304 612 304 612 297 612 c 0,63,64
 294 612 294 612 291 607.5 c 128,-1,65
 288 603 288 603 285.5 596.5 c 128,-1,66
 283 590 283 590 281 583.5 c 128,-1,67
 279 577 279 577 279 571 c 0,68,69
 279 565 279 565 280 559.5 c 128,-1,70
 281 554 281 554 285 554 c 256,56,57
67 220 m 0,71,72
 71 233 71 233 73.5 240.5 c 128,-1,73
 76 248 76 248 75 257 c 0,74,75
 75 265 75 265 70 265 c 0,76,77
 67 265 67 265 63 257.5 c 128,-1,78
 59 250 59 250 55.5 239.5 c 128,-1,79
 52 229 52 229 50 219 c 128,-1,80
 48 209 48 209 48 204 c 0,81,82
 48 193 48 193 53 193 c 0,83,84
 61 193 61 193 67 220 c 0,71,72
56 173 m 0,85,86
 56 183 56 183 48 183 c 256,87,88
 40 183 40 183 40 173 c 0,89,90
 40 171 40 171 41 170 c 0,91,92
 45 166 45 166 48 166 c 0,93,94
 50 166 50 166 53 168 c 128,-1,95
 56 170 56 170 56 173 c 0,85,86
298 30 m 0,96,97
 295 36 295 36 292 38.5 c 128,-1,98
 289 41 289 41 289 46 c 0,99,100
 289 50 289 50 288 54 c 0,101,102
 288 62 288 62 283 62 c 0,103,104
 277 62 277 62 276 51 c 0,105,106
 276 43 276 43 281 29 c 128,-1,107
 286 15 286 15 292 15 c 0,108,109
 295 15 295 15 298 20 c 128,-1,110
 301 25 301 25 298 30 c 0,96,97
EndSplineSet
EndChar

StartChar: five
Encoding: 53 53 20
Width: 385
GlyphClass: 1
Flags: W
LayerCount: 2
Fore
SplineSet
90 -8 m 0,0,1
 67 -8 67 -8 54.5 -1.5 c 128,-1,2
 42 5 42 5 36 14.5 c 128,-1,3
 30 24 30 24 28.5 33.5 c 128,-1,4
 27 43 27 43 27 49 c 0,5,6
 27 63 27 63 32.5 71.5 c 128,-1,7
 38 80 38 80 47 83.5 c 128,-1,8
 56 87 56 87 67.5 87.5 c 128,-1,9
 79 88 79 88 90 88 c 0,10,11
 179 88 179 88 216.5 115 c 128,-1,12
 254 142 254 142 254 201 c 0,13,14
 254 257 254 257 227.5 283.5 c 128,-1,15
 201 310 201 310 151 310 c 0,16,17
 132 310 132 310 119 307 c 128,-1,18
 106 304 106 304 97 300.5 c 128,-1,19
 88 297 88 297 80 294 c 128,-1,20
 72 291 72 291 61 291 c 256,21,22
 51 291 51 291 45 300 c 128,-1,23
 39 309 39 309 36 322 c 128,-1,24
 33 335 33 335 32.5 350 c 128,-1,25
 32 365 32 365 32 375 c 2,26,-1
 32 582 l 2,27,28
 32 610 32 610 45.5 620.5 c 128,-1,29
 59 631 59 631 79 631 c 2,30,-1
 317 631 l 2,31,32
 325 631 325 631 332.5 623 c 128,-1,33
 340 615 340 615 340 601 c 0,34,35
 340 583 340 583 332.5 566 c 128,-1,36
 325 549 325 549 315 549 c 2,37,-1
 143 548 l 2,38,39
 138 548 138 548 136 543.5 c 128,-1,40
 134 539 134 539 134 534 c 2,41,-1
 134 409 l 2,42,43
 134 393 134 393 137 390.5 c 128,-1,44
 140 388 140 388 147 388 c 2,45,-1
 172 389 l 2,46,47
 213 391 213 391 247.5 380.5 c 128,-1,48
 282 370 282 370 306.5 346.5 c 128,-1,49
 331 323 331 323 344.5 287 c 128,-1,50
 358 251 358 251 358 202 c 0,51,52
 358 162 358 162 342 124.5 c 128,-1,53
 326 87 326 87 292.5 57.5 c 128,-1,54
 259 28 259 28 209 10 c 128,-1,55
 159 -8 159 -8 90 -8 c 0,0,1
60 413 m 0,56,57
 60 432 60 432 59 442.5 c 128,-1,58
 58 453 58 453 52 446 c 0,59,60
 49 443 49 443 47 431 c 128,-1,61
 45 419 45 419 45 404.5 c 128,-1,62
 45 390 45 390 47 378 c 128,-1,63
 49 366 49 366 52 362 c 256,64,65
 55 359 55 359 56 359 c 0,66,67
 60 360 60 360 60 413 c 0,56,57
69 334 m 0,68,69
 69 344 69 344 63 344 c 0,70,71
 52 344 52 344 52 330 c 0,72,73
 52 323 52 323 60 323 c 0,74,75
 65 323 65 323 67 327.5 c 128,-1,76
 69 332 69 332 69 334 c 0,68,69
59 49 m 0,77,78
 58 51 58 51 58.5 55 c 128,-1,79
 59 59 59 59 59.5 63 c 128,-1,80
 60 67 60 67 59 69.5 c 128,-1,81
 58 72 58 72 54 72 c 0,82,83
 49 72 49 72 47 63 c 128,-1,84
 45 54 45 54 46 43 c 256,85,86
 47 32 47 32 50 22 c 128,-1,87
 53 12 53 12 59 12 c 0,88,89
 61 12 61 12 62.5 23.5 c 128,-1,90
 64 35 64 35 59 49 c 0,77,78
EndSplineSet
EndChar

StartChar: six
Encoding: 54 54 21
Width: 416
GlyphClass: 1
Flags: W
LayerCount: 2
Fore
SplineSet
212 -11 m 0,0,1
 159 -11 159 -11 121.5 9 c 128,-1,2
 84 29 84 29 60.5 62.5 c 128,-1,3
 37 96 37 96 26 139.5 c 128,-1,4
 15 183 15 183 15 230 c 0,5,6
 15 282 15 282 23.5 336 c 128,-1,7
 32 390 32 390 49.5 439 c 128,-1,8
 67 488 67 488 95 530 c 128,-1,9
 123 572 123 572 163 601 c 0,10,11
 192 621 192 621 220.5 628 c 128,-1,12
 249 635 249 635 271 635 c 0,13,14
 276 635 276 635 284 633.5 c 128,-1,15
 292 632 292 632 299 629 c 128,-1,16
 306 626 306 626 311.5 620.5 c 128,-1,17
 317 615 317 615 317 607 c 0,18,19
 317 593 317 593 312 581 c 128,-1,20
 307 569 307 569 280 560 c 0,21,22
 253 551 253 551 231.5 533.5 c 128,-1,23
 210 516 210 516 193 494 c 128,-1,24
 176 472 176 472 164 446 c 128,-1,25
 152 420 152 420 142 394 c 0,26,27
 137 382 137 382 133 363 c 128,-1,28
 129 344 129 344 129 333 c 0,29,30
 129 323 129 323 133 323 c 0,31,32
 136 323 136 323 143.5 332.5 c 128,-1,33
 151 342 151 342 164 353.5 c 128,-1,34
 177 365 177 365 196.5 374.5 c 128,-1,35
 216 384 216 384 244 384 c 0,36,37
 323 384 323 384 364.5 331 c 128,-1,38
 406 278 406 278 406 191 c 0,39,40
 406 149 406 149 390.5 112.5 c 128,-1,41
 375 76 375 76 348.5 48 c 128,-1,42
 322 20 322 20 286.5 4.5 c 128,-1,43
 251 -11 251 -11 212 -11 c 0,0,1
207 82 m 0,44,45
 250 82 250 82 276 109 c 128,-1,46
 302 136 302 136 302 195 c 0,47,48
 302 212 302 212 299 229.5 c 128,-1,49
 296 247 296 247 288 261 c 128,-1,50
 280 275 280 275 266 284 c 128,-1,51
 252 293 252 293 230 293 c 0,52,53
 211 293 211 293 191 282.5 c 128,-1,54
 171 272 171 272 155.5 256.5 c 128,-1,55
 140 241 140 241 130.5 221 c 128,-1,56
 121 201 121 201 121 182 c 0,57,58
 121 140 121 140 139 111 c 128,-1,59
 157 82 157 82 207 82 c 0,44,45
78 110 m 0,60,61
 75 121 75 121 71 130.5 c 128,-1,62
 67 140 67 140 63 152 c 0,63,64
 61 158 61 158 59.5 163 c 128,-1,65
 58 168 58 168 54 167 c 0,66,67
 51 167 51 167 49 159 c 0,68,69
 48 152 48 152 51.5 138.5 c 128,-1,70
 55 125 55 125 60.5 112.5 c 128,-1,71
 66 100 66 100 71.5 91.5 c 128,-1,72
 77 83 77 83 79 83 c 0,73,74
 84 83 84 83 84 88 c 0,75,76
 84 92 84 92 82 97.5 c 128,-1,77
 80 103 80 103 78 110 c 0,60,61
EndSplineSet
EndChar

StartChar: seven
Encoding: 55 55 22
Width: 325
GlyphClass: 1
Flags: W
LayerCount: 2
Fore
SplineSet
89 -2 m 0,0,1
 75 -2 75 -2 65 6.5 c 128,-1,2
 55 15 55 15 55 26 c 0,3,4
 55 35 55 35 65.5 72 c 128,-1,5
 76 109 76 109 91 160 c 128,-1,6
 106 211 106 211 124.5 269.5 c 128,-1,7
 143 328 143 328 160 380 c 128,-1,8
 177 432 177 432 190.5 472 c 128,-1,9
 204 512 204 512 209 526 c 0,10,11
 214 541 214 541 202 542 c 2,12,-1
 69 542 l 2,13,14
 41 542 41 542 25.5 550.5 c 128,-1,15
 10 559 10 559 10 587 c 256,16,17
 10 615 10 615 27 623 c 128,-1,18
 44 631 44 631 71 631 c 2,19,-1
 287 631 l 2,20,21
 304 631 304 631 316.5 620 c 128,-1,22
 329 609 329 609 329 595 c 0,23,24
 329 585 329 585 317.5 542 c 128,-1,25
 306 499 306 499 288 439.5 c 128,-1,26
 270 380 270 380 248 311 c 128,-1,27
 226 242 226 242 205.5 180.5 c 128,-1,28
 185 119 185 119 169 73 c 128,-1,29
 153 27 153 27 144 11 c 0,30,31
 142 6 142 6 127.5 2 c 128,-1,32
 113 -2 113 -2 89 -2 c 0,0,1
43 608 m 0,33,34
 43 616 43 616 38 616 c 256,35,36
 33 616 33 616 26 608.5 c 128,-1,37
 19 601 19 601 19 590 c 0,38,39
 19 570 19 570 28 569 c 0,40,41
 31 569 31 569 34 574 c 128,-1,42
 37 579 37 579 39 585 c 128,-1,43
 41 591 41 591 42 597.5 c 128,-1,44
 43 604 43 604 43 608 c 0,33,34
89 39 m 0,45,46
 91 49 91 49 93 60 c 128,-1,47
 95 71 95 71 97 75 c 0,48,49
 101 80 101 80 99.5 85 c 128,-1,50
 98 90 98 90 93 90 c 0,51,52
 90 90 90 90 86.5 83 c 128,-1,53
 83 76 83 76 80.5 66 c 128,-1,54
 78 56 78 56 76 46.5 c 128,-1,55
 74 37 74 37 74 32 c 0,56,57
 74 20 74 20 79 19 c 256,58,59
 84 20 84 20 89 39 c 0,45,46
EndSplineSet
EndChar

StartChar: eight
Encoding: 56 56 23
Width: 416
GlyphClass: 1
Flags: W
LayerCount: 2
Fore
SplineSet
200 -6 m 0,0,1
 159 -6 159 -6 124.5 9 c 128,-1,2
 90 24 90 24 66 48 c 128,-1,3
 42 72 42 72 28.5 103 c 128,-1,4
 15 134 15 134 15 167 c 0,5,6
 15 206 15 206 32.5 233.5 c 128,-1,7
 50 261 50 261 71 280.5 c 128,-1,8
 92 300 92 300 109.5 313 c 128,-1,9
 127 326 127 326 127 333 c 0,10,11
 127 341 127 341 111 350 c 128,-1,12
 95 359 95 359 75.5 375.5 c 128,-1,13
 56 392 56 392 40.5 417 c 128,-1,14
 25 442 25 442 25 482 c 0,15,16
 25 515 25 515 39.5 543.5 c 128,-1,17
 54 572 54 572 79.5 593.5 c 128,-1,18
 105 615 105 615 138 627.5 c 128,-1,19
 171 640 171 640 207 640 c 0,20,21
 234 640 234 640 264.5 629 c 128,-1,22
 295 618 295 618 321 598.5 c 128,-1,23
 347 579 347 579 364 549 c 128,-1,24
 381 519 381 519 381 480 c 0,25,26
 381 442 381 442 366.5 419 c 128,-1,27
 352 396 352 396 335 382.5 c 128,-1,28
 318 369 318 369 304 361.5 c 128,-1,29
 290 354 290 354 290 348 c 0,30,31
 290 339 290 339 307.5 327 c 128,-1,32
 325 315 325 315 346 296.5 c 128,-1,33
 367 278 367 278 384 248 c 128,-1,34
 401 218 401 218 401 173 c 0,35,36
 401 139 401 139 385.5 107 c 128,-1,37
 370 75 370 75 342 49.5 c 128,-1,38
 314 24 314 24 278 9 c 128,-1,39
 242 -6 242 -6 200 -6 c 0,0,1
69 524 m 0,40,41
 70 530 70 530 75 537.5 c 128,-1,42
 80 545 80 545 86 551.5 c 128,-1,43
 92 558 92 558 97.5 563.5 c 128,-1,44
 103 569 103 569 106 572 c 0,45,46
 117 584 117 584 118 592 c 0,47,48
 118 596 118 596 114 596 c 0,49,50
 105 596 105 596 94 586.5 c 128,-1,51
 83 577 83 577 74 563 c 128,-1,52
 65 549 65 549 58.5 535 c 128,-1,53
 52 521 52 521 52 513 c 256,54,55
 52 505 52 505 56 505 c 0,56,57
 64 505 64 505 69 524 c 0,40,41
207 380 m 0,58,59
 220 380 220 380 233 388.5 c 128,-1,60
 246 397 246 397 256 411.5 c 128,-1,61
 266 426 266 426 273 444 c 128,-1,62
 280 462 280 462 280 480 c 0,63,64
 280 516 280 516 259.5 542 c 128,-1,65
 239 568 239 568 206 568 c 256,66,67
 173 568 173 568 149.5 545.5 c 128,-1,68
 126 523 126 523 126 484 c 0,69,70
 126 470 126 470 131 452 c 128,-1,71
 136 434 136 434 146.5 417.5 c 128,-1,72
 157 401 157 401 172.5 390.5 c 128,-1,73
 188 380 188 380 207 380 c 0,58,59
58 480 m 0,74,75
 58 489 58 489 51 489 c 0,76,77
 46 489 46 489 44.5 486 c 128,-1,78
 43 483 43 483 43 480 c 0,79,80
 43 478 43 478 44 476 c 0,81,82
 46 472 46 472 50 472 c 0,83,84
 52 472 52 472 55 474 c 128,-1,85
 58 476 58 476 58 480 c 0,74,75
202 75 m 0,86,87
 251 75 251 75 269 100.5 c 128,-1,88
 287 126 287 126 287 173 c 0,89,90
 287 192 287 192 279 213 c 128,-1,91
 271 234 271 234 259.5 251.5 c 128,-1,92
 248 269 248 269 234.5 280.5 c 128,-1,93
 221 292 221 292 210 292 c 0,94,95
 195 292 195 292 179.5 280 c 128,-1,96
 164 268 164 268 151.5 250 c 128,-1,97
 139 232 139 232 131.5 210 c 128,-1,98
 124 188 124 188 124 167 c 0,99,100
 124 151 124 151 129.5 134.5 c 128,-1,101
 135 118 135 118 145 104.5 c 128,-1,102
 155 91 155 91 169.5 83 c 128,-1,103
 184 75 184 75 202 75 c 0,86,87
62 227 m 256,104,105
 65 235 65 235 62 238.5 c 128,-1,106
 59 242 59 242 52 234 c 0,107,108
 49 231 49 231 44 223.5 c 128,-1,109
 39 216 39 216 34.5 207 c 128,-1,110
 30 198 30 198 26.5 188 c 128,-1,111
 23 178 23 178 23 170 c 0,112,113
 22 162 22 162 25.5 154 c 128,-1,114
 29 146 29 146 36 146 c 0,115,116
 44 146 44 146 43 159 c 128,-1,117
 42 172 42 172 44 183 c 0,118,119
 47 198 47 198 53 208.5 c 128,-1,120
 59 219 59 219 62 227 c 256,104,105
EndSplineSet
EndChar

StartChar: nine
Encoding: 57 57 24
Width: 411
GlyphClass: 1
Flags: W
LayerCount: 2
Fore
SplineSet
205 638 m 0,0,1
 261 638 261 638 299 616 c 128,-1,2
 337 594 337 594 359.5 559 c 128,-1,3
 382 524 382 524 391.5 481 c 128,-1,4
 401 438 401 438 401 396 c 0,5,6
 401 344 401 344 389.5 291 c 128,-1,7
 378 238 378 238 357 189.5 c 128,-1,8
 336 141 336 141 307.5 101 c 128,-1,9
 279 61 279 61 245 35 c 0,10,11
 217 13 217 13 188 2.5 c 128,-1,12
 159 -8 159 -8 136 -8 c 0,13,14
 118 -8 118 -8 105 -1.5 c 128,-1,15
 92 5 92 5 92 22 c 0,16,17
 92 37 92 37 100.5 53 c 128,-1,18
 109 69 109 69 136 78 c 128,-1,19
 163 87 163 87 184 102.5 c 128,-1,20
 205 118 205 118 221.5 138.5 c 128,-1,21
 238 159 238 159 249.5 183 c 128,-1,22
 261 207 261 207 270 232 c 0,23,24
 275 244 275 244 279.5 263.5 c 128,-1,25
 284 283 284 283 284 294 c 0,26,27
 284 304 284 304 280 304 c 0,28,29
 277 304 277 304 270 296 c 128,-1,30
 263 288 263 288 250 278.5 c 128,-1,31
 237 269 237 269 216.5 261 c 128,-1,32
 196 253 196 253 165 253 c 0,33,34
 93 253 93 253 52.5 302 c 128,-1,35
 12 351 12 351 12 435 c 0,36,37
 12 474 12 474 24.5 511 c 128,-1,38
 37 548 37 548 61.5 576 c 128,-1,39
 86 604 86 604 122 621 c 128,-1,40
 158 638 158 638 205 638 c 0,0,1
210 548 m 0,41,42
 167 548 167 548 141 520.5 c 128,-1,43
 115 493 115 493 115 442 c 0,44,45
 115 399 115 399 134 373 c 128,-1,46
 153 347 153 347 186 347 c 0,47,48
 206 347 206 347 225.5 355.5 c 128,-1,49
 245 364 245 364 259 377 c 128,-1,50
 273 390 273 390 282.5 408 c 128,-1,51
 292 426 292 426 292 444 c 0,52,53
 292 466 292 466 288.5 484.5 c 128,-1,54
 285 503 285 503 275.5 517 c 128,-1,55
 266 531 266 531 250.5 539.5 c 128,-1,56
 235 548 235 548 210 548 c 0,41,42
63 498 m 0,57,58
 65 508 65 508 68 515.5 c 128,-1,59
 71 523 71 523 71 529 c 0,60,61
 71 536 71 536 63 537 c 0,62,63
 60 537 60 537 54.5 523.5 c 128,-1,64
 49 510 49 510 44.5 491.5 c 128,-1,65
 40 473 40 473 37 454.5 c 128,-1,66
 34 436 34 436 36 425 c 0,67,68
 39 413 39 413 44 413 c 256,69,70
 49 413 49 413 51.5 420.5 c 128,-1,71
 54 428 54 428 56 436 c 0,72,73
 60 453 60 453 60 468 c 128,-1,74
 60 483 60 483 63 498 c 0,57,58
59 389 m 0,75,76
 59 394 59 394 57.5 397.5 c 128,-1,77
 56 401 56 401 53 401 c 0,78,79
 48 401 48 401 44 398 c 128,-1,80
 40 395 40 395 40 385 c 0,81,82
 40 382 40 382 42.5 379 c 128,-1,83
 45 376 45 376 49 376 c 0,84,85
 55 376 55 376 57 381.5 c 128,-1,86
 59 387 59 387 59 389 c 0,75,76
133 59 m 2,87,88
 133 62 133 62 128.5 61 c 128,-1,89
 124 60 124 60 119 56 c 128,-1,90
 114 52 114 52 109.5 45 c 128,-1,91
 105 38 105 38 105 29 c 0,92,93
 105 27 105 27 107 20.5 c 128,-1,94
 109 14 109 14 113 14 c 0,95,96
 116 14 116 14 119.5 21 c 128,-1,97
 123 28 123 28 126 36.5 c 128,-1,98
 129 45 129 45 130 48.5 c 0,99,100
 133 59 l 2,87,88
EndSplineSet
EndChar

StartChar: semicolon
Encoding: 59 59 26
Width: 268
VWidth: 1000
GlyphClass: 1
Flags: W
LayerCount: 2
Fore
SplineSet
66.5595703125 -85.4501953125 m 0,0,1
 52.3203125 -85.4501953125 52.3203125 -85.4501953125 43.419921875 -78.275390625 c 0,2,3
 34.51953125 -71.099609375 34.51953125 -71.099609375 34.51953125 -50.599609375 c 0,4,5
 34.51953125 -40.349609375 34.51953125 -40.349609375 46.08984375 -34.2001953125 c 0,6,7
 57.66015625 -28.0498046875 57.66015625 -28.0498046875 75.4599609375 -23.9501953125 c 0,8,9
 100.379882812 -19.849609375 100.379882812 -19.849609375 103.049804688 0.650390625 c 0,10,11
 105.719726562 21.150390625 105.719726562 21.150390625 91.48046875 21.150390625 c 0,12,13
 71.900390625 21.150390625 71.900390625 21.150390625 59.4404296875 43.7001953125 c 0,14,15
 46.98046875 66.25 46.98046875 66.25 46.98046875 94.9501953125 c 0,16,17
 46.98046875 138 46.98046875 138 71.009765625 174.900390625 c 0,18,19
 95.0400390625 211.799804688 95.0400390625 211.799804688 141.3203125 211.799804688 c 0,20,21
 182.259765625 211.799804688 182.259765625 211.799804688 201.83984375 179 c 0,22,23
 221.419921875 146.200195312 221.419921875 146.200195312 221.419921875 107.25 c 0,24,25
 221.419921875 72.400390625 221.419921875 72.400390625 208.959960938 38.5751953125 c 0,26,27
 196.5 4.75 196.5 4.75 175.139648438 -22.9248046875 c 0,28,29
 153.780273438 -50.599609375 153.780273438 -50.599609375 126.190429688 -68.025390625 c 0,30,31
 98.599609375 -85.4501953125 98.599609375 -85.4501953125 66.5595703125 -85.4501953125 c 0,0,1
91.48046875 117.5 m 0,32,33
 93.259765625 127.75 93.259765625 127.75 99.490234375 138 c 0,34,35
 105.719726562 148.25 105.719726562 148.25 109.280273438 154.400390625 c 0,36,37
 112.83984375 162.599609375 112.83984375 162.599609375 112.83984375 172.849609375 c 0,38,39
 112.83984375 174.900390625 112.83984375 174.900390625 111.059570312 176.950195312 c 0,40,41
 96.8203125 176.950195312 96.8203125 176.950195312 84.3603515625 150.299804688 c 0,42,43
 71.900390625 123.650390625 71.900390625 123.650390625 71.900390625 107.25 c 0,44,45
 71.900390625 82.650390625 71.900390625 82.650390625 75.4599609375 82.650390625 c 0,46,47
 86.1396484375 82.650390625 86.1396484375 82.650390625 91.48046875 117.5 c 0,32,33
EndSplineSet
Refer: 13 46 N 1 0 0 1 6.144 401.408 2
EndChar

StartChar: less
Encoding: 60 60 27
Width: 585
GlyphClass: 1
Flags: W
LayerCount: 2
Fore
SplineSet
534 119 m 1,0,-1
 51 331 l 1,1,-1
 51 382 l 1,2,-1
 534 623 l 1,3,-1
 534 543 l 1,4,-1
 147 360 l 1,5,-1
 534 199 l 1,6,-1
 534 119 l 1,0,-1
EndSplineSet
EndChar

StartChar: equal
Encoding: 61 61 28
Width: 585
GlyphClass: 1
Flags: W
LayerCount: 2
Fore
SplineSet
57 426 m 1,0,-1
 57 499 l 1,1,-1
 526 499 l 1,2,-1
 526 426 l 1,3,-1
 57 426 l 1,0,-1
57 222 m 1,4,-1
 57 295 l 1,5,-1
 526 295 l 1,6,-1
 526 222 l 1,7,-1
 57 222 l 1,4,-1
EndSplineSet
EndChar

StartChar: greater
Encoding: 62 62 29
Width: 585
GlyphClass: 1
Flags: W
LayerCount: 2
Fore
SplineSet
51 199 m 1,0,-1
 437 359 l 1,1,-1
 51 543 l 1,2,-1
 51 623 l 1,3,-1
 534 382 l 1,4,-1
 534 331 l 1,5,-1
 51 119 l 1,6,-1
 51 199 l 1,0,-1
EndSplineSet
EndChar

StartChar: question
Encoding: 63 63 30
Width: 444
GlyphClass: 1
Flags: W
LayerCount: 2
Fore
SplineSet
143 204 m 6,0,1
 143 243 143 243 151 271 c 132,-1,2
 159 299 159 299 178 324.5 c 132,-1,3
 197 350 197 350 229 378 c 4,4,5
 269 412 269 412 291 434.5 c 132,-1,6
 313 457 313 457 322.5 478.5 c 132,-1,7
 332 500 332 500 332 530 c 4,8,9
 332 579 332 579 300 606 c 132,-1,10
 268 633 268 633 208 633 c 4,11,12
 158 633 158 633 119 620 c 132,-1,13
 80 607 80 607 44 590 c 5,14,-1
 12 662 l 5,15,16
 53 684 53 684 103 698 c 132,-1,17
 153 712 153 712 214 712 c 4,18,19
 311 712 311 712 364.5 663.5 c 132,-1,20
 418 615 418 615 418 532 c 4,21,22
 418 486 418 486 403 454 c 132,-1,23
 388 422 388 422 361 395 c 132,-1,24
 334 368 334 368 297 337 c 4,25,26
 263 308 263 308 245 286.5 c 132,-1,27
 227 265 227 265 221 244 c 132,-1,28
 215 223 215 223 215 194 c 6,29,-1
 215 176 l 5,30,-1
 143 176 l 5,31,-1
 143 204 l 6,0,1
120 26 m 4,32,33
 120 64 120 64 138 79 c 132,-1,34
 156 94 156 94 183 94 c 4,35,36
 209 94 209 94 227.5 78.5 c 132,-1,37
 246 63 246 63 246 26 c 4,38,39
 246 -11 246 -11 227.5 -27.5 c 132,-1,40
 209 -44 209 -44 183 -44 c 4,41,42
 155 -44 155 -44 137.5 -27.5 c 132,-1,43
 120 -11 120 -11 120 26 c 4,32,33
EndSplineSet
EndChar

StartChar: bracketleft
Encoding: 91 91 31
Width: 266
GlyphClass: 1
Flags: W
LayerCount: 2
Fore
SplineSet
45 -72 m 0,0,1
 42 -69 42 -69 40.5 -58 c 128,-1,2
 39 -47 39 -47 38 -12.5 c 128,-1,3
 37 22 37 22 37 89 c 128,-1,4
 37 156 37 156 37 272 c 0,5,6
 37 355 37 355 37 414.5 c 128,-1,7
 37 474 37 474 37 515.5 c 128,-1,8
 37 557 37 557 38 583.5 c 128,-1,9
 39 610 39 610 41 626 c 128,-1,10
 43 642 43 642 46 650 c 128,-1,11
 49 658 49 658 54 665 c 0,12,13
 58 670 58 670 70 673 c 128,-1,14
 82 676 82 676 98 677.5 c 128,-1,15
 114 679 114 679 134 679.5 c 128,-1,16
 154 680 154 680 174 680 c 0,17,18
 216 680 216 680 237 665.5 c 128,-1,19
 258 651 258 651 239 631 c 0,20,21
 234 625 234 625 219.5 620.5 c 128,-1,22
 205 616 205 616 174 616 c 0,23,24
 160 616 160 616 152 614 c 128,-1,25
 144 612 144 612 141 607 c 128,-1,26
 138 602 138 602 138 593.5 c 128,-1,27
 138 585 138 585 138 570 c 2,28,-1
 138 -20 l 1,29,-1
 157 -20 l 2,30,31
 201 -20 201 -20 215.5 -28 c 128,-1,32
 230 -36 230 -36 230 -57 c 0,33,34
 230 -67 230 -67 226.5 -73 c 128,-1,35
 223 -79 223 -79 212.5 -81.5 c 128,-1,36
 202 -84 202 -84 183.5 -84.5 c 128,-1,37
 165 -85 165 -85 134 -85 c 0,38,39
 106 -85 106 -85 90.5 -85 c 128,-1,40
 75 -85 75 -85 65.5 -83.5 c 128,-1,41
 56 -82 56 -82 52 -79.5 c 128,-1,42
 48 -77 48 -77 45 -72 c 0,0,1
83 631 m 256,43,44
 85 639 85 639 94 645 c 128,-1,45
 103 651 103 651 110 651 c 0,46,47
 119 651 119 651 119 658 c 0,48,49
 119 659 119 659 117.5 659 c 128,-1,50
 116 659 116 659 110 659 c 0,51,52
 95 659 95 659 80.5 649 c 128,-1,53
 66 639 66 639 66 625 c 0,54,55
 66 613 66 613 70 612 c 256,56,57
 74 612 74 612 77.5 617.5 c 128,-1,58
 81 623 81 623 83 631 c 256,43,44
EndSplineSet
EndChar

StartChar: backslash
Encoding: 92 92 32
Width: 393
GlyphClass: 1
Flags: W
LayerCount: 2
Fore
SplineSet
84 682 m 0,0,1
 91 682 91 682 109.5 645.5 c 128,-1,2
 128 609 128 609 152 554 c 128,-1,3
 176 499 176 499 202.5 433 c 128,-1,4
 229 367 229 367 252.5 307 c 128,-1,5
 276 247 276 247 293 202.5 c 128,-1,6
 310 158 310 158 316 145 c 0,7,8
 322 132 322 132 334 104 c 128,-1,9
 346 76 346 76 358 45.5 c 128,-1,10
 370 15 370 15 378.5 -11 c 128,-1,11
 387 -37 387 -37 387 -45 c 0,12,13
 387 -52 387 -52 382 -58.5 c 128,-1,14
 377 -65 377 -65 369 -69.5 c 128,-1,15
 361 -74 361 -74 352.5 -76.5 c 128,-1,16
 344 -79 344 -79 337 -79 c 0,17,18
 323 -79 323 -79 311 -69 c 128,-1,19
 299 -59 299 -59 292 -48 c 0,20,21
 286 -38 286 -38 270.5 -3 c 128,-1,22
 255 32 255 32 234.5 81.5 c 128,-1,23
 214 131 214 131 189.5 191.5 c 128,-1,24
 165 252 165 252 140.5 313.5 c 128,-1,25
 116 375 116 375 93 433.5 c 128,-1,26
 70 492 70 492 52.5 538 c 128,-1,27
 35 584 35 584 24 613 c 128,-1,28
 13 642 13 642 13 645 c 0,29,30
 13 654 13 654 22.5 661.5 c 128,-1,31
 32 669 32 669 44 673.5 c 128,-1,32
 56 678 56 678 68 680 c 128,-1,33
 80 682 80 682 84 682 c 0,0,1
58 641 m 0,34,35
 56 646 56 646 48.5 644 c 128,-1,36
 41 642 41 642 41 635 c 0,37,38
 41 629 41 629 46 614 c 128,-1,39
 51 599 51 599 58 583 c 128,-1,40
 65 567 65 567 71.5 553.5 c 128,-1,41
 78 540 78 540 80 536 c 0,42,43
 83 531 83 531 88 530.5 c 128,-1,44
 93 530 93 530 95 531 c 0,45,46
 100 532 100 532 96.5 545 c 128,-1,47
 93 558 93 558 86 575 c 128,-1,48
 79 592 79 592 70.5 610.5 c 128,-1,49
 62 629 62 629 58 641 c 0,34,35
EndSplineSet
EndChar

StartChar: bracketright
Encoding: 93 93 33
Width: 244
GlyphClass: 1
Flags: W
LayerCount: 2
Fore
SplineSet
51 -82 m 0,0,1
 36 -82 36 -82 25 -73.5 c 128,-1,2
 14 -65 14 -65 14 -56 c 0,3,4
 14 -33 14 -33 28 -25 c 128,-1,5
 42 -17 42 -17 62 -17 c 0,6,7
 87 -17 87 -17 101 -15 c 128,-1,8
 115 -13 115 -13 121.5 -8.5 c 128,-1,9
 128 -4 128 -4 129.5 3.5 c 128,-1,10
 131 11 131 11 131 22 c 2,11,-1
 131 564 l 2,12,13
 131 594 131 594 118.5 604 c 128,-1,14
 106 614 106 614 95 614 c 256,15,16
 84 614 84 614 71.5 612 c 128,-1,17
 59 610 59 610 48 610 c 0,18,19
 34 610 34 610 24 617.5 c 128,-1,20
 14 625 14 625 14 648 c 0,21,22
 14 660 14 660 31 669 c 128,-1,23
 48 678 48 678 78 678 c 0,24,25
 104 678 104 678 128.5 678 c 128,-1,26
 153 678 153 678 173 676.5 c 128,-1,27
 193 675 193 675 206 672 c 128,-1,28
 219 669 219 669 222 663 c 0,29,30
 225 658 225 658 225.5 641 c 128,-1,31
 226 624 226 624 226 584.5 c 128,-1,32
 226 545 226 545 226.5 477.5 c 128,-1,33
 227 410 227 410 228 302 c 0,34,35
 230 198 230 198 231 130.5 c 128,-1,36
 232 63 232 63 231 22 c 0,37,38
 231 -7 231 -7 227 -25.5 c 128,-1,39
 223 -44 223 -44 217 -55.5 c 128,-1,40
 211 -67 211 -67 202.5 -72 c 128,-1,41
 194 -77 194 -77 183 -78 c 0,42,43
 165 -80 165 -80 143 -81 c 128,-1,44
 121 -82 121 -82 101.5 -82 c 128,-1,45
 82 -82 82 -82 67.5 -82 c 128,-1,46
 53 -82 53 -82 51 -82 c 0,0,1
46 659 m 256,47,48
 42 664 42 664 35 660 c 128,-1,49
 28 656 28 656 28 648 c 0,50,51
 28 638 28 638 32 638 c 256,52,53
 36 638 36 638 36 645 c 0,54,55
 37 649 37 649 43.5 651.5 c 128,-1,56
 50 654 50 654 46 659 c 256,47,48
EndSplineSet
EndChar

StartChar: asciicircum
Encoding: 94 94 34
Width: 585
GlyphClass: 1
Flags: W
LayerCount: 2
Fore
SplineSet
39 273 m 1,0,-1
 256 736 l 1,1,-1
 307 736 l 1,2,-1
 547 273 l 1,3,-1
 467 273 l 1,4,-1
 283 641 l 1,5,-1
 119 273 l 1,6,-1
 39 273 l 1,0,-1
EndSplineSet
EndChar

StartChar: underscore
Encoding: 95 95 35
Width: 454
GlyphClass: 1
Flags: W
LayerCount: 2
Fore
SplineSet
457 -158 m 1,0,-1
 -2 -158 l 1,1,-1
 -2 -92 l 1,2,-1
 457 -92 l 1,3,-1
 457 -158 l 1,0,-1
EndSplineSet
EndChar

StartChar: braceleft
Encoding: 123 123 36
Width: 400
GlyphClass: 1
Flags: W
LayerCount: 2
Fore
SplineSet
45 379 m 1,0,1
 86 379 86 379 114 388 c 128,-1,2
 142 397 142 397 156.5 417.5 c 128,-1,3
 171 438 171 438 171 471 c 2,4,-1
 171 708 l 2,5,6
 171 759 171 759 193.5 790 c 128,-1,7
 216 821 216 821 255.5 836 c 128,-1,8
 295 851 295 851 345 852 c 1,9,-1
 345 778 l 1,10,11
 317 778 317 778 296.5 771.5 c 128,-1,12
 276 765 276 765 265 749 c 128,-1,13
 254 733 254 733 254 701 c 2,14,-1
 254 466 l 2,15,16
 254 415 254 415 226.5 384.5 c 128,-1,17
 199 354 199 354 145 343 c 1,18,-1
 145 338 l 1,19,20
 198 328 198 328 226 298 c 128,-1,21
 254 268 254 268 254 216 c 2,22,-1
 254 -18 l 2,23,24
 254 -50 254 -50 265 -66.5 c 128,-1,25
 276 -83 276 -83 296.5 -89 c 128,-1,26
 317 -95 317 -95 345 -96 c 1,27,-1
 345 -170 l 1,28,29
 295 -169 295 -169 255.5 -154 c 128,-1,30
 216 -139 216 -139 193.5 -108 c 128,-1,31
 171 -77 171 -77 171 -26 c 2,32,-1
 171 211 l 2,33,34
 171 245 171 245 156.5 265 c 128,-1,35
 142 285 142 285 114 294 c 128,-1,36
 86 303 86 303 45 303 c 1,37,-1
 45 379 l 1,0,1
EndSplineSet
Validated: 1
EndChar

StartChar: bar
Encoding: 124 124 37
Width: 552
GlyphClass: 1
Flags: W
LayerCount: 2
Fore
SplineSet
240 852 m 1,0,-1
 313 852 l 1,1,-1
 313 -170 l 1,2,-1
 240 -170 l 1,3,-1
 240 852 l 1,0,-1
EndSplineSet
Validated: 1
EndChar

StartChar: braceright
Encoding: 125 125 38
Width: 385
GlyphClass: 1
Flags: W
LayerCount: 2
Fore
SplineSet
355 303 m 1,0,1
 314 303 314 303 286.5 294 c 128,-1,2
 259 285 259 285 244.5 265 c 128,-1,3
 230 245 230 245 230 211 c 2,4,-1
 230 -26 l 2,5,6
 230 -77 230 -77 207 -108 c 128,-1,7
 184 -139 184 -139 144.5 -154 c 128,-1,8
 105 -169 105 -169 55 -170 c 1,9,-1
 55 -96 l 1,10,11
 84 -95 84 -95 104.5 -89 c 128,-1,12
 125 -83 125 -83 135.5 -66.5 c 128,-1,13
 146 -50 146 -50 146 -18 c 2,14,-1
 146 216 l 2,15,16
 146 268 146 268 174 298 c 128,-1,17
 202 328 202 328 255 338 c 1,18,-1
 255 343 l 1,19,20
 202 354 202 354 174 384.5 c 128,-1,21
 146 415 146 415 146 466 c 2,22,-1
 146 701 l 2,23,24
 146 733 146 733 135.5 749 c 128,-1,25
 125 765 125 765 104.5 771.5 c 128,-1,26
 84 778 84 778 55 778 c 1,27,-1
 55 852 l 1,28,29
 105 851 105 851 144.5 836 c 128,-1,30
 184 821 184 821 207 790 c 128,-1,31
 230 759 230 759 230 708 c 2,32,-1
 230 471 l 2,33,34
 230 438 230 438 244.5 417.5 c 128,-1,35
 259 397 259 397 286.5 388 c 128,-1,36
 314 379 314 379 355 379 c 1,37,-1
 355 303 l 1,0,1
EndSplineSet
Validated: 1
EndChar

StartChar: asciitilde
Encoding: 126 126 39
Width: 564
GlyphClass: 1
Flags: W
LayerCount: 2
Fore
SplineSet
51 343 m 1,0,1
 77 371 77 371 107.5 384 c 128,-1,2
 138 397 138 397 175 397 c 0,3,4
 194 397 194 397 210.5 394.5 c 128,-1,5
 227 392 227 392 247.5 385.5 c 128,-1,6
 268 379 268 379 299 366 c 0,7,8
 337 350 337 350 357.5 344 c 128,-1,9
 378 338 378 338 399 338 c 0,10,11
 428 338 428 338 458.5 355.5 c 128,-1,12
 489 373 489 373 513 398 c 1,13,-1
 513 317 l 1,14,15
 488 290 488 290 457 276.5 c 128,-1,16
 426 263 426 263 389 263 c 0,17,18
 370 263 370 263 353.5 265.5 c 128,-1,19
 337 268 337 268 317 275 c 128,-1,20
 297 282 297 282 265 295 c 0,21,22
 228 311 228 311 208 317 c 128,-1,23
 188 323 188 323 165 323 c 0,24,25
 137 323 137 323 106.5 305.5 c 128,-1,26
 76 288 76 288 51 262 c 1,27,-1
 51 343 l 1,0,1
EndSplineSet
Validated: 1
EndChar

StartChar: A
Encoding: 65 65 40
Width: 574
VWidth: 1000
GlyphClass: 2
Flags: W
LayerCount: 2
Fore
SplineSet
108 77 m 0,0,1
 96 93 96 93 87 108.5 c 128,-1,2
 78 124 78 124 76 139 c 0,3,4
 73 153 73 153 67 152 c 0,5,6
 59 152 59 152 62 134 c 0,7,8
 63 125 63 125 67.5 112 c 128,-1,9
 72 99 72 99 78 88 c 128,-1,10
 84 77 84 77 92 69.5 c 128,-1,11
 100 62 100 62 109 63 c 0,12,13
 117 65 117 65 108 77 c 0,0,1
219.5 -1 m 0,14,15
 158 -1 158 -1 111.5 30.5 c 0,16,17
 64 62 64 62 38 123.5 c 128,-1,18
 12 185 12 185 11.5 274 c 0,19,20
 12 368 12 368 44.5 433.5 c 0,21,22
 78 499 78 499 132 534 c 128,-1,23
 186 569 186 569 249.5 569 c 0,24,25
 284 569 284 569 316 555 c 128,-1,26
 348 541 348 541 375 509.5 c 128,-1,27
 402 478 402 478 416.5 426 c 1,28,-1
 419.5 426 l 1,29,-1
 442.5 509 l 1,30,-1
 532.5 509 l 1,31,32
 522 456 522 456 510 420 c 128,-1,33
 498 384 498 384 488 326.5 c 128,-1,34
 478 269 478 269 471 218.5 c 0,35,36
 465 178 465 178 464.5 131 c 0,37,38
 464 104 464 104 480 89.5 c 128,-1,39
 496 75 496 75 518.5 75 c 0,40,41
 528 75 528 75 537.5 77 c 0,42,43
 548 79 548 79 555.5 83 c 1,44,-1
 568.5 13 l 1,45,46
 558 8 558 8 540.5 3.5 c 0,47,48
 524 -1 524 -1 499.5 -1 c 0,49,50
 452 -1 452 -1 422 25.5 c 128,-1,51
 392 52 392 52 392.5 109 c 1,52,-1
 388.5 109 l 1,53,54
 326 -1 326 -1 219.5 -1 c 0,14,15
238.5 76 m 0,55,56
 274.5 76 274.5 76 307 98.5 c 128,-1,57
 339.5 121 339.5 121 361.5 159.5 c 128,-1,58
 383.5 198 383.5 198 386.5 244 c 2,59,-1
 395.5 347 l 1,60,61
 383.5 391 383.5 391 368 419.5 c 128,-1,62
 352.5 448 352.5 448 334.5 464 c 128,-1,63
 316.5 480 316.5 480 297 486 c 128,-1,64
 277.5 492 277.5 492 258.5 492 c 0,65,66
 219.5 492 219.5 492 184.5 467.5 c 128,-1,67
 149.5 443 149.5 443 127.5 395 c 128,-1,68
 105.5 347 105.5 347 105.5 275 c 0,69,70
 105.5 180 105.5 180 141 128 c 128,-1,71
 176.5 76 176.5 76 238.5 76 c 0,55,56
EndSplineSet
EndChar

StartChar: B
Encoding: 66 66 41
Width: 703
VWidth: 1000
GlyphClass: 2
Flags: W
LayerCount: 2
Fore
SplineSet
177 632 m 0,0,1
 235 632 235 632 269 610 c 128,-1,2
 303 588 303 588 317.5 549.5 c 128,-1,3
 332 511 332 511 332 463 c 2,4,-1
 332 321 l 1,5,-1
 533 321 l 1,6,-1
 533 551 l 1,7,-1
 402 551 l 1,8,-1
 402 622 l 1,9,-1
 647 622 l 1,10,-1
 647 551 l 1,11,-1
 614 551 l 1,12,-1
 614 0 l 1,13,-1
 533 0 l 1,14,-1
 533 250 l 1,15,-1
 332 250 l 1,16,-1
 332 213 l 2,17,18
 332 180 332 180 317.5 165.5 c 128,-1,19
 303 151 303 151 283 151 c 0,20,21
 264 151 264 151 243 163.5 c 128,-1,22
 222 176 222 176 204 195.5 c 128,-1,23
 186 215 186 215 175 237 c 128,-1,24
 164 259 164 259 164 278 c 0,25,26
 164 290 164 290 170 300 c 128,-1,27
 176 310 176 310 189 315.5 c 128,-1,28
 202 321 202 321 224 321 c 2,29,-1
 253 321 l 1,30,-1
 253 453 l 2,31,32
 253 509 253 509 236.5 538 c 128,-1,33
 220 567 220 567 180 567 c 0,34,35
 152 567 152 567 137 552.5 c 128,-1,36
 122 538 122 538 122 515 c 0,37,38
 122 487 122 487 143.5 471.5 c 128,-1,39
 165 456 165 456 209 451 c 1,40,-1
 201 386 l 1,41,42
 134 391 134 391 90 424.5 c 128,-1,43
 46 458 46 458 46 517 c 0,44,45
 46 574 46 574 83 603 c 128,-1,46
 120 632 120 632 177 632 c 0,0,1
EndSplineSet
EndChar

StartChar: C
Encoding: 67 67 42
Width: 550
VWidth: 1000
GlyphClass: 2
Flags: W
LayerCount: 2
Fore
SplineSet
278 584 m 0,0,1
 238 584 238 584 209.5 612 c 0,2,3
 181 640 181 640 181 684 c 0,4,5
 181 708 181 708 189.5 729.5 c 0,6,7
 198 751 198 751 213 766.5 c 0,8,9
 228 782 228 782 249 791.5 c 0,10,11
 270 801 270 801 295 801 c 0,12,13
 315 801 315 801 332 792.5 c 0,14,15
 349 784 349 784 361 769 c 0,16,17
 373 754 373 754 379.5 735 c 0,18,19
 386 716 386 716 386 695 c 0,20,21
 386 668 386 668 377.5 647.5 c 0,22,23
 369 627 369 627 354 613 c 0,24,25
 339 599 339 599 319.5 591.5 c 0,26,27
 300 584 300 584 278 584 c 0,0,1
241 757 m 0,28,29
 248 764 248 764 249.5 769 c 0,30,31
 251 774 251 774 249 774 c 0,32,33
 241 774 241 774 232 766.5 c 0,34,35
 223 759 223 759 215.5 748.5 c 0,36,37
 208 738 208 738 203 726 c 0,38,39
 198 714 198 714 198 704 c 0,40,41
 198 702 198 702 199.5 696 c 0,42,43
 201 690 201 690 204 690 c 0,44,45
 208 690 208 690 214 712 c 0,46,47
 217 726 217 726 225 737.5 c 0,48,49
 233 749 233 749 241 757 c 0,28,29
282 641 m 0,50,51
 294 641 294 641 310.5 655 c 0,52,53
 327 669 327 669 327 695 c 0,54,55
 327 715 327 715 316.5 728.5 c 0,56,57
 306 742 306 742 289 742 c 256,58,59
 272 742 272 742 258 728.5 c 0,60,61
 244 715 244 715 244 691 c 256,62,63
 244 667 244 667 255 654 c 0,64,65
 266 641 266 641 282 641 c 0,50,51
EndSplineSet
Refer: 70 99 N 1 0 0 1 0 -15.36 2
EndChar

StartChar: D
Encoding: 68 68 43
Width: 531
VWidth: 1000
GlyphClass: 2
Flags: W
LayerCount: 2
Fore
SplineSet
414 -64 m 1,0,1
 392 -22 392 -22 376 20.5 c 128,-1,2
 360 63 360 63 350 97 c 2,3,-1
 337 133 l 2,4,5
 329 155 329 155 327 165 c 0,6,7
 324 180 324 180 324 195 c 0,8,9
 324 224 324 224 342 241 c 128,-1,10
 360 258 360 258 392 258 c 0,11,12
 429 258 429 258 453 234 c 128,-1,13
 477 210 477 210 477 179 c 0,14,15
 477 152 477 152 460.5 131 c 128,-1,16
 444 110 444 110 412 96 c 1,17,-1
 395 92 l 2,18,19
 371 84 371 84 349 79.5 c 128,-1,20
 327 75 327 75 293 75 c 0,21,22
 249 75 249 75 206 86 c 128,-1,23
 163 97 163 97 128.5 121 c 128,-1,24
 94 145 94 145 73.5 183 c 128,-1,25
 53 221 53 221 53 275 c 0,26,27
 53 366 53 366 115.5 410.5 c 128,-1,28
 178 455 178 455 299 455 c 2,29,-1
 370 455 l 1,30,-1
 354 420 l 1,31,-1
 354 551 l 1,32,-1
 68 551 l 1,33,-1
 68 622 l 1,34,-1
 486 622 l 1,35,-1
 486 551 l 1,36,-1
 435 551 l 1,37,-1
 435 385 l 1,38,-1
 311 385 l 2,39,40
 223 385 223 385 178.5 357.5 c 128,-1,41
 134 330 134 330 134 271 c 256,42,43
 134 212 134 212 177 180 c 128,-1,44
 220 148 220 148 292 148 c 0,45,46
 309 148 309 148 329.5 151 c 128,-1,47
 350 154 350 154 372 164 c 1,48,-1
 417 112 l 1,49,50
 431 78 431 78 448 45 c 128,-1,51
 465 12 465 12 490 -30 c 1,52,-1
 414 -64 l 1,0,1
EndSplineSet
EndChar

StartChar: E
Encoding: 69 69 44
Width: 362
VWidth: 1000
GlyphClass: 2
Flags: W
LayerCount: 2
Fore
SplineSet
195 -4 m 0,0,1
 157 -4 157 -4 125.5 1.5 c 128,-1,2
 94 7 94 7 71 21 c 128,-1,3
 48 35 48 35 35.5 58.5 c 128,-1,4
 23 82 23 82 23 118 c 2,5,-1
 23 527 l 2,6,7
 23 553 23 553 30.5 570.5 c 128,-1,8
 38 588 38 588 49.5 598 c 128,-1,9
 61 608 61 608 74.5 612 c 128,-1,10
 88 616 88 616 101 616 c 2,11,-1
 296 616 l 2,12,13
 314 616 314 616 323 602 c 128,-1,14
 332 588 332 588 332 571 c 256,15,16
 332 554 332 554 324 537.5 c 128,-1,17
 316 521 316 521 300 520 c 2,18,-1
 159 516 l 2,19,20
 149 516 149 516 143 509 c 128,-1,21
 137 502 137 502 137 492 c 2,22,-1
 137 400 l 2,23,24
 137 370 137 370 159 370 c 2,25,-1
 278 371 l 2,26,27
 298 371 298 371 304.5 355 c 128,-1,28
 311 339 311 339 311 319 c 0,29,30
 311 306 311 306 305 293 c 128,-1,31
 299 280 299 280 279 279 c 2,32,-1
 164 275 l 2,33,34
 148 274 148 274 142.5 267 c 128,-1,35
 137 260 137 260 137 244 c 2,36,-1
 137 178 l 2,37,38
 137 157 137 157 138 140.5 c 128,-1,39
 139 124 139 124 145 112.5 c 128,-1,40
 151 101 151 101 164.5 95 c 128,-1,41
 178 89 178 89 203 89 c 0,42,43
 220 89 220 89 236.5 93.5 c 128,-1,44
 253 98 253 98 268.5 104 c 128,-1,45
 284 110 284 110 297 114.5 c 128,-1,46
 310 119 310 119 320 119 c 0,47,48
 327 119 327 119 332 113.5 c 128,-1,49
 337 108 337 108 340 99.5 c 128,-1,50
 343 91 343 91 344.5 82 c 128,-1,51
 346 73 346 73 346 65 c 0,52,53
 346 45 346 45 328 31.5 c 128,-1,54
 310 18 310 18 285.5 10 c 128,-1,55
 261 2 261 2 235.5 -1 c 128,-1,56
 210 -4 210 -4 195 -4 c 0,0,1
87 60 m 0,57,58
 75 76 75 76 66 91.5 c 128,-1,59
 57 107 57 107 55 122 c 0,60,61
 52 136 52 136 46 135 c 0,62,63
 38 135 38 135 41 117 c 0,64,65
 42 108 42 108 46.5 95 c 128,-1,66
 51 82 51 82 57 71 c 128,-1,67
 63 60 63 60 71 52.5 c 128,-1,68
 79 45 79 45 88 46 c 0,69,70
 96 48 96 48 87 60 c 0,57,58
EndSplineSet
EndChar

StartChar: F
Encoding: 70 70 45
Width: 337
VWidth: 1000
GlyphClass: 2
Flags: W
LayerCount: 2
Fore
SplineSet
85 0 m 0,0,1
 58 0 58 0 40.5 9.5 c 128,-1,2
 23 19 23 19 23 49 c 2,3,-1
 23 543 l 2,4,5
 23 582 23 582 51.5 599.5 c 128,-1,6
 80 617 80 617 125 617 c 2,7,-1
 295 616 l 2,8,9
 306 616 306 616 315 604.5 c 128,-1,10
 324 593 324 593 324 579 c 0,11,12
 324 572 324 572 322.5 561.5 c 128,-1,13
 321 551 321 551 318 541.5 c 128,-1,14
 315 532 315 532 310.5 525.5 c 128,-1,15
 306 519 306 519 300 519 c 2,16,-1
 163 520 l 2,17,18
 137 520 137 520 137 494 c 2,19,-1
 137 345 l 2,20,21
 137 335 137 335 143.5 330.5 c 128,-1,22
 150 326 150 326 160 326 c 2,23,-1
 266 329 l 2,24,25
 274 329 274 329 280 324 c 128,-1,26
 286 319 286 319 291 310.5 c 128,-1,27
 296 302 296 302 298.5 293 c 128,-1,28
 301 284 301 284 301 276 c 0,29,30
 301 237 301 237 263 236 c 2,31,-1
 157 233 l 2,32,33
 149 233 149 233 143 227 c 128,-1,34
 137 221 137 221 137 213 c 2,35,-1
 137 48 l 2,36,37
 137 32 137 32 132.5 22.5 c 128,-1,38
 128 13 128 13 120.5 8 c 128,-1,39
 113 3 113 3 103.5 1.5 c 128,-1,40
 94 0 94 0 85 0 c 0,0,1
73 26 m 0,41,42
 72 31 72 31 63.5 42 c 128,-1,43
 55 53 55 53 53 78 c 0,44,45
 51 91 51 91 47.5 94 c 128,-1,46
 44 97 44 97 42 97 c 256,47,48
 40 97 40 97 38.5 91 c 128,-1,49
 37 85 37 85 39 75 c 0,50,51
 39 70 39 70 41 60.5 c 128,-1,52
 43 51 43 51 46.5 41.5 c 128,-1,53
 50 32 50 32 55 25 c 128,-1,54
 60 18 60 18 67 19 c 0,55,56
 73 19 73 19 73 26 c 0,41,42
EndSplineSet
EndChar

StartChar: G
Encoding: 71 71 46
Width: 469
VWidth: 1000
GlyphClass: 2
Flags: W
LayerCount: 2
Fore
SplineSet
252 621 m 0,0,1
 212 621 212 621 183.5 649 c 128,-1,2
 155 677 155 677 155 721 c 0,3,4
 155 745 155 745 163.5 766.5 c 128,-1,5
 172 788 172 788 187 803.5 c 128,-1,6
 202 819 202 819 223 828.5 c 128,-1,7
 244 838 244 838 269 838 c 0,8,9
 289 838 289 838 306 829.5 c 128,-1,10
 323 821 323 821 335 806 c 128,-1,11
 347 791 347 791 353.5 772 c 128,-1,12
 360 753 360 753 360 732 c 0,13,14
 360 705 360 705 351.5 684.5 c 128,-1,15
 343 664 343 664 328 650 c 128,-1,16
 313 636 313 636 293.5 628.5 c 128,-1,17
 274 621 274 621 252 621 c 0,0,1
215 794 m 0,18,19
 222 801 222 801 223.5 806 c 128,-1,20
 225 811 225 811 223 811 c 0,21,22
 215 811 215 811 206 803.5 c 128,-1,23
 197 796 197 796 189.5 785.5 c 128,-1,24
 182 775 182 775 177 763 c 128,-1,25
 172 751 172 751 172 741 c 0,26,27
 172 739 172 739 173.5 733 c 128,-1,28
 175 727 175 727 178 727 c 0,29,30
 182 727 182 727 188 749 c 0,31,32
 191 763 191 763 199 774.5 c 128,-1,33
 207 786 207 786 215 794 c 0,18,19
256 678 m 0,34,35
 268 678 268 678 284.5 692 c 128,-1,36
 301 706 301 706 301 732 c 0,37,38
 301 752 301 752 290.5 765.5 c 128,-1,39
 280 779 280 779 263 779 c 256,40,41
 246 779 246 779 232 765.5 c 128,-1,42
 218 752 218 752 218 728 c 256,43,44
 218 704 218 704 229 691 c 128,-1,45
 240 678 240 678 256 678 c 0,34,35
221 -37 m 0,46,47
 158 -37 158 -37 117.5 -4 c 128,-1,48
 77 29 77 29 54 79 c 128,-1,49
 31 129 31 129 22.5 187 c 128,-1,50
 14 245 14 245 14 296 c 0,51,52
 14 352 14 352 27.5 405.5 c 128,-1,53
 41 459 41 459 69.5 500.5 c 128,-1,54
 98 542 98 542 143.5 567.5 c 128,-1,55
 189 593 189 593 253 593 c 0,56,57
 280 593 280 593 309.5 587 c 128,-1,58
 339 581 339 581 363.5 564.5 c 128,-1,59
 388 548 388 548 404.5 520 c 128,-1,60
 421 492 421 492 421 448 c 0,61,62
 421 432 421 432 414.5 422.5 c 128,-1,63
 408 413 408 413 398.5 407.5 c 128,-1,64
 389 402 389 402 379 400.5 c 128,-1,65
 369 399 369 399 363 399 c 0,66,67
 349 399 349 399 336.5 409 c 128,-1,68
 324 419 324 419 324 448 c 0,69,70
 324 471 324 471 316 483 c 128,-1,71
 308 495 308 495 297 500.5 c 128,-1,72
 286 506 286 506 275.5 507 c 128,-1,73
 265 508 265 508 259 508 c 0,74,75
 233 508 233 508 210 492.5 c 128,-1,76
 187 477 187 477 169.5 448 c 128,-1,77
 152 419 152 419 142 377 c 128,-1,78
 132 335 132 335 132 282 c 0,79,80
 132 253 132 253 135.5 213 c 128,-1,81
 139 173 139 173 151 137 c 128,-1,82
 163 101 163 101 185 75.5 c 128,-1,83
 207 50 207 50 243 50 c 0,84,85
 266 50 266 50 283 65 c 128,-1,86
 300 80 300 80 311.5 102 c 128,-1,87
 323 124 323 124 329 148.5 c 128,-1,88
 335 173 335 173 334 192 c 0,89,90
 333 208 333 208 314.5 209.5 c 128,-1,91
 296 211 296 211 273 211 c 2,92,-1
 211 211 l 2,93,94
 205 211 205 211 200 217 c 128,-1,95
 195 223 195 223 192 231.5 c 128,-1,96
 189 240 189 240 187 249 c 128,-1,97
 185 258 185 258 185 264 c 0,98,99
 185 280 185 280 195.5 292.5 c 128,-1,100
 206 305 206 305 229 305 c 2,101,-1
 354 304 l 2,102,103
 367 304 367 304 380.5 298.5 c 128,-1,104
 394 293 394 293 404.5 282.5 c 128,-1,105
 415 272 415 272 422 255.5 c 128,-1,106
 429 239 429 239 429 216 c 0,107,108
 429 181 429 181 429.5 151 c 128,-1,109
 430 121 430 121 430 77 c 0,110,111
 430 43 430 43 427.5 22 c 128,-1,112
 425 1 425 1 419 -11 c 128,-1,113
 413 -23 413 -23 404.5 -27.5 c 128,-1,114
 396 -32 396 -32 384 -32 c 0,115,116
 367 -32 367 -32 359 -19.5 c 128,-1,117
 351 -7 351 -7 347.5 8 c 128,-1,118
 344 23 344 23 343 35.5 c 128,-1,119
 342 48 342 48 339 48 c 256,120,121
 336 48 336 48 330 34.5 c 128,-1,122
 324 21 324 21 311 5.5 c 128,-1,123
 298 -10 298 -10 277 -23.5 c 128,-1,124
 256 -37 256 -37 221 -37 c 0,46,47
126 44 m 0,125,126
 126 49 126 49 110 72 c 0,127,128
 103 83 103 83 96 97.5 c 128,-1,129
 89 112 89 112 84 126 c 128,-1,130
 79 140 79 140 76 152 c 128,-1,131
 73 164 73 164 74 168 c 0,132,133
 75 173 75 173 72 175.5 c 128,-1,134
 69 178 69 178 68 178 c 0,135,136
 60 178 60 178 58 167 c 256,137,138
 56 156 56 156 61.5 135 c 128,-1,139
 67 114 67 114 76.5 93 c 128,-1,140
 86 72 86 72 97.5 56 c 128,-1,141
 109 40 109 40 118 39 c 0,142,143
 125 37 125 37 126 44 c 0,125,126
389 -7 m 0,144,145
 389 1 389 1 381 6.5 c 128,-1,146
 373 12 373 12 372 24 c 0,147,148
 372 27 372 27 371.5 35 c 128,-1,149
 371 43 371 43 366 43 c 256,150,151
 361 43 361 43 360 36.5 c 128,-1,152
 359 30 359 30 359 25 c 256,153,154
 359 20 359 20 360.5 12.5 c 128,-1,155
 362 5 362 5 365 -1.5 c 128,-1,156
 368 -8 368 -8 372 -13 c 128,-1,157
 376 -18 376 -18 381 -18 c 256,158,159
 386 -18 386 -18 387.5 -14 c 128,-1,160
 389 -10 389 -10 389 -7 c 0,144,145
146 27 m 0,161,162
 147 30 147 30 144.5 32.5 c 128,-1,163
 142 35 142 35 140 35 c 0,164,165
 136 36 136 36 134.5 33 c 128,-1,166
 133 30 133 30 132 28 c 0,167,168
 131 23 131 23 133.5 21.5 c 128,-1,169
 136 20 136 20 138 20 c 0,170,171
 144 20 144 20 146 27 c 0,161,162
EndSplineSet
EndChar

StartChar: H
Encoding: 72 72 47
Width: 531
VWidth: 1000
GlyphClass: 2
Flags: W
LayerCount: 2
Fore
SplineSet
147 229 m 1,0,1
 112 256 112 256 90.5 286.5 c 128,-1,2
 69 317 69 317 69 354 c 0,3,4
 69 408 69 408 107 436.5 c 128,-1,5
 145 465 145 465 223 465 c 2,6,-1
 361 465 l 1,7,-1
 361 551 l 1,8,-1
 68 551 l 1,9,-1
 68 622 l 1,10,-1
 508 622 l 1,11,-1
 508 551 l 1,12,-1
 442 551 l 1,13,-1
 442 394 l 1,14,-1
 234 394 l 2,15,16
 190 394 190 394 169.5 381 c 128,-1,17
 149 368 149 368 149 341 c 0,18,19
 149 322 149 322 161.5 304.5 c 128,-1,20
 174 287 174 287 193 274 c 1,21,-1
 147 229 l 1,0,1
333 64 m 1,22,23
 368 79 368 79 386.5 100.5 c 128,-1,24
 405 122 405 122 405 146 c 0,25,26
 405 179 405 179 378.5 200.5 c 128,-1,27
 352 222 352 222 291 222 c 0,28,29
 222 222 222 222 185.5 193 c 128,-1,30
 149 164 149 164 149 114 c 0,31,32
 149 74 149 74 176.5 42.5 c 128,-1,33
 204 11 204 11 256.5 -16.5 c 128,-1,34
 309 -44 309 -44 383 -74 c 1,35,-1
 343 -142 l 1,36,37
 265 -110 265 -110 203 -74.5 c 128,-1,38
 141 -39 141 -39 105 7.5 c 128,-1,39
 69 54 69 54 69 117 c 0,40,41
 69 177 69 177 99 216 c 128,-1,42
 129 255 129 255 179.5 274 c 128,-1,43
 230 293 230 293 293 293 c 0,44,45
 361 293 361 293 403 272.5 c 128,-1,46
 445 252 445 252 464.5 218.5 c 128,-1,47
 484 185 484 185 484 145 c 0,48,49
 484 103 484 103 463.5 68.5 c 128,-1,50
 443 34 443 34 390 6 c 1,51,-1
 333 64 l 1,22,23
EndSplineSet
EndChar

StartChar: I
Encoding: 73 73 48
Width: 273
VWidth: 1000
GlyphClass: 2
Flags: W
LayerCount: 2
Fore
SplineSet
2 484 m 1,0,-1
 112 792 l 1,1,-1
 162 792 l 1,2,-1
 268 484 l 1,3,-1
 190 484 l 1,4,-1
 138 699 l 1,5,-1
 80 484 l 1,6,-1
 2 484 l 1,0,-1
130 -4 m 256,7,8
 106 -4 106 -4 93 6.5 c 128,-1,9
 80 17 80 17 80 32 c 2,10,-1
 80 387 l 2,11,12
 80 396 80 396 82.5 408 c 128,-1,13
 85 420 85 420 90.5 430 c 128,-1,14
 96 440 96 440 105.5 447 c 128,-1,15
 115 454 115 454 130 454 c 256,16,17
 145 454 145 454 155.5 448 c 128,-1,18
 166 442 166 442 172.5 433 c 128,-1,19
 179 424 179 424 182.5 413 c 128,-1,20
 186 402 186 402 186 392 c 2,21,-1
 186 32 l 2,22,23
 186 16 186 16 170 6 c 128,-1,24
 154 -4 154 -4 130 -4 c 256,7,8
98 359 m 0,25,26
 101 359 101 359 102 365 c 128,-1,27
 103 371 103 371 103 379.5 c 128,-1,28
 103 388 103 388 103.5 397.5 c 128,-1,29
 104 407 104 407 106 413 c 0,30,31
 107 417 107 417 109 424 c 128,-1,32
 111 431 111 431 108 431 c 0,33,34
 103 431 103 431 99.5 425.5 c 128,-1,35
 96 420 96 420 93.5 412.5 c 128,-1,36
 91 405 91 405 90 396.5 c 128,-1,37
 89 388 89 388 89 383 c 0,38,39
 89 376 89 376 91 367.5 c 128,-1,40
 93 359 93 359 98 359 c 0,25,26
EndSplineSet
EndChar

StartChar: J
Encoding: 74 74 49
Width: 399
VWidth: 1000
GlyphClass: 2
Flags: W
LayerCount: 2
Fore
SplineSet
200 -8 m 0,0,1
 155 -8 155 -8 123 4.5 c 128,-1,2
 91 17 91 17 71 38.5 c 128,-1,3
 51 60 51 60 42 88.5 c 128,-1,4
 33 117 33 117 33 149 c 0,5,6
 33 203 33 203 46 221.5 c 128,-1,7
 59 240 59 240 75 240 c 0,8,9
 83 240 83 240 92 238 c 128,-1,10
 101 236 101 236 109 230.5 c 128,-1,11
 117 225 117 225 122 215 c 128,-1,12
 127 205 127 205 127 188 c 0,13,14
 127 172 127 172 128.5 153 c 128,-1,15
 130 134 130 134 135.5 118 c 128,-1,16
 141 102 141 102 152 91.5 c 128,-1,17
 163 81 163 81 183 81 c 0,18,19
 201 81 201 81 213 86 c 128,-1,20
 225 91 225 91 232.5 104.5 c 128,-1,21
 240 118 240 118 243 141 c 128,-1,22
 246 164 246 164 246 199 c 0,23,24
 246 237 246 237 246.5 290 c 128,-1,25
 247 343 247 343 247 412 c 2,26,-1
 247 517 l 2,27,28
 247 525 247 525 239.5 530.5 c 128,-1,29
 232 536 232 536 224 536 c 2,30,-1
 183 536 l 2,31,32
 129 536 129 536 106.5 546 c 128,-1,33
 84 556 84 556 84 579 c 0,34,35
 84 594 84 594 92 601.5 c 128,-1,36
 100 609 100 609 118 612 c 128,-1,37
 136 615 136 615 165 615.5 c 128,-1,38
 194 616 194 616 236 616 c 0,39,40
 296 616 296 616 325.5 609 c 128,-1,41
 355 602 355 602 360 584 c 0,42,43
 361 581 361 581 361 558.5 c 128,-1,44
 361 536 361 536 361 502.5 c 128,-1,45
 361 469 361 469 360.5 429.5 c 128,-1,46
 360 390 360 390 360 353 c 0,47,48
 359 289 359 289 359 247 c 128,-1,49
 359 205 359 205 358.5 177 c 128,-1,50
 358 149 358 149 355.5 129.5 c 128,-1,51
 353 110 353 110 348 90 c 0,52,53
 341 65 341 65 325 46.5 c 128,-1,54
 309 28 309 28 288 16 c 128,-1,55
 267 4 267 4 244 -2 c 128,-1,56
 221 -8 221 -8 200 -8 c 0,0,1
140 594 m 0,57,58
 142 599 142 599 138 600 c 0,59,60
 131 602 131 602 117.5 598 c 128,-1,61
 104 594 104 594 102 587 c 0,62,63
 101 584 101 584 102 580.5 c 128,-1,64
 103 577 103 577 105 576 c 0,65,66
 113 574 113 574 125.5 581 c 128,-1,67
 138 588 138 588 140 594 c 0,57,58
54 144 m 0,68,69
 59 145 59 145 60.5 157 c 128,-1,70
 62 169 62 169 63 173 c 0,71,72
 65 183 65 183 67.5 194 c 128,-1,73
 70 205 70 205 77 214 c 0,74,75
 82 219 82 219 81 223 c 0,76,77
 81 225 81 225 79 226.5 c 128,-1,78
 77 228 77 228 75 227 c 0,79,80
 66 226 66 226 60 217 c 128,-1,81
 54 208 54 208 51 197 c 128,-1,82
 48 186 48 186 47 176 c 128,-1,83
 46 166 46 166 46 163 c 0,84,85
 47 155 47 155 49 149 c 128,-1,86
 51 143 51 143 54 144 c 0,68,69
EndSplineSet
EndChar

StartChar: K
Encoding: 75 75 50
Width: 818
VWidth: 1000
GlyphClass: 2
Flags: W
LayerCount: 2
Fore
SplineSet
265 551 m 1,0,-1
 276 561 l 1,1,2
 287 542 287 542 292.5 516.5 c 128,-1,3
 298 491 298 491 298 458 c 0,4,5
 298 374 298 374 260.5 324 c 128,-1,6
 223 274 223 274 153 240 c 1,7,-1
 157 247 l 1,8,9
 192 193 192 193 238.5 155.5 c 128,-1,10
 285 118 285 118 343 98.5 c 128,-1,11
 401 79 401 79 469 79 c 0,12,13
 531 79 531 79 584 94 c 128,-1,14
 637 109 637 109 681 139 c 1,15,-1
 691 75 l 1,16,17
 650 40 650 40 595.5 23.5 c 128,-1,18
 541 7 541 7 468 7 c 0,19,20
 388 7 388 7 323 29 c 128,-1,21
 258 51 258 51 207.5 88.5 c 128,-1,22
 157 126 157 126 120 172 c 0,23,24
 82 220 82 220 62 262 c 128,-1,25
 42 304 42 304 42 340 c 0,26,27
 42 366 42 366 56.5 380 c 128,-1,28
 71 394 71 394 96 394 c 0,29,30
 122 394 122 394 144 377.5 c 128,-1,31
 166 361 166 361 192 329 c 1,32,-1
 148 331 l 1,33,34
 176 339 176 339 190.5 359 c 128,-1,35
 205 379 205 379 211 405.5 c 128,-1,36
 217 432 217 432 217 458 c 0,37,38
 217 488 217 488 212 515.5 c 128,-1,39
 207 543 207 543 194 564 c 1,40,-1
 215 551 l 1,41,-1
 68 551 l 5,42,-1
 68 622 l 5,43,-1
 496 622 l 1,44,-1
 496 551 l 1,45,-1
 265 551 l 1,0,-1
729 551 m 1,46,-1
 729 0 l 1,47,-1
 648 0 l 1,48,-1
 648 551 l 1,49,-1
 461 551 l 1,50,-1
 461 622 l 1,51,-1
 760 622 l 1,52,-1
 760 551 l 1,53,-1
 729 551 l 1,46,-1
670 208 m 1,54,55
 644 189 644 189 611.5 178 c 128,-1,56
 579 167 579 167 535 167 c 0,57,58
 480 167 480 167 440 186 c 128,-1,59
 400 205 400 205 378 240 c 128,-1,60
 356 275 356 275 356 322 c 0,61,62
 356 393 356 393 403 433 c 128,-1,63
 450 473 450 473 534 473 c 0,64,65
 557 473 557 473 577.5 470.5 c 128,-1,66
 598 468 598 468 616 463 c 1,67,-1
 610 395 l 1,68,69
 593 400 593 400 575.5 402 c 128,-1,70
 558 404 558 404 540 404 c 0,71,72
 491 404 491 404 464 382.5 c 128,-1,73
 437 361 437 361 437 318 c 256,74,75
 437 275 437 275 465 255 c 128,-1,76
 493 235 493 235 534 235 c 0,77,78
 580 235 580 235 615.5 256 c 128,-1,79
 651 277 651 277 670 306 c 1,80,-1
 670 208 l 1,54,55
EndSplineSet
EndChar

StartChar: L
Encoding: 76 76 51
Width: 760
VWidth: 1000
GlyphClass: 2
Flags: W
LayerCount: 2
Fore
SplineSet
70 551 m 1,0,-1
 70 622 l 1,1,-1
 694 622 l 1,2,-1
 694 551 l 1,3,-1
 594 551 l 1,4,-1
 594 385 l 1,5,-1
 513 385 l 1,6,-1
 513 551 l 1,7,-1
 70 551 l 1,0,-1
386 258 m 1,8,9
 344 307 344 307 309 330.5 c 128,-1,10
 274 354 274 354 232 354 c 256,11,12
 190 354 190 354 158.5 325.5 c 128,-1,13
 127 297 127 297 127 232 c 0,14,15
 127 186 127 186 139.5 158.5 c 128,-1,16
 152 131 152 131 173 119 c 128,-1,17
 194 107 194 107 218 107 c 0,18,19
 244 107 244 107 264.5 118 c 128,-1,20
 285 129 285 129 302 152.5 c 128,-1,21
 319 176 319 176 332 212 c 2,22,-1
 354 275 l 2,23,24
 375 335 375 335 403 367.5 c 128,-1,25
 431 400 431 400 466.5 412.5 c 128,-1,26
 502 425 502 425 545 425 c 0,27,28
 594 425 594 425 632 402.5 c 128,-1,29
 670 380 670 380 692 337 c 128,-1,30
 714 294 714 294 714 232 c 0,31,32
 714 175 714 175 692.5 130.5 c 128,-1,33
 671 86 671 86 631.5 61 c 128,-1,34
 592 36 592 36 538 36 c 0,35,36
 475 36 475 36 430 63 c 128,-1,37
 385 90 385 90 340 139 c 1,38,-1
 374 202 l 1,39,40
 415 156 415 156 451.5 131.5 c 128,-1,41
 488 107 488 107 528 107 c 0,42,43
 570 107 570 107 601.5 136 c 128,-1,44
 633 165 633 165 633 234 c 0,45,46
 633 300 633 300 605.5 327 c 128,-1,47
 578 354 578 354 541 354 c 0,48,49
 516 354 516 354 494.5 343.5 c 128,-1,50
 473 333 473 333 456 309.5 c 128,-1,51
 439 286 439 286 425 248 c 2,52,-1
 403 186 l 2,53,54
 383 129 383 129 356.5 96 c 128,-1,55
 330 63 330 63 295.5 49.5 c 128,-1,56
 261 36 261 36 216 36 c 0,57,58
 169 36 169 36 130.5 58 c 128,-1,59
 92 80 92 80 69 124 c 128,-1,60
 46 168 46 168 46 234 c 0,61,62
 46 291 46 291 68.5 334 c 128,-1,63
 91 377 91 377 131.5 401 c 128,-1,64
 172 425 172 425 224 425 c 0,65,66
 267 425 267 425 299.5 413 c 128,-1,67
 332 401 332 401 361 378 c 128,-1,68
 390 355 390 355 420 321 c 1,69,-1
 386 258 l 1,8,9
EndSplineSet
EndChar

StartChar: M
Encoding: 77 77 52
Width: 606
VWidth: 1000
GlyphClass: 2
Flags: W
LayerCount: 2
Fore
SplineSet
318 599 m 0,0,1
 278 599 278 599 249.5 627 c 128,-1,2
 221 655 221 655 221 699 c 0,3,4
 221 723 221 723 229.5 744.5 c 128,-1,5
 238 766 238 766 253 781.5 c 128,-1,6
 268 797 268 797 289 806.5 c 128,-1,7
 310 816 310 816 335 816 c 0,8,9
 355 816 355 816 372 807.5 c 128,-1,10
 389 799 389 799 401 784 c 128,-1,11
 413 769 413 769 419.5 750 c 128,-1,12
 426 731 426 731 426 710 c 0,13,14
 426 683 426 683 417.5 662.5 c 128,-1,15
 409 642 409 642 394 628 c 128,-1,16
 379 614 379 614 359.5 606.5 c 128,-1,17
 340 599 340 599 318 599 c 0,0,1
281 772 m 0,18,19
 288 779 288 779 289.5 784 c 128,-1,20
 291 789 291 789 289 789 c 0,21,22
 281 789 281 789 272 781.5 c 128,-1,23
 263 774 263 774 255.5 763.5 c 128,-1,24
 248 753 248 753 243 741 c 128,-1,25
 238 729 238 729 238 719 c 0,26,27
 238 717 238 717 239.5 711 c 128,-1,28
 241 705 241 705 244 705 c 0,29,30
 248 705 248 705 254 727 c 0,31,32
 257 741 257 741 265 752.5 c 128,-1,33
 273 764 273 764 281 772 c 0,18,19
322 656 m 0,34,35
 334 656 334 656 350.5 670 c 128,-1,36
 367 684 367 684 367 710 c 0,37,38
 367 730 367 730 356.5 743.5 c 128,-1,39
 346 757 346 757 329 757 c 256,40,41
 312 757 312 757 298 743.5 c 128,-1,42
 284 730 284 730 284 706 c 256,43,44
 284 682 284 682 295 669 c 128,-1,45
 306 656 306 656 322 656 c 0,34,35
70 0 m 0,46,47
 55 0 55 0 46 5.5 c 128,-1,48
 37 11 37 11 32.5 20 c 128,-1,49
 28 29 28 29 26.5 40.5 c 128,-1,50
 25 52 25 52 25 65 c 2,51,-1
 25 496 l 2,52,53
 25 507 25 507 25.5 520 c 128,-1,54
 26 533 26 533 30 544 c 128,-1,55
 34 555 34 555 43 562.5 c 128,-1,56
 52 570 52 570 68 570 c 0,57,58
 88 570 88 570 98 555.5 c 128,-1,59
 108 541 108 541 112.5 523 c 128,-1,60
 117 505 117 505 118 490.5 c 128,-1,61
 119 476 119 476 121 476 c 256,62,63
 123 476 123 476 127 491.5 c 128,-1,64
 131 507 131 507 141.5 525 c 128,-1,65
 152 543 152 543 171 558.5 c 128,-1,66
 190 574 190 574 223 574 c 0,67,68
 251 574 251 574 269 559 c 128,-1,69
 287 544 287 544 298 525.5 c 128,-1,70
 309 507 309 507 315 492 c 128,-1,71
 321 477 321 477 324 477 c 256,72,73
 327 477 327 477 332.5 492 c 128,-1,74
 338 507 338 507 349 525.5 c 128,-1,75
 360 544 360 544 379.5 559 c 128,-1,76
 399 574 399 574 431 574 c 0,77,78
 472 574 472 574 498 554 c 128,-1,79
 524 534 524 534 538.5 498.5 c 128,-1,80
 553 463 553 463 558.5 414.5 c 128,-1,81
 564 366 564 366 564 310 c 2,82,-1
 564 27 l 2,83,84
 564 13 564 13 545 6.5 c 128,-1,85
 526 0 526 0 506 0 c 256,86,87
 486 0 486 0 475 5.5 c 128,-1,88
 464 11 464 11 464 26 c 2,89,-1
 464 301 l 2,90,91
 464 313 464 313 464 341.5 c 128,-1,92
 464 370 464 370 459.5 400 c 128,-1,93
 455 430 455 430 444.5 452.5 c 128,-1,94
 434 475 434 475 413 475 c 0,95,96
 395 475 395 475 383.5 461 c 128,-1,97
 372 447 372 447 365 422.5 c 128,-1,98
 358 398 358 398 354.5 363.5 c 128,-1,99
 351 329 351 329 349 287 c 0,100,101
 346 238 346 238 345 211 c 128,-1,102
 344 184 344 184 344.5 141.5 c 128,-1,103
 345 99 345 99 345.5 69.5 c 128,-1,104
 346 40 346 40 346 31 c 0,105,106
 346 17 346 17 329.5 8.5 c 128,-1,107
 313 0 313 0 289 0 c 256,108,109
 265 0 265 0 255 7 c 128,-1,110
 245 14 245 14 245 38 c 2,111,-1
 245 301 l 2,112,113
 245 312 245 312 245 341 c 128,-1,114
 245 370 245 370 241 400 c 128,-1,115
 237 430 237 430 227 453 c 128,-1,116
 217 476 217 476 197 476 c 0,117,118
 179 476 179 476 166.5 460.5 c 128,-1,119
 154 445 154 445 146 421 c 128,-1,120
 138 397 138 397 133.5 367 c 128,-1,121
 129 337 129 337 127 309 c 128,-1,122
 125 281 125 281 124.5 257 c 128,-1,123
 124 233 124 233 124 221 c 2,124,-1
 124 45 l 2,125,126
 124 26 124 26 108 13 c 128,-1,127
 92 0 92 0 70 0 c 0,46,47
49 476 m 0,128,129
 55 477 55 477 55.5 487.5 c 128,-1,130
 56 498 56 498 56 506 c 0,131,132
 56 513 56 513 58 521.5 c 128,-1,133
 60 530 60 530 61.5 537 c 128,-1,134
 63 544 63 544 63 549 c 128,-1,135
 63 554 63 554 59 554 c 0,136,137
 52 554 52 554 47.5 547.5 c 128,-1,138
 43 541 43 541 41 532 c 128,-1,139
 39 523 39 523 38 515 c 128,-1,140
 37 507 37 507 37 504 c 0,141,142
 37 496 37 496 39 485.5 c 128,-1,143
 41 475 41 475 49 476 c 0,128,129
280 23 m 0,144,145
 280 33 280 33 273.5 36.5 c 128,-1,146
 267 40 267 40 267 51 c 0,147,148
 267 53 267 53 267 58.5 c 128,-1,149
 267 64 267 64 266.5 69.5 c 128,-1,150
 266 75 266 75 264 79.5 c 128,-1,151
 262 84 262 84 259 84 c 0,152,153
 257 84 257 84 256 79.5 c 128,-1,154
 255 75 255 75 254.5 69 c 128,-1,155
 254 63 254 63 254 57.5 c 128,-1,156
 254 52 254 52 254 50 c 0,157,158
 254 38 254 38 257.5 24.5 c 128,-1,159
 261 11 261 11 271 11 c 0,160,161
 280 11 280 11 280 23 c 0,144,145
496 24 m 0,162,163
 496 34 496 34 490.5 41.5 c 128,-1,164
 485 49 485 49 485 60 c 0,165,166
 485 64 485 64 484.5 74 c 128,-1,167
 484 84 484 84 478 84 c 0,168,169
 473 84 473 84 472.5 73 c 128,-1,170
 472 62 472 62 472 59 c 256,171,172
 472 56 472 56 472.5 48 c 128,-1,173
 473 40 473 40 475 32.5 c 128,-1,174
 477 25 477 25 480 19 c 128,-1,175
 483 13 483 13 488 13 c 0,176,177
 492 13 492 13 494 17.5 c 128,-1,178
 496 22 496 22 496 24 c 0,162,163
68 24 m 0,179,180
 68 35 68 35 63.5 36 c 128,-1,181
 59 37 59 37 54 44 c 0,182,183
 53 46 53 46 52.5 51.5 c 128,-1,184
 52 57 52 57 52 62.5 c 128,-1,185
 52 68 52 68 50.5 72.5 c 128,-1,186
 49 77 49 77 46 77 c 0,187,188
 41 77 41 77 40.5 67.5 c 128,-1,189
 40 58 40 58 40 51 c 0,190,191
 40 47 40 47 41 41 c 128,-1,192
 42 35 42 35 44.5 29 c 128,-1,193
 47 23 47 23 50.5 18.5 c 128,-1,194
 54 14 54 14 59 14 c 0,195,196
 68 14 68 14 68 24 c 0,179,180
EndSplineSet
EndChar

StartChar: N
Encoding: 78 78 53
Width: 391
VWidth: 1000
GlyphClass: 2
Flags: W
LayerCount: 2
Fore
SplineSet
175 558 m 4,0,1
 135 558 135 558 106.5 586 c 132,-1,2
 78 614 78 614 78 658 c 4,3,4
 78 682 78 682 86.5 703.5 c 132,-1,5
 95 725 95 725 110 740.5 c 132,-1,6
 125 756 125 756 146 765.5 c 132,-1,7
 167 775 167 775 192 775 c 4,8,9
 212 775 212 775 229 766.5 c 132,-1,10
 246 758 246 758 258 743 c 132,-1,11
 270 728 270 728 276.5 709 c 132,-1,12
 283 690 283 690 283 669 c 4,13,14
 283 642 283 642 274.5 621.5 c 132,-1,15
 266 601 266 601 251 587 c 132,-1,16
 236 573 236 573 216.5 565.5 c 132,-1,17
 197 558 197 558 175 558 c 4,0,1
138 731 m 4,18,19
 145 738 145 738 146.5 743 c 132,-1,20
 148 748 148 748 146 748 c 4,21,22
 138 748 138 748 129 740.5 c 132,-1,23
 120 733 120 733 112.5 722.5 c 132,-1,24
 105 712 105 712 100 700 c 132,-1,25
 95 688 95 688 95 678 c 4,26,27
 95 676 95 676 96.5 670 c 132,-1,28
 98 664 98 664 101 664 c 4,29,30
 105 664 105 664 111 686 c 4,31,32
 114 700 114 700 122 711.5 c 132,-1,33
 130 723 130 723 138 731 c 4,18,19
179 615 m 4,34,35
 191 615 191 615 207.5 629 c 132,-1,36
 224 643 224 643 224 669 c 4,37,38
 224 689 224 689 213.5 702.5 c 132,-1,39
 203 716 203 716 186 716 c 260,40,41
 169 716 169 716 155 702.5 c 132,-1,42
 141 689 141 689 141 665 c 260,43,44
 141 641 141 641 152 628 c 132,-1,45
 163 615 163 615 179 615 c 4,34,35
67 0 m 0,46,47
 42 0 42 0 32 14.5 c 128,-1,48
 22 29 22 29 22 65 c 2,49,-1
 22 422 l 2,50,51
 22 466 22 466 31.5 481 c 128,-1,52
 41 496 41 496 70 496 c 0,53,54
 89 496 89 496 107 486.5 c 128,-1,55
 125 477 125 477 125 451 c 2,56,-1
 125 437 l 2,57,58
 125 397 125 397 129 397 c 256,59,60
 133 397 133 397 138 413 c 128,-1,61
 143 429 143 429 155 448.5 c 128,-1,62
 167 468 167 468 189 484 c 128,-1,63
 211 500 211 500 247 500 c 0,64,65
 311 500 311 500 340 437 c 128,-1,66
 369 374 369 374 369 236 c 2,67,-1
 369 31 l 2,68,69
 369 0 369 0 313 0 c 0,70,71
 286 0 286 0 274 11.5 c 128,-1,72
 262 23 262 23 262 34 c 2,73,-1
 262 227 l 2,74,75
 262 279 262 279 259 311 c 128,-1,76
 256 343 256 343 250 361 c 128,-1,77
 244 379 244 379 234.5 385.5 c 128,-1,78
 225 392 225 392 211 392 c 0,79,80
 190 392 190 392 174.5 372.5 c 128,-1,81
 159 353 159 353 149 320 c 128,-1,82
 139 287 139 287 134.5 242.5 c 128,-1,83
 130 198 130 198 130 147 c 2,84,-1
 130 45 l 2,85,86
 130 30 130 30 122.5 21 c 128,-1,87
 115 12 115 12 105 7.5 c 128,-1,88
 95 3 95 3 84.5 1.5 c 128,-1,89
 74 0 74 0 67 0 c 0,46,47
42 395 m 0,90,91
 45 395 45 395 47 407 c 128,-1,92
 49 419 49 419 51 434 c 128,-1,93
 53 449 53 449 54 461.5 c 128,-1,94
 55 474 55 474 55 475 c 0,95,96
 55 477 55 477 54.5 480 c 128,-1,97
 54 483 54 483 52 483 c 0,98,99
 47 483 47 483 43.5 475.5 c 128,-1,100
 40 468 40 468 38 458.5 c 128,-1,101
 36 449 36 449 35 439.5 c 128,-1,102
 34 430 34 430 34 427 c 0,103,104
 34 419 34 419 36 407 c 128,-1,105
 38 395 38 395 42 395 c 0,90,91
299 29 m 0,106,107
 299 35 299 35 297 38 c 128,-1,108
 295 41 295 41 292.5 43 c 128,-1,109
 290 45 290 45 288 49 c 128,-1,110
 286 53 286 53 286 60 c 0,111,112
 286 76 286 76 284.5 80 c 128,-1,113
 283 84 283 84 278 84 c 256,114,115
 273 84 273 84 271.5 76.5 c 128,-1,116
 270 69 270 69 270 59 c 0,117,118
 270 39 270 39 276 27 c 128,-1,119
 282 15 282 15 290 15 c 0,120,121
 293 15 293 15 296 18.5 c 128,-1,122
 299 22 299 22 299 29 c 0,106,107
66 26 m 0,123,124
 66 31 66 31 63.5 33.5 c 128,-1,125
 61 36 61 36 58 38.5 c 128,-1,126
 55 41 55 41 52.5 45 c 128,-1,127
 50 49 50 49 50 56 c 0,128,129
 50 77 50 77 43 77 c 0,130,131
 41 77 41 77 39 69.5 c 128,-1,132
 37 62 37 62 37 51 c 0,133,134
 37 36 37 36 43.5 24 c 128,-1,135
 50 12 50 12 58 12 c 0,136,137
 60 12 60 12 63 16 c 128,-1,138
 66 20 66 20 66 26 c 0,123,124
EndSplineSet
EndChar

StartChar: O
Encoding: 79 79 54
Width: 630
VWidth: 1000
GlyphClass: 2
Flags: W
LayerCount: 2
Fore
SplineSet
188 341.5 m 0,0,1
 175 346 175 346 166.5 355 c 128,-1,2
 158 364 158 364 155.5 374 c 128,-1,3
 153 384 153 384 156.5 394.5 c 0,4,5
 161 406 161 406 170 411.5 c 0,6,7
 175 414 175 414 182.5 416.5 c 0,8,9
 190 418 190 418 203.5 420 c 128,-1,10
 217 422 217 422 237 422 c 0,11,12
 297 422 297 422 328 422.5 c 0,13,14
 400 422 400 422 425 421 c 128,-1,15
 450 420 450 420 462.5 414.5 c 0,16,17
 475 410 475 410 478 400.5 c 0,18,19
 481 392 481 392 481 376.5 c 0,20,21
 481 364 481 364 475.5 357 c 128,-1,22
 470 350 470 350 456 345 c 128,-1,23
 442 340 442 340 418 338.5 c 0,24,25
 394 336 394 336 328 336.5 c 0,26,27
 250 336 250 336 221.5 338 c 128,-1,28
 193 340 193 340 188 341.5 c 0,0,1
196 402.5 m 0,29,30
 196 404 196 404 193.5 406 c 0,31,32
 192 407 192 407 187 404.5 c 128,-1,33
 182 402 182 402 179.5 392.5 c 0,34,35
 177 384 177 384 177 376.5 c 256,36,37
 177 370 177 370 179 369.5 c 0,38,39
 182 370 182 370 187 382.5 c 0,40,41
 193 396 193 396 193 396.5 c 0,42,43
 196 399 196 399 196 402.5 c 0,29,30
186 180.5 m 0,44,45
 167 184 167 184 157.5 198 c 128,-1,46
 148 212 148 212 155 226.5 c 0,47,48
 160 236 160 236 167.5 240.5 c 0,49,50
 175 246 175 246 190.5 248 c 0,51,52
 214 251 214 251 231 251 c 0,53,54
 295 251 295 251 348.5 251.5 c 128,-1,55
 402 252 402 252 427.5 250 c 128,-1,56
 453 248 453 248 467 245 c 128,-1,57
 481 242 481 242 486.5 235 c 128,-1,58
 492 228 492 228 492 217.5 c 0,59,60
 492 204 492 204 486 195.5 c 0,61,62
 480 186 480 186 464.5 181.5 c 0,63,64
 449 176 449 176 423 174 c 0,65,66
 386 171 386 171 329 171.5 c 0,67,68
 251 172 251 172 222.5 175 c 128,-1,69
 194 178 194 178 186 180.5 c 0,44,45
189 229.5 m 0,70,71
 189 232 189 232 186 232.5 c 256,72,73
 183 232 183 232 182 231.5 c 0,74,75
 180 230 180 230 177 226 c 128,-1,76
 174 222 174 222 174 214.5 c 0,77,78
 174 206 174 206 175.5 204.5 c 0,79,80
 177 204 177 204 182 208.5 c 0,81,82
 186 212 186 212 187.5 218.5 c 0,83,84
 189 224 189 224 189 229.5 c 0,70,71
312 -10 m 0,85,86
 240 -10 240 -10 186.5 17.5 c 128,-1,87
 133 45 133 45 98 88.5 c 128,-1,88
 63 132 63 132 45.5 186 c 128,-1,89
 28 240 28 240 28 294 c 0,90,91
 28 360 28 360 48 416 c 128,-1,92
 68 472 68 472 105.5 512.5 c 128,-1,93
 143 553 143 553 197 576 c 128,-1,94
 251 599 251 599 318 599 c 0,95,96
 380 599 380 599 432 576.5 c 128,-1,97
 484 554 484 554 521.5 514.5 c 128,-1,98
 559 475 559 475 580 420.5 c 128,-1,99
 601 366 601 366 601 303 c 0,100,101
 601 239 601 239 579.5 182 c 128,-1,102
 558 125 558 125 519.5 82.5 c 128,-1,103
 481 40 481 40 428 15 c 128,-1,104
 375 -10 375 -10 312 -10 c 0,85,86
314 67 m 0,105,106
 415 67 415 67 466.5 130.5 c 128,-1,107
 518 194 518 194 518 303 c 0,108,109
 518 347 518 347 504.5 387.5 c 128,-1,110
 491 428 491 428 465 459 c 128,-1,111
 439 490 439 490 402 508.5 c 128,-1,112
 365 527 365 527 318 527 c 0,113,114
 273 527 273 527 235.5 509 c 128,-1,115
 198 491 198 491 171 461 c 128,-1,116
 144 431 144 431 129 391 c 128,-1,117
 114 351 114 351 114 306 c 256,118,119
 114 261 114 261 127.5 218 c 128,-1,120
 141 175 141 175 166.5 141.5 c 128,-1,121
 192 108 192 108 229 87.5 c 128,-1,122
 266 67 266 67 314 67 c 0,105,106
EndSplineSet
EndChar

StartChar: P
Encoding: 80 80 55
Width: 416
VWidth: 1000
GlyphClass: 2
Flags: W
LayerCount: 2
Fore
SplineSet
83 -14 m 0,0,1
 63 -14 63 -14 46 1 c 128,-1,2
 29 16 29 16 29 69 c 2,3,-1
 29 526 l 2,4,5
 29 547 29 547 37.5 564 c 128,-1,6
 46 581 46 581 60.5 592.5 c 128,-1,7
 75 604 75 604 93.5 610 c 128,-1,8
 112 616 112 616 132 616 c 2,9,-1
 191 616 l 2,10,11
 222 616 222 616 257.5 604 c 128,-1,12
 293 592 293 592 323 566 c 128,-1,13
 353 540 353 540 373 498 c 128,-1,14
 393 456 393 456 393 397 c 256,15,16
 393 338 393 338 373.5 291.5 c 128,-1,17
 354 245 354 245 325 213.5 c 128,-1,18
 296 182 296 182 262 165.5 c 128,-1,19
 228 149 228 149 198 149 c 2,20,-1
 169 149 l 2,21,22
 160 149 160 149 151.5 145 c 128,-1,23
 143 141 143 141 143 132 c 2,24,-1
 143 65 l 2,25,26
 143 33 143 33 137.5 21 c 128,-1,27
 132 9 132 9 123 1 c 128,-1,28
 114 -7 114 -7 103.5 -10.5 c 128,-1,29
 93 -14 93 -14 83 -14 c 0,0,1
187 238 m 2,30,31
 204 238 204 238 220 246 c 128,-1,32
 236 254 236 254 249.5 271.5 c 128,-1,33
 263 289 263 289 271 317 c 128,-1,34
 279 345 279 345 279 385 c 0,35,36
 279 428 279 428 271 456.5 c 128,-1,37
 263 485 263 485 250 501.5 c 128,-1,38
 237 518 237 518 221 525 c 128,-1,39
 205 532 205 532 190 532 c 2,40,-1
 168 532 l 2,41,42
 143 532 143 532 143 498 c 2,43,-1
 143 261 l 2,44,45
 143 238 143 238 174 238 c 2,46,-1
 187 238 l 2,30,31
69 21 m 256,47,48
 64 26 64 26 60.5 39 c 128,-1,49
 57 52 57 52 57 78.5 c 128,-1,50
 57 105 57 105 50 105 c 0,51,52
 45 105 45 105 43.5 96.5 c 128,-1,53
 42 88 42 88 42 76 c 0,54,55
 42 38 42 38 49 22 c 128,-1,56
 56 6 56 6 66 6 c 0,57,58
 68 6 68 6 71 8 c 128,-1,59
 74 10 74 10 74 12 c 0,60,61
 74 16 74 16 69 21 c 256,47,48
EndSplineSet
EndChar

StartChar: Q
Encoding: 81 81 56
Width: 471
VWidth: 1000
GlyphClass: 2
Flags: W
LayerCount: 2
Fore
SplineSet
240 616 m 0,0,1
 199 616 199 616 166 601 c 2,2,3
 166 601 166 601 133 585 c 1,4,-1
 89 537 l 1,5,6
 57 492 57 492 41 432.5 c 128,-1,7
 25 373 25 373 25 311 c 0,8,9
 25 255 25 255 37 196.5 c 128,-1,10
 49 138 49 138 75 90.5 c 128,-1,11
 101 43 101 43 142 12.5 c 128,-1,12
 183 -18 183 -18 241 -18 c 0,13,14
 278 -18 278 -18 309 -4 c 1,15,16
 317 -22 317 -22 329.5 -40.5 c 128,-1,17
 342 -59 342 -59 365 -59 c 0,18,19
 372 -59 372 -59 380.5 -56.5 c 128,-1,20
 389 -54 389 -54 396.5 -49.5 c 128,-1,21
 404 -45 404 -45 409 -39 c 128,-1,22
 414 -33 414 -33 414 -26 c 0,23,24
 414 -18 414 -18 405 8.5 c 128,-1,25
 396 35 396 35 384 65 c 1,26,27
 414 112 414 112 428.5 177.5 c 128,-1,28
 443 243 443 243 443 316 c 0,29,30
 443 371 443 371 431 425 c 128,-1,31
 419 479 419 479 394.5 521.5 c 128,-1,32
 370 564 370 564 331.5 590 c 128,-1,33
 293 616 293 616 240 616 c 0,0,1
88 139 m 0,34,35
 91 139 91 139 95 133.5 c 128,-1,36
 99 128 99 128 103.5 119.5 c 128,-1,37
 108 111 108 111 113.5 102 c 128,-1,38
 119 93 119 93 124 86 c 0,39,40
 146 57 146 57 165.5 40 c 128,-1,41
 185 23 185 23 185 18 c 0,42,43
 185 15 185 15 180 14 c 0,44,45
 168 14 168 14 151.5 28 c 128,-1,46
 135 42 135 42 120 61.5 c 128,-1,47
 105 81 105 81 94.5 101.5 c 128,-1,48
 84 122 84 122 84 134 c 0,49,50
 84 139 84 139 88 139 c 0,34,35
145 395 m 1,51,52
 161 354 161 354 178 312 c 128,-1,53
 195 270 195 270 211.5 229.5 c 128,-1,54
 228 189 228 189 243.5 151 c 128,-1,55
 259 113 259 113 272 81 c 1,56,57
 259 74 259 74 241 74 c 0,58,59
 210 74 210 74 190 102 c 128,-1,60
 170 130 170 130 158.5 168.5 c 128,-1,61
 147 207 147 207 143 247 c 128,-1,62
 139 287 139 287 139 311 c 0,63,64
 139 327 139 327 140.5 349 c 128,-1,65
 142 371 142 371 145 395 c 1,51,52
89 161 m 256,66,67
 89 153 89 153 82 151 c 0,68,69
 79 151 79 151 74 154.5 c 128,-1,70
 69 158 69 158 69 166 c 0,71,72
 69 175 69 175 77 175 c 0,73,74
 80 175 80 175 84.5 172 c 128,-1,75
 89 169 89 169 89 161 c 256,66,67
240 536 m 0,76,77
 270 536 270 536 288.5 513.5 c 128,-1,78
 307 491 307 491 317.5 457.5 c 128,-1,79
 328 424 328 424 332 384 c 128,-1,80
 336 344 336 344 336 308 c 0,81,82
 336 282 336 282 335 254 c 128,-1,83
 334 226 334 226 330 198 c 1,84,85
 320 224 320 224 305 262.5 c 128,-1,86
 290 301 290 301 272.5 344.5 c 128,-1,87
 255 388 255 388 236.5 434.5 c 128,-1,88
 218 481 218 481 200 523 c 1,89,90
 218 536 218 536 240 536 c 0,76,77
EndSplineSet
EndChar

StartChar: R
Encoding: 82 82 57
Width: 355
VWidth: 1000
GlyphClass: 2
Flags: W
LayerCount: 2
Fore
SplineSet
56 59 m 4,0,1
 61 59 61 59 63 70 c 132,-1,2
 65 81 65 81 66 96.5 c 132,-1,3
 67 112 67 112 66.5 128.5 c 132,-1,4
 66 145 66 145 66 155 c 4,5,6
 66 159 66 159 65.5 165 c 132,-1,7
 65 171 65 171 63.5 177 c 132,-1,8
 62 183 62 183 59.5 187 c 132,-1,9
 57 191 57 191 52 191 c 4,10,11
 49 191 49 191 47.5 182.5 c 132,-1,12
 46 174 46 174 45 163 c 132,-1,13
 44 152 44 152 44 142.5 c 132,-1,14
 44 133 44 133 44 130 c 260,15,16
 44 127 44 127 44.5 115.5 c 132,-1,17
 45 104 45 104 46.5 91.5 c 132,-1,18
 48 79 48 79 50 69 c 132,-1,19
 52 59 52 59 56 59 c 4,0,1
73 30 m 4,20,21
 73 41 73 41 66 41 c 4,22,23
 56 41 56 41 56 30 c 4,24,25
 56 22 56 22 64 22 c 4,26,27
 67 22 67 22 70 24 c 132,-1,28
 73 26 73 26 73 30 c 4,20,21
276 546 m 0,29,30
 291 546 291 546 308.5 544.5 c 128,-1,31
 326 543 326 543 339 540 c 1,32,-1
 328 459 l 1,33,34
 315 462 315 462 299.5 464 c 128,-1,35
 284 466 284 466 270 466 c 0,36,37
 239 466 239 466 211 453 c 128,-1,38
 183 440 183 440 161 416.5 c 128,-1,39
 139 393 139 393 126.5 360 c 128,-1,40
 114 327 114 327 114 286 c 2,41,-1
 114 0 l 1,42,-1
 26 0 l 1,43,-1
 26 536 l 1,44,-1
 98 536 l 1,45,-1
 108 438 l 1,46,-1
 112 438 l 1,47,48
 129 468 129 468 153 492.5 c 128,-1,49
 177 517 177 517 208 531.5 c 128,-1,50
 239 546 239 546 276 546 c 0,29,30
152 581 m 0,51,52
 112 581 112 581 83.5 609 c 128,-1,53
 55 637 55 637 55 681 c 0,54,55
 55 705 55 705 63.5 726.5 c 128,-1,56
 72 748 72 748 87 763.5 c 128,-1,57
 102 779 102 779 123 788.5 c 128,-1,58
 144 798 144 798 169 798 c 0,59,60
 189 798 189 798 206 789.5 c 128,-1,61
 223 781 223 781 235 766 c 128,-1,62
 247 751 247 751 253.5 732 c 128,-1,63
 260 713 260 713 260 692 c 0,64,65
 260 665 260 665 251.5 644.5 c 128,-1,66
 243 624 243 624 228 610 c 128,-1,67
 213 596 213 596 193.5 588.5 c 128,-1,68
 174 581 174 581 152 581 c 0,51,52
115 754 m 0,69,70
 122 761 122 761 123.5 766 c 128,-1,71
 125 771 125 771 123 771 c 0,72,73
 115 771 115 771 106 763.5 c 128,-1,74
 97 756 97 756 89.5 745.5 c 128,-1,75
 82 735 82 735 77 723 c 128,-1,76
 72 711 72 711 72 701 c 0,77,78
 72 699 72 699 73.5 693 c 128,-1,79
 75 687 75 687 78 687 c 0,80,81
 82 687 82 687 88 709 c 0,82,83
 91 723 91 723 99 734.5 c 128,-1,84
 107 746 107 746 115 754 c 0,69,70
156 638 m 0,85,86
 168 638 168 638 184.5 652 c 128,-1,87
 201 666 201 666 201 692 c 0,88,89
 201 712 201 712 190.5 725.5 c 128,-1,90
 180 739 180 739 163 739 c 256,91,92
 146 739 146 739 132 725.5 c 128,-1,93
 118 712 118 712 118 688 c 256,94,95
 118 664 118 664 129 651 c 128,-1,96
 140 638 140 638 156 638 c 0,85,86
EndSplineSet
EndChar

StartChar: S
Encoding: 83 83 58
Width: 680
VWidth: 1000
GlyphClass: 2
Flags: W
LayerCount: 2
Fore
SplineSet
591 551 m 1,0,-1
 591 0 l 1,1,-1
 510 0 l 1,2,-1
 510 551 l 1,3,-1
 421 551 l 1,4,-1
 421 622 l 1,5,-1
 628 622 l 1,6,-1
 628 551 l 1,7,-1
 591 551 l 1,0,-1
129 173 m 0,8,9
 84 173 84 173 56 194 c 128,-1,10
 28 215 28 215 28 249 c 0,11,12
 28 278 28 278 46.5 293.5 c 128,-1,13
 65 309 65 309 94 309 c 0,14,15
 122 309 122 309 144 295.5 c 128,-1,16
 166 282 166 282 191 251 c 1,17,-1
 202 230 l 1,18,19
 250 187 250 187 292.5 137.5 c 128,-1,20
 335 88 335 88 372 38 c 1,21,-1
 303 -6 l 1,22,23
 251 66 251 66 210.5 117 c 128,-1,24
 170 168 170 168 137 202 c 1,25,-1
 125 251 l 1,26,27
 180 257 180 257 222.5 281.5 c 128,-1,28
 265 306 265 306 290 349 c 128,-1,29
 315 392 315 392 315 451 c 0,30,31
 315 507 315 507 290.5 536.5 c 128,-1,32
 266 566 266 566 221 566 c 0,33,34
 187 566 187 566 168 548.5 c 128,-1,35
 149 531 149 531 149 505 c 0,36,37
 149 470 149 470 178.5 453.5 c 128,-1,38
 208 437 208 437 260 433 c 1,39,-1
 248 368 l 1,40,41
 169 374 169 374 122 409 c 128,-1,42
 75 444 75 444 75 509 c 0,43,44
 75 565 75 565 112.5 598.5 c 128,-1,45
 150 632 150 632 219 632 c 0,46,47
 273 632 273 632 312 609.5 c 128,-1,48
 351 587 351 587 372.5 545.5 c 128,-1,49
 394 504 394 504 394 445 c 0,50,51
 394 378 394 378 368.5 326.5 c 128,-1,52
 343 275 343 275 298 240.5 c 128,-1,53
 253 206 253 206 194 189 c 1,54,-1
 183 182 l 1,55,56
 166 178 166 178 154.5 175.5 c 128,-1,57
 143 173 143 173 129 173 c 0,8,9
EndSplineSet
EndChar

StartChar: T
Encoding: 84 84 59
Width: 570
VWidth: 1000
GlyphClass: 2
Flags: W
LayerCount: 2
Fore
SplineSet
481 551 m 1,0,-1
 481 0 l 1,1,-1
 400 0 l 1,2,-1
 400 328 l 1,3,-1
 261 328 l 2,4,5
 198 328 198 328 162 306 c 128,-1,6
 126 284 126 284 126 231 c 0,7,8
 126 182 126 182 157 138 c 128,-1,9
 188 94 188 94 248 37 c 1,10,-1
 191 -14 l 1,11,12
 121 54 121 54 83 114 c 128,-1,13
 45 174 45 174 45 241 c 0,14,15
 45 322 45 322 100 360.5 c 128,-1,16
 155 399 155 399 247 399 c 2,17,-1
 400 399 l 1,18,-1
 400 551 l 1,19,-1
 73 551 l 1,20,-1
 73 622 l 1,21,-1
 519 622 l 1,22,-1
 519 551 l 1,23,-1
 481 551 l 1,0,-1
EndSplineSet
EndChar

StartChar: U
Encoding: 85 85 60
Width: 465
VWidth: 1000
GlyphClass: 2
Flags: W
LayerCount: 2
Fore
SplineSet
226 -4 m 0,0,1
 181 -4 181 -4 144.5 12.5 c 128,-1,2
 108 29 108 29 83 58.5 c 128,-1,3
 58 88 58 88 44.5 129.5 c 128,-1,4
 31 171 31 171 31 221 c 2,5,-1
 31 530 l 2,6,7
 31 540 31 540 33 555 c 128,-1,8
 35 570 35 570 41 583.5 c 128,-1,9
 47 597 47 597 57.5 606.5 c 128,-1,10
 68 616 68 616 84 616 c 0,11,12
 117 616 117 616 131 599 c 128,-1,13
 145 582 145 582 145 528 c 2,14,-1
 145 228 l 2,15,16
 145 204 145 204 145 179.5 c 128,-1,17
 145 155 145 155 152.5 135.5 c 128,-1,18
 160 116 160 116 177.5 103.5 c 128,-1,19
 195 91 195 91 230 91 c 0,20,21
 263 91 263 91 280 110 c 128,-1,22
 297 129 297 129 304.5 157.5 c 128,-1,23
 312 186 312 186 312.5 220 c 128,-1,24
 313 254 313 254 313 284 c 2,25,-1
 313 531 l 2,26,27
 313 541 313 541 315 556 c 128,-1,28
 317 571 317 571 322.5 584.5 c 128,-1,29
 328 598 328 598 337.5 608 c 128,-1,30
 347 618 347 618 363 618 c 0,31,32
 394 618 394 618 410 597.5 c 128,-1,33
 426 577 426 577 426 532 c 2,34,-1
 426 246 l 2,35,36
 426 189 426 189 413.5 143 c 128,-1,37
 401 97 401 97 375.5 64.5 c 128,-1,38
 350 32 350 32 313 14 c 128,-1,39
 276 -4 276 -4 226 -4 c 0,0,1
341 556 m 0,40,41
 341 560 341 560 344 568 c 128,-1,42
 347 576 347 576 354 584 c 0,43,44
 362 595 362 595 362.5 599 c 128,-1,45
 363 603 363 603 354 603 c 0,46,47
 349 603 349 603 344.5 598 c 128,-1,48
 340 593 340 593 337 588 c 0,49,50
 335 583 335 583 331.5 575 c 128,-1,51
 328 567 328 567 327 558 c 0,52,53
 327 553 327 553 328 548.5 c 128,-1,54
 329 544 329 544 334 544 c 256,55,56
 339 544 339 544 340 547.5 c 128,-1,57
 341 551 341 551 341 556 c 0,40,41
73 570 m 0,58,59
 77 579 77 579 82.5 585 c 128,-1,60
 88 591 88 591 88 598 c 0,61,62
 88 603 88 603 85 603 c 256,63,64
 82 603 82 603 76 600.5 c 128,-1,65
 70 598 70 598 65 590 c 0,66,67
 50 569 50 569 48 552 c 128,-1,68
 46 535 46 535 52 535 c 0,69,70
 57 535 57 535 62.5 545.5 c 128,-1,71
 68 556 68 556 73 570 c 0,58,59
142 48 m 0,72,73
 142 51 142 51 134.5 57 c 128,-1,74
 127 63 127 63 119 72 c 0,75,76
 111 80 111 80 100.5 93.5 c 128,-1,77
 90 107 90 107 83 122 c 0,78,79
 78 132 78 132 73.5 136 c 128,-1,80
 69 140 69 140 67 140 c 0,81,82
 63 140 63 140 63 133 c 0,83,84
 63 125 63 125 71 109.5 c 128,-1,85
 79 94 79 94 90 79 c 128,-1,86
 101 64 101 64 113.5 53 c 128,-1,87
 126 42 126 42 136 42 c 0,88,89
 142 42 142 42 142 48 c 0,72,73
165 39 m 0,90,91
 165 40 165 40 162.5 43 c 128,-1,92
 160 46 160 46 157 46 c 0,93,94
 152 45 152 45 150 42 c 128,-1,95
 148 39 148 39 148 37 c 0,96,97
 149 34 149 34 150 31.5 c 128,-1,98
 151 29 151 29 156 30 c 0,99,100
 165 30 165 30 165 39 c 0,90,91
EndSplineSet
EndChar

StartChar: V
Encoding: 86 86 61
Width: 585
VWidth: 1000
GlyphClass: 2
Flags: W
LayerCount: 2
Fore
SplineSet
328 103 m 1,0,-1
 257 103 l 1,1,-1
 257 783 l 1,2,-1
 328 783 l 1,3,-1
 328 103 l 1,0,-1
245 0 m 1,4,-1
 19 545 l 1,5,-1
 19 599 l 1,6,-1
 560 599 l 1,7,-1
 560 544 l 1,8,-1
 335 0 l 1,9,-1
 245 0 l 1,4,-1
291 98 m 1,10,-1
 464 520 l 1,11,-1
 118 520 l 1,12,-1
 291 98 l 1,10,-1
EndSplineSet
EndChar

StartChar: W
Encoding: 87 87 62
Width: 637
VWidth: 1000
GlyphClass: 2
Flags: W
LayerCount: 2
Fore
SplineSet
620.5 585.5 m 0,0,1
 620 554 620 554 599.5 544.5 c 0,2,3
 578 534 578 534 554.5 533.5 c 0,4,5
 519 533 519 533 309.5 532 c 128,-1,6
 100 531 100 531 69.5 531.5 c 0,7,8
 48 532 48 532 32 542 c 0,9,10
 17 551 17 551 16.5 575.5 c 0,11,12
 16 590 16 590 22.5 598 c 0,13,14
 28 606 28 606 37.5 611.5 c 0,15,16
 46 616 46 616 58 618.5 c 0,17,18
 70 620 70 620 80.5 620.5 c 0,19,20
 112 621 112 621 326 622 c 128,-1,21
 540 623 540 623 574.5 622.5 c 0,22,23
 592 622 592 622 606 615 c 128,-1,24
 620 608 620 608 620.5 585.5 c 0,0,1
34.5 556.5 m 0,25,26
 39 556 39 556 43 562 c 128,-1,27
 47 568 47 568 51 574 c 128,-1,28
 55 580 55 580 57 587 c 128,-1,29
 59 594 59 594 59.5 595.5 c 0,30,31
 59 600 59 600 59 603 c 128,-1,32
 59 606 59 606 53.5 606.5 c 0,33,34
 41 606 41 606 34 593 c 0,35,36
 28 583 28 583 27.5 569.5 c 0,37,38
 27 562 27 562 30 559 c 128,-1,39
 33 556 33 556 34.5 556.5 c 0,25,26
420 0 m 0,40,41
 397 0 397 0 380.5 6 c 128,-1,42
 364 12 364 12 352.5 23.5 c 128,-1,43
 341 35 341 35 333 51 c 0,44,45
 321 75 321 75 318 87 c 0,46,47
 317 91 317 91 316 97 c 128,-1,48
 315 103 315 103 313.5 109 c 128,-1,49
 312 115 312 115 310.5 119 c 128,-1,50
 309 123 309 123 307 123 c 256,51,52
 305 123 305 123 303 115.5 c 128,-1,53
 301 108 301 108 297 97 c 0,54,55
 287 71 287 71 278 52.5 c 128,-1,56
 269 34 269 34 257.5 22.5 c 128,-1,57
 246 11 246 11 232 5.5 c 128,-1,58
 218 0 218 0 198 0 c 0,59,60
 158 0 158 0 128.5 13.5 c 128,-1,61
 99 27 99 27 80 51.5 c 128,-1,62
 61 76 61 76 52 109.5 c 128,-1,63
 43 143 43 143 43 183 c 2,64,-1
 43 462 l 2,65,66
 43 472 43 472 46 485.5 c 128,-1,67
 49 499 49 499 56 511 c 128,-1,68
 63 523 63 523 74.5 531.5 c 128,-1,69
 86 540 86 540 104 540 c 0,70,71
 133 540 133 540 144 519.5 c 0,72,73
 154.8828125 499.21875 154.8828125 499.21875 155 467 c 2,74,-1
 156 193 l 2,75,76
 156 183 156 183 158 166.5 c 128,-1,77
 160 150 160 150 164.5 134 c 128,-1,78
 169 118 169 118 178 106.5 c 128,-1,79
 187 95 187 95 200 95 c 0,80,81
 223 95 223 95 236.5 129 c 128,-1,82
 250 163 250 163 257 219 c 128,-1,83
 264 275 264 275 265.5 308.5 c 128,-1,84
 267 342 267 342 267 418 c 0,85,86
 267 482 267 482 277 506.5 c 128,-1,87
 287 531 287 531 317 531 c 0,88,89
 331 531 331 531 340 526 c 128,-1,90
 349 521 349 521 355 505 c 128,-1,91
 361 489 361 489 363.5 459 c 128,-1,92
 366 429 366 429 366 379 c 0,93,94
 366 300 366 300 366 285.5 c 128,-1,95
 366 271 366 271 367.5 236.5 c 128,-1,96
 369 202 369 202 371.5 181.5 c 128,-1,97
 374 161 374 161 379 146 c 0,98,99
 388 117 388 117 398 105.5 c 128,-1,100
 408 94 408 94 421 94 c 0,101,102
 480 94 480 94 480 239 c 2,103,-1
 480 479 l 2,104,105
 480 490 480 490 482 501 c 128,-1,106
 484 512 484 512 489.5 520.5 c 128,-1,107
 495 529 495 529 505 534.5 c 128,-1,108
 515 540 515 540 530 540 c 0,109,110
 562 540 562 540 576.5 522.5 c 128,-1,111
 591 505 591 505 591 479 c 2,112,-1
 591 220 l 2,113,114
 591 178 591 178 579.5 138.5 c 128,-1,115
 568 99 568 99 546.5 68 c 128,-1,116
 525 37 525 37 493 18.5 c 128,-1,117
 461 0 461 0 420 0 c 0,40,41
68 455 m 0,118,119
 75 455 75 455 77.5 462 c 128,-1,120
 80 469 80 469 81 474 c 0,121,122
 83 488 83 488 92 497.5 c 0,123,124
 107 513 107 513 107 519 c 0,125,126
 107 521 107 521 105 524 c 128,-1,127
 103 527 103 527 100 527 c 0,128,129
 94 527 94 527 87 520.5 c 128,-1,130
 80 514 80 514 74 505 c 128,-1,131
 68 496 68 496 64.5 485.5 c 128,-1,132
 61 475 61 475 61 467 c 0,133,134
 61 463 61 463 62 459 c 128,-1,135
 63 455 63 455 68 455 c 0,118,119
513 473 m 0,136,137
 513 483 513 483 516 491 c 128,-1,138
 519 499 519 499 523 506 c 0,139,140
 528 514 528 514 527 519 c 128,-1,141
 526 524 526 524 523 524 c 0,142,143
 518 524 518 524 511.5 520.5 c 128,-1,144
 505 517 505 517 501 507 c 0,145,146
 496 491 496 491 497.5 476 c 128,-1,147
 499 461 499 461 507 461 c 0,148,149
 509 461 509 461 511 464.5 c 128,-1,150
 513 468 513 468 513 473 c 0,136,137
294 467 m 0,151,152
 294 468 294 468 296 477.5 c 128,-1,153
 298 487 298 487 301 493 c 0,154,155
 308 506 308 506 310 511 c 128,-1,156
 312 516 312 516 309 516 c 0,157,158
 307 516 307 516 301.5 514 c 128,-1,159
 296 512 296 512 291 505 c 0,160,161
 280 490 280 490 280.5 473 c 128,-1,162
 281 456 281 456 289 456 c 0,163,164
 294 456 294 456 294 467 c 0,151,152
145 37 m 0,165,166
 144 42 144 42 131 51 c 128,-1,167
 118 60 118 60 112 67 c 0,168,169
 101 78 101 78 96.5 89 c 128,-1,170
 92 100 92 100 87 99 c 0,171,172
 83 99 83 99 83.5 92 c 128,-1,173
 84 85 84 85 88.5 75 c 128,-1,174
 93 65 93 65 102 54 c 128,-1,175
 111 43 111 43 124 34 c 0,176,177
 133 27 133 27 140 29 c 0,178,179
 145 29 145 29 145 37 c 0,165,166
411 22 m 0,180,181
 411 26 411 26 407.5 27 c 128,-1,182
 404 28 404 28 401 28 c 0,183,184
 396 29 396 29 386 38 c 128,-1,185
 376 47 376 47 370 57 c 0,186,187
 360 72 360 72 352 74 c 0,188,189
 349 74 349 74 349 69 c 0,190,191
 349 67 349 67 352.5 59 c 128,-1,192
 356 51 356 51 363 42 c 128,-1,193
 370 33 370 33 379.5 25.5 c 128,-1,194
 389 18 389 18 400 17 c 0,195,196
 404 17 404 17 407 17 c 128,-1,197
 410 17 410 17 411 22 c 0,180,181
EndSplineSet
EndChar

StartChar: X
Encoding: 88 88 63
Width: 485
VWidth: 1699
GlyphClass: 2
Flags: W
LayerCount: 2
Fore
SplineSet
78 81 m 1,0,-1
 9 150 l 1,1,-1
 170 311 l 1,2,-1
 9 472 l 1,3,-1
 78 541 l 1,4,-1
 239 380 l 1,5,-1
 400 541 l 1,6,-1
 469 472 l 1,7,-1
 308 311 l 1,8,-1
 469 150 l 1,9,-1
 400 81 l 1,10,-1
 239 242 l 1,11,-1
 78 81 l 1,0,-1
EndSplineSet
EndChar

StartChar: Y
Encoding: 89 89 64
Width: 417
VWidth: 1000
GlyphClass: 2
Flags: W
LayerCount: 2
Fore
SplineSet
208 0 m 0,0,1
 182 0 182 0 168.5 16.5 c 128,-1,2
 155 33 155 33 155 52 c 2,3,-1
 155 191 l 2,4,5
 155 204 155 204 153.5 214.5 c 128,-1,6
 152 225 152 225 148.5 236 c 128,-1,7
 145 247 145 247 139 260.5 c 128,-1,8
 133 274 133 274 124 294 c 2,9,-1
 5 556 l 2,10,11
 2 563 2 563 4.5 573.5 c 128,-1,12
 7 584 7 584 14.5 593.5 c 128,-1,13
 22 603 22 603 34 609.5 c 128,-1,14
 46 616 46 616 62 616 c 0,15,16
 71 616 71 616 79.5 611.5 c 128,-1,17
 88 607 88 607 93 595 c 2,18,-1
 186 377 l 2,19,20
 191 366 191 366 197.5 354 c 128,-1,21
 204 342 204 342 210 342 c 256,22,23
 216 342 216 342 222 351.5 c 128,-1,24
 228 361 228 361 235 377 c 2,25,-1
 335 600 l 2,26,27
 340 611 340 611 350 613.5 c 128,-1,28
 360 616 360 616 367 616 c 0,29,30
 380 616 380 616 389.5 609 c 128,-1,31
 399 602 399 602 404.5 592 c 128,-1,32
 410 582 410 582 411.5 571 c 128,-1,33
 413 560 413 560 409 552 c 2,34,-1
 284 281 l 2,35,36
 277 266 277 266 273 255.5 c 128,-1,37
 269 245 269 245 267.5 234 c 128,-1,38
 266 223 266 223 265.5 209.5 c 128,-1,39
 265 196 265 196 265 174 c 2,40,-1
 265 52 l 2,41,42
 265 37 265 37 259.5 27 c 128,-1,43
 254 17 254 17 245.5 11 c 128,-1,44
 237 5 237 5 227 2.5 c 128,-1,45
 217 0 217 0 208 0 c 0,0,1
36 551 m 0,46,47
 34 559 34 559 34.5 564.5 c 128,-1,48
 35 570 35 570 34 575 c 256,49,50
 33 580 33 580 31 584 c 128,-1,51
 29 588 29 588 27 587 c 0,52,53
 16 582 16 582 17.5 568 c 128,-1,54
 19 554 19 554 22 546 c 0,55,56
 27 535 27 535 34 537 c 0,57,58
 38 539 38 539 38 543 c 128,-1,59
 38 547 38 547 36 551 c 0,46,47
192 33 m 0,60,61
 190 37 190 37 186.5 47 c 128,-1,62
 183 57 183 57 181 74 c 0,63,64
 180 97 180 97 176 97 c 0,65,66
 175 97 175 97 173 93.5 c 128,-1,67
 171 90 171 90 170 81 c 0,68,69
 168 49 168 49 175.5 35 c 128,-1,70
 183 21 183 21 192 21 c 0,71,72
 196 21 196 21 195 24.5 c 128,-1,73
 194 28 194 28 192 33 c 0,60,61
EndSplineSet
EndChar

StartChar: Z
Encoding: 90 90 65
Width: 756
VWidth: 1000
GlyphClass: 2
Flags: W
LayerCount: 2
Fore
SplineSet
667 551 m 1,0,-1
 667 0 l 1,1,-1
 586 0 l 1,2,-1
 586 551 l 1,3,-1
 489 551 l 1,4,-1
 489 622 l 1,5,-1
 697 622 l 1,6,-1
 697 551 l 1,7,-1
 667 551 l 1,0,-1
480 271 m 0,8,9
 527 271 527 271 562 278.5 c 128,-1,10
 597 286 597 286 637 303 c 1,11,-1
 637 228 l 1,12,13
 612 215 612 215 580.5 207.5 c 128,-1,14
 549 200 549 200 514 200 c 0,15,16
 483 200 483 200 453 204 c 128,-1,17
 423 208 423 208 387 219 c 1,18,-1
 339 271 l 1,19,-1
 345 286 l 1,20,21
 380 279 380 279 411.5 275 c 128,-1,22
 443 271 443 271 480 271 c 0,8,9
271 222 m 0,23,24
 242 222 242 222 212.5 215.5 c 128,-1,25
 183 209 183 209 158 199 c 1,26,27
 130 217 130 217 105 240 c 128,-1,28
 80 263 80 263 65 291.5 c 128,-1,29
 50 320 50 320 50 352 c 0,30,31
 50 408 50 408 86.5 436.5 c 128,-1,32
 123 465 123 465 199 465 c 2,33,-1
 323 465 l 1,34,-1
 323 551 l 1,35,-1
 94 551 l 1,36,-1
 94 622 l 1,37,-1
 505 622 l 1,38,-1
 505 551 l 1,39,-1
 404 551 l 1,40,-1
 404 394 l 1,41,-1
 206 394 l 2,42,43
 166 394 166 394 148 381 c 128,-1,44
 130 368 130 368 130 344 c 0,45,46
 130 324 130 324 142.5 307 c 128,-1,47
 155 290 155 290 173 276 c 1,48,49
 198 285 198 285 225 289.5 c 128,-1,50
 252 294 252 294 283 294 c 0,51,52
 337 294 337 294 373.5 276.5 c 128,-1,53
 410 259 410 259 428.5 227.5 c 128,-1,54
 447 196 447 196 447 154 c 0,55,56
 447 75 447 75 387 37.5 c 128,-1,57
 327 0 327 0 226 0 c 0,58,59
 218 0 218 0 210.5 0 c 128,-1,60
 203 0 203 0 195.5 0.5 c 128,-1,61
 188 1 188 1 181 1 c 0,62,63
 119 4 119 4 80.5 24 c 128,-1,64
 42 44 42 44 42 82 c 0,65,66
 42 105 42 105 56.5 118.5 c 128,-1,67
 71 132 71 132 96 132 c 0,68,69
 125 132 125 132 148 111 c 128,-1,70
 171 90 171 90 199 41 c 1,71,72
 233 3 233 3 271.5 -34.5 c 128,-1,73
 310 -72 310 -72 352 -109 c 1,74,-1
 282 -161 l 1,75,76
 239 -114 239 -114 201 -66 c 0,77,78
 152.692929293 -4.87676767677 152.692929293 -4.87676767677 131 31 c 2,79,-1
 105 74 l 1,80,81
 130 71 130 71 163 69.5 c 128,-1,82
 196 68 196 68 215 68 c 0,83,84
 258 68 258 68 292 75.5 c 128,-1,85
 326 83 326 83 346 101.5 c 128,-1,86
 366 120 366 120 366 154 c 0,87,88
 366 186 366 186 344 204 c 128,-1,89
 322 222 322 222 271 222 c 0,23,24
EndSplineSet
EndChar

StartChar: a
Encoding: 97 97 66
Width: 764
VWidth: 1000
GlyphClass: 2
Flags: W
LayerCount: 2
Fore
SplineSet
675 551 m 1,0,-1
 675 0 l 1,1,-1
 594 0 l 1,2,-1
 594 551 l 1,3,-1
 521 551 l 1,4,-1
 521 622 l 1,5,-1
 710 622 l 1,6,-1
 710 551 l 1,7,-1
 675 551 l 1,0,-1
299 632 m 0,8,9
 356 632 356 632 391.5 612 c 128,-1,10
 427 592 427 592 443 559.5 c 128,-1,11
 459 527 459 527 459 488 c 0,12,13
 459 418 459 418 407.5 374 c 128,-1,14
 356 330 356 330 237 320 c 1,15,-1
 221 391 l 1,16,17
 284 399 284 399 318 411.5 c 128,-1,18
 352 424 352 424 365.5 443 c 128,-1,19
 379 462 379 462 379 489 c 0,20,21
 379 522 379 522 358 541.5 c 128,-1,22
 337 561 337 561 296 561 c 0,23,24
 262 561 262 561 229.5 551 c 128,-1,25
 197 541 197 541 165 521 c 1,26,-1
 139 591 l 1,27,28
 174 611 174 611 213.5 621.5 c 128,-1,29
 253 632 253 632 299 632 c 0,8,9
475 216 m 0,30,31
 475 143 475 143 427 102.5 c 128,-1,32
 379 62 379 62 305 62 c 0,33,34
 245 62 245 62 197.5 88.5 c 128,-1,35
 150 115 150 115 109 176.5 c 128,-1,36
 68 238 68 238 29 344 c 1,37,-1
 100 373 l 1,38,39
 141 256 141 256 187 195.5 c 128,-1,40
 233 135 233 135 298 135 c 0,41,42
 342 135 342 135 369 158.5 c 128,-1,43
 396 182 396 182 396 225 c 0,44,45
 396 269 396 269 364 301.5 c 128,-1,46
 332 334 332 334 293 356 c 1,47,-1
 337 369 l 1,48,-1
 380 378 l 1,49,50
 394 367 394 367 411 351 c 128,-1,51
 428 335 428 335 438 320 c 2,52,-1
 448 301 l 2,53,54
 461 282 461 282 468 260.5 c 128,-1,55
 475 239 475 239 475 216 c 0,30,31
495 352 m 0,56,57
 530 352 530 352 569.5 359 c 128,-1,58
 609 366 609 366 651 384 c 1,59,-1
 651 309 l 1,60,61
 617 293 617 293 582 287 c 128,-1,62
 547 281 547 281 511 281 c 0,63,64
 486 281 486 281 456.5 285.5 c 128,-1,65
 427 290 427 290 399 298 c 1,66,-1
 379 352 l 1,67,-1
 385 367 l 1,68,69
 411 359 411 359 440 355.5 c 128,-1,70
 469 352 469 352 495 352 c 0,56,57
EndSplineSet
EndChar

StartChar: ampersand
Encoding: 38 38 67
Width: 548
GlyphClass: 1
Flags: W
LayerCount: 2
Fore
SplineSet
238 -6 m 0,0,1
 139 -6 139 -6 85.5 47.5 c 128,-1,2
 32 101 32 101 32 198 c 0,3,4
 32 260 32 260 51.5 298 c 128,-1,5
 71 336 71 336 94 357.5 c 128,-1,6
 117 379 117 379 136 388 c 128,-1,7
 155 397 155 397 155 402 c 0,8,9
 155 406 155 406 149.5 416.5 c 128,-1,10
 144 427 144 427 138.5 441 c 128,-1,11
 133 455 133 455 128 471.5 c 128,-1,12
 123 488 123 488 123 507 c 0,13,14
 123 565 123 565 162.5 601 c 128,-1,15
 202 637 202 637 266 637 c 0,16,17
 309 637 309 637 341 619 c 128,-1,18
 373 601 373 601 383 581 c 0,19,20
 386 576 386 576 384.5 565.5 c 128,-1,21
 383 555 383 555 378.5 545.5 c 128,-1,22
 374 536 374 536 365.5 528 c 128,-1,23
 357 520 357 520 345 520 c 256,24,25
 333 520 333 520 324.5 524.5 c 128,-1,26
 316 529 316 529 309 535 c 128,-1,27
 302 541 302 541 294.5 545.5 c 128,-1,28
 287 550 287 550 278 550 c 0,29,30
 259 550 259 550 245.5 536 c 128,-1,31
 232 522 232 522 232 493 c 0,32,33
 232 475 232 475 247 445 c 128,-1,34
 262 415 262 415 286 378 c 128,-1,35
 310 341 310 341 340 300 c 128,-1,36
 370 259 370 259 399 219 c 1,37,38
 411 244 411 244 421 271 c 0,39,40
 426 288 426 288 438.5 297 c 128,-1,41
 451 306 451 306 464 306 c 256,42,43
 477 306 477 306 487.5 296.5 c 128,-1,44
 498 287 498 287 498 266 c 0,45,46
 498 254 498 254 492.5 238 c 128,-1,47
 487 222 487 222 479.5 205.5 c 128,-1,48
 472 189 472 189 464 174 c 128,-1,49
 456 159 456 159 450 150 c 1,50,51
 481 107 481 107 500.5 73.5 c 128,-1,52
 520 40 520 40 520 24 c 0,53,54
 520 14 520 14 514.5 6.5 c 128,-1,55
 509 -1 509 -1 501 -5 c 128,-1,56
 493 -9 493 -9 482.5 -10.5 c 128,-1,57
 472 -12 472 -12 464 -12 c 0,58,59
 455 -12 455 -12 434.5 11 c 128,-1,60
 414 34 414 34 387 69 c 1,61,62
 354 36 354 36 317 15 c 128,-1,63
 280 -6 280 -6 238 -6 c 0,0,1
158 511 m 0,64,65
 165 511 165 511 168.5 521.5 c 128,-1,66
 172 532 172 532 174 538 c 0,67,68
 179 550 179 550 185 561.5 c 128,-1,69
 191 573 191 573 201 584 c 0,70,71
 202 586 202 586 209 593 c 128,-1,72
 216 600 216 600 216 602 c 256,73,74
 216 604 216 604 215 604 c 0,75,76
 205 604 205 604 193.5 594 c 128,-1,77
 182 584 182 584 173.5 569.5 c 128,-1,78
 165 555 165 555 159.5 541 c 128,-1,79
 154 527 154 527 154 519 c 0,80,81
 154 517 154 517 155 514 c 128,-1,82
 156 511 156 511 158 511 c 0,64,65
168 483 m 256,83,84
 168 485 168 485 167.5 488.5 c 128,-1,85
 167 492 167 492 162 492 c 0,86,87
 158 492 158 492 156 488.5 c 128,-1,88
 154 485 154 485 154 483 c 0,89,90
 154 475 154 475 161 475 c 0,91,92
 165 475 165 475 166.5 478 c 128,-1,93
 168 481 168 481 168 483 c 256,83,84
337 137 m 1,94,95
 313 170 313 170 289.5 203 c 128,-1,96
 266 236 266 236 247 261.5 c 128,-1,97
 228 287 228 287 214.5 302.5 c 128,-1,98
 201 318 201 318 196 318 c 0,99,100
 183 318 183 318 170 308 c 128,-1,101
 157 298 157 298 147.5 282 c 128,-1,102
 138 266 138 266 132.5 246.5 c 128,-1,103
 127 227 127 227 127 209 c 0,104,105
 127 187 127 187 135 166 c 128,-1,106
 143 145 143 145 158 129 c 128,-1,107
 173 113 173 113 194.5 103 c 128,-1,108
 216 93 216 93 242 93 c 0,109,110
 288 93 288 93 337 137 c 1,94,95
77 129 m 0,111,112
 82 133 82 133 79.5 144 c 128,-1,113
 77 155 77 155 75 160 c 0,114,115
 71 173 71 173 69 188 c 128,-1,116
 67 203 67 203 73 223 c 0,117,118
 78 237 78 237 75 241.5 c 128,-1,119
 72 246 72 246 70 244 c 0,120,121
 61 238 61 238 57 223 c 128,-1,122
 53 208 53 208 53 191 c 128,-1,123
 53 174 53 174 57 158 c 128,-1,124
 61 142 61 142 69 133 c 0,125,126
 70 131 70 131 72.5 129 c 128,-1,127
 75 127 75 127 77 129 c 0,111,112
EndSplineSet
EndChar

StartChar: at
Encoding: 64 64 68
Width: 588
GlyphClass: 1
Flags: W
LayerCount: 2
Fore
SplineSet
267 1 m 0,0,1
 210 1 210 1 162 20.5 c 128,-1,2
 114 40 114 40 79.5 75.5 c 128,-1,3
 45 111 45 111 26 161.5 c 128,-1,4
 7 212 7 212 7 273 c 0,5,6
 7 343 7 343 29 402.5 c 128,-1,7
 51 462 51 462 90.5 506.5 c 128,-1,8
 130 551 130 551 183.5 576 c 128,-1,9
 237 601 237 601 299 601 c 256,10,11
 361 601 361 601 410.5 580 c 128,-1,12
 460 559 460 559 494 522 c 128,-1,13
 528 485 528 485 546 436.5 c 128,-1,14
 564 388 564 388 564 333 c 0,15,16
 564 293 564 293 553.5 258.5 c 128,-1,17
 543 224 543 224 524.5 198 c 128,-1,18
 506 172 506 172 481.5 157 c 128,-1,19
 457 142 457 142 429 142 c 0,20,21
 407 142 407 142 394 150.5 c 128,-1,22
 381 159 381 159 373.5 169 c 128,-1,23
 366 179 366 179 361 187.5 c 128,-1,24
 356 196 356 196 352 196 c 256,25,26
 348 196 348 196 339 187 c 128,-1,27
 330 178 330 178 316.5 168.5 c 128,-1,28
 303 159 303 159 285.5 150 c 128,-1,29
 268 141 268 141 247 141 c 256,30,31
 225 141 225 141 206.5 151 c 128,-1,32
 188 161 188 161 175 178.5 c 128,-1,33
 162 196 162 196 154 219 c 128,-1,34
 146 242 146 242 146 269 c 0,35,36
 146 304 146 304 158 336.5 c 128,-1,37
 170 369 170 369 189 394 c 128,-1,38
 208 419 208 419 233 434 c 128,-1,39
 258 449 258 449 285 449 c 0,40,41
 298 449 298 449 306 445 c 128,-1,42
 314 441 314 441 319.5 437 c 128,-1,43
 325 433 325 433 328 429.5 c 128,-1,44
 331 426 331 426 334 426 c 256,45,46
 337 426 337 426 340 430.5 c 128,-1,47
 343 435 343 435 347 440 c 128,-1,48
 351 445 351 445 357.5 450 c 128,-1,49
 364 455 364 455 374 455 c 0,50,51
 396 455 396 455 404 435.5 c 128,-1,52
 412 416 412 416 413.5 390 c 128,-1,53
 415 364 415 364 413 337.5 c 128,-1,54
 411 311 411 311 411 299 c 0,55,56
 411 286 411 286 414 272 c 128,-1,57
 417 258 417 258 422 246 c 128,-1,58
 427 234 427 234 433 227 c 128,-1,59
 439 220 439 220 446 220 c 0,60,61
 458 220 458 220 468.5 244.5 c 128,-1,62
 479 269 479 269 479 310 c 0,63,64
 479 359 479 359 470 398 c 128,-1,65
 461 437 461 437 441 464.5 c 128,-1,66
 421 492 421 492 388 506.5 c 128,-1,67
 355 521 355 521 308 521 c 256,68,69
 261 521 261 521 221.5 503 c 128,-1,70
 182 485 182 485 153.5 453.5 c 128,-1,71
 125 422 125 422 109 379 c 128,-1,72
 93 336 93 336 93 286 c 0,73,74
 93 241 93 241 107 203 c 128,-1,75
 121 165 121 165 145.5 137.5 c 128,-1,76
 170 110 170 110 203 94.5 c 128,-1,77
 236 79 236 79 273 79 c 0,78,79
 300 79 300 79 327 85.5 c 128,-1,80
 354 92 354 92 378.5 100.5 c 128,-1,81
 403 109 403 109 425 115.5 c 128,-1,82
 447 122 447 122 464 122 c 0,83,84
 493 122 493 122 493 100 c 0,85,86
 493 83 493 83 473 65 c 128,-1,87
 453 47 453 47 420.5 32.5 c 128,-1,88
 388 18 388 18 347.5 9.5 c 128,-1,89
 307 1 307 1 267 1 c 0,0,1
183 324 m 0,90,91
 187 324 187 324 192 334.5 c 128,-1,92
 197 345 197 345 199 347 c 0,93,94
 207 361 207 361 217.5 373.5 c 128,-1,95
 228 386 228 386 240 397 c 0,96,97
 245 402 245 402 239 402 c 0,98,99
 232 402 232 402 221 393.5 c 128,-1,100
 210 385 210 385 200.5 373.5 c 128,-1,101
 191 362 191 362 184.5 350 c 128,-1,102
 178 338 178 338 178 331 c 0,103,104
 178 329 178 329 179.5 326.5 c 128,-1,105
 181 324 181 324 183 324 c 0,90,91
271 225 m 0,106,107
 281 225 281 225 292 234.5 c 128,-1,108
 303 244 303 244 312.5 258 c 128,-1,109
 322 272 322 272 327.5 290.5 c 128,-1,110
 333 309 333 309 333 328 c 0,111,112
 333 371 333 371 300 371 c 0,113,114
 287 371 287 371 273.5 363.5 c 128,-1,115
 260 356 260 356 249.5 344 c 128,-1,116
 239 332 239 332 232.5 316.5 c 128,-1,117
 226 301 226 301 226 285 c 0,118,119
 226 259 226 259 236.5 242 c 128,-1,120
 247 225 247 225 271 225 c 0,106,107
181 298 m 0,121,122
 181 305 181 305 176 307 c 0,123,124
 173 308 173 308 169.5 304.5 c 128,-1,125
 166 301 166 301 166 298 c 0,126,127
 166 294 166 294 168.5 290.5 c 128,-1,128
 171 287 171 287 174 287 c 256,129,130
 177 287 177 287 179 291 c 128,-1,131
 181 295 181 295 181 298 c 0,121,122
EndSplineSet
EndChar

StartChar: b
Encoding: 98 98 69
Width: 584
GlyphClass: 2
Flags: W
LayerCount: 2
Fore
SplineSet
544 564 m 1,0,-1
 494 564 l 1,1,-1
 494 0 l 1,2,-1
 411 0 l 1,3,-1
 411 202 l 1,4,-1
 436 176 l 1,5,6
 401 146 401 146 358 131 c 128,-1,7
 315 116 315 116 256 116 c 0,8,9
 160 116 160 116 103.5 165 c 128,-1,10
 47 214 47 214 47 295 c 0,11,12
 47 389 47 389 109.5 434 c 128,-1,13
 172 479 172 479 270 479 c 0,14,15
 301 479 301 479 326.5 476.5 c 128,-1,16
 352 474 352 474 375 469 c 1,17,-1
 369 398 l 1,18,19
 346 403 346 403 323 406 c 128,-1,20
 300 409 300 409 276 409 c 0,21,22
 207 409 207 409 168.5 381 c 128,-1,23
 130 353 130 353 130 295 c 0,24,25
 130 240 130 240 166 212.5 c 128,-1,26
 202 185 202 185 259 185 c 0,27,28
 295 185 295 185 326 196.5 c 128,-1,29
 357 208 357 208 382.5 227 c 128,-1,30
 408 246 408 246 424 266 c 1,31,-1
 411 221 l 1,32,-1
 411 564 l 1,33,-1
 43 564 l 5,34,-1
 43 637 l 5,35,-1
 544 637 l 1,36,-1
 544 564 l 1,0,-1
210 434 m 1,37,-1
 386 210 l 1,38,-1
 339 167 l 1,39,-1
 146 411 l 1,40,-1
 210 434 l 1,37,-1
EndSplineSet
EndChar

StartChar: c
Encoding: 99 99 70
Width: 550
VWidth: 1000
GlyphClass: 2
Flags: W
LayerCount: 2
Fore
SplineSet
374 17 m 0,0,1
 256 17 256 17 191 84 c 128,-1,2
 126 151 126 151 126 272 c 0,3,4
 126 352 126 352 155 407.5 c 128,-1,5
 184 463 184 463 238 492 c 1,6,-1
 10 492 l 1,7,-1
 10 564 l 1,8,-1
 520 564 l 1,9,-1
 520 492 l 1,10,-1
 418 492 l 2,11,12
 324 492 324 492 270.5 438.5 c 128,-1,13
 217 385 217 385 217 279 c 0,14,15
 217 192 217 192 260 141.5 c 128,-1,16
 303 91 303 91 383 91 c 0,17,18
 420 91 420 91 454 100.5 c 128,-1,19
 488 110 488 110 520 126 c 1,20,-1
 520 48 l 1,21,22
 491 32 491 32 456 24.5 c 128,-1,23
 421 17 421 17 374 17 c 0,0,1
EndSplineSet
EndChar

StartChar: d
Encoding: 100 100 71
Width: 547
GlyphClass: 2
Flags: W
LayerCount: 2
Fore
SplineSet
323 227 m 0,0,1
 292 227 292 227 261 221 c 128,-1,2
 230 215 230 215 206 204 c 1,3,4
 163 232 163 232 128.5 269 c 128,-1,5
 94 306 94 306 94 356 c 0,6,7
 94 415 94 415 133 445 c 128,-1,8
 172 475 172 475 253 475 c 2,9,-1
 374 475 l 1,10,-1
 374 564 l 1,11,-1
 39 564 l 1,12,-1
 39 637 l 1,13,-1
 507 637 l 1,14,-1
 507 564 l 1,15,-1
 457 564 l 1,16,-1
 457 403 l 1,17,-1
 254 403 l 2,18,19
 213 403 213 403 194.5 390 c 128,-1,20
 176 377 176 377 176 350 c 0,21,22
 176 331 176 331 189 313 c 128,-1,23
 202 295 202 295 219 283 c 1,24,25
 244 291 244 291 272.5 296 c 128,-1,26
 301 301 301 301 331 301 c 0,27,28
 414 301 414 301 457.5 262.5 c 128,-1,29
 501 224 501 224 501 158 c 0,30,31
 501 113 501 113 480 77 c 128,-1,32
 459 41 459 41 415 20.5 c 128,-1,33
 371 0 371 0 301 0 c 0,34,35
 213 0 213 0 144 34.5 c 128,-1,36
 75 69 75 69 20 122 c 1,37,-1
 72 189 l 1,38,39
 126 133 126 133 181.5 104.5 c 128,-1,40
 237 76 237 76 299 76 c 0,41,42
 359 76 359 76 388.5 96.5 c 128,-1,43
 418 117 418 117 418 155 c 0,44,45
 418 189 418 189 396 208 c 128,-1,46
 374 227 374 227 323 227 c 0,0,1
EndSplineSet
EndChar

StartChar: dollar
Encoding: 36 36 72
Width: 362
GlyphClass: 1
Flags: W
LayerCount: 2
Fore
SplineSet
177 -42 m 256,0,1
 166 -42 166 -42 160 -33.5 c 128,-1,2
 154 -25 154 -25 151 -12.5 c 128,-1,3
 148 0 148 0 148 14 c 128,-1,4
 148 28 148 28 148 38 c 2,5,-1
 148 97 l 1,6,7
 103 97 103 97 72.5 117 c 128,-1,8
 42 137 42 137 42 167 c 0,9,10
 42 185 42 185 52.5 192 c 128,-1,11
 63 199 63 199 75 199 c 0,12,13
 98 199 98 199 120 190.5 c 128,-1,14
 142 182 142 182 173 182 c 0,15,16
 182 182 182 182 194 185 c 128,-1,17
 206 188 206 188 216 194.5 c 128,-1,18
 226 201 226 201 233.5 209.5 c 128,-1,19
 241 218 241 218 241 230 c 0,20,21
 241 254 241 254 221.5 266.5 c 128,-1,22
 202 279 202 279 171 279 c 0,23,24
 110 279 110 279 74.5 311 c 128,-1,25
 39 343 39 343 39 411 c 0,26,27
 39 471 39 471 69 509 c 128,-1,28
 99 547 99 547 148 555 c 1,29,-1
 148 601 l 2,30,31
 148 608 148 608 147.5 623 c 128,-1,32
 147 638 147 638 149.5 653 c 128,-1,33
 152 668 152 668 158.5 679 c 128,-1,34
 165 690 165 690 178 690 c 256,35,36
 191 690 191 690 197.5 662.5 c 128,-1,37
 204 635 204 635 204 586 c 0,38,39
 204 566 204 566 206 560.5 c 128,-1,40
 208 555 208 555 220 555 c 256,41,42
 232 555 232 555 245 551 c 128,-1,43
 258 547 258 547 269 539 c 128,-1,44
 280 531 280 531 286.5 520.5 c 128,-1,45
 293 510 293 510 293 497 c 256,46,47
 293 484 293 484 287 479 c 128,-1,48
 281 474 281 474 270 473 c 128,-1,49
 259 472 259 472 243.5 473.5 c 128,-1,50
 228 475 228 475 210 475 c 0,51,52
 171 475 171 475 156.5 458 c 128,-1,53
 142 441 142 441 142 414 c 0,54,55
 142 401 142 401 148.5 392 c 128,-1,56
 155 383 155 383 164 378.5 c 128,-1,57
 173 374 173 374 183 371.5 c 128,-1,58
 193 369 193 369 200 368 c 0,59,60
 230 364 230 364 254.5 355 c 128,-1,61
 279 346 279 346 296 330.5 c 128,-1,62
 313 315 313 315 323 291.5 c 128,-1,63
 333 268 333 268 333 236 c 0,64,65
 333 177 333 177 297 140.5 c 128,-1,66
 261 104 261 104 204 99 c 1,67,-1
 204 38 l 2,68,69
 204 29 204 29 204 15 c 128,-1,70
 204 1 204 1 202 -12 c 128,-1,71
 200 -25 200 -25 194 -33.5 c 128,-1,72
 188 -42 188 -42 177 -42 c 256,0,1
103 487 m 0,73,74
 109 496 109 496 118.5 501.5 c 128,-1,75
 128 507 128 507 128 515 c 0,76,77
 128 521 128 521 121 521 c 0,78,79
 113 521 113 521 104.5 515 c 128,-1,80
 96 509 96 509 90 500.5 c 128,-1,81
 84 492 84 492 80 482 c 128,-1,82
 76 472 76 472 76 464 c 0,83,84
 76 457 76 457 80 457 c 0,85,86
 87 457 87 457 92.5 468 c 128,-1,87
 98 479 98 479 103 487 c 0,73,74
85 435 m 0,88,89
 85 444 85 444 76 444 c 0,90,91
 71 444 71 444 69.5 439.5 c 128,-1,92
 68 435 68 435 70 429 c 256,93,94
 72 423 72 423 77 423 c 256,95,96
 82 423 82 423 83.5 426.5 c 128,-1,97
 85 430 85 430 85 435 c 0,88,89
EndSplineSet
EndChar

StartChar: e
Encoding: 101 101 73
Width: 422
VWidth: 1000
GlyphClass: 2
Flags: W
LayerCount: 2
Fore
SplineSet
224 -10 m 0,0,1
 179 -10 179 -10 142.5 11.5 c 128,-1,2
 106 33 106 33 80 73 c 128,-1,3
 54 113 54 113 39.5 168.5 c 128,-1,4
 25 224 25 224 25 292 c 0,5,6
 25 364 25 364 41 424.5 c 128,-1,7
 57 485 57 485 85.5 529.5 c 128,-1,8
 114 574 114 574 153.5 598.5 c 128,-1,9
 193 623 193 623 239 623 c 0,10,11
 273 623 273 623 301.5 610 c 128,-1,12
 330 597 330 597 350 573.5 c 128,-1,13
 370 550 370 550 380.5 518.5 c 128,-1,14
 391 487 391 487 389 450 c 0,15,16
 387 407 387 407 369 366.5 c 128,-1,17
 351 326 351 326 321 295 c 128,-1,18
 291 264 291 264 251.5 245.5 c 128,-1,19
 212 227 212 227 167 227 c 0,20,21
 150 227 150 227 150 213 c 0,22,23
 150 149 150 149 172.5 118.5 c 128,-1,24
 195 88 195 88 230 88 c 0,25,26
 256 88 256 88 273.5 107 c 128,-1,27
 291 126 291 126 291 155 c 0,28,29
 291 179 291 179 304 193.5 c 128,-1,30
 317 208 317 208 337 208 c 0,31,32
 360 208 360 208 373.5 189.5 c 128,-1,33
 387 171 387 171 387 139 c 0,34,35
 387 109 387 109 374 81.5 c 128,-1,36
 361 54 361 54 339 34 c 128,-1,37
 317 14 317 14 287 2 c 128,-1,38
 257 -10 257 -10 224 -10 c 0,0,1
94 477 m 0,39,40
 97 477 97 477 106.5 491.5 c 128,-1,41
 116 506 116 506 129 523.5 c 128,-1,42
 142 541 142 541 157 556.5 c 128,-1,43
 172 572 172 572 187 573 c 0,44,45
 192 574 192 574 196.5 576.5 c 128,-1,46
 201 579 201 579 200 582 c 0,47,48
 200 592 200 592 187 590 c 0,49,50
 170 589 170 589 152.5 576 c 128,-1,51
 135 563 135 563 120.5 545.5 c 128,-1,52
 106 528 106 528 97 510 c 128,-1,53
 88 492 88 492 89 481 c 0,54,55
 91 474 91 474 94 477 c 0,39,40
147 315 m 0,56,57
 150 311 150 311 161 311 c 0,58,59
 187 311 187 311 211 324 c 128,-1,60
 235 337 235 337 253 357 c 128,-1,61
 271 377 271 377 282 403 c 128,-1,62
 293 429 293 429 293 454 c 0,63,64
 293 486 293 486 277.5 507 c 128,-1,65
 262 528 262 528 239 528 c 0,66,67
 222 528 222 528 207.5 513.5 c 128,-1,68
 193 499 193 499 181.5 477.5 c 128,-1,69
 170 456 170 456 162 429.5 c 128,-1,70
 154 403 154 403 149.5 379.5 c 128,-1,71
 145 356 145 356 144 338 c 128,-1,72
 143 320 143 320 147 315 c 0,56,57
81 467 m 0,73,74
 76 466 76 466 73 459.5 c 128,-1,75
 70 453 70 453 71 445 c 0,76,77
 73 436 73 436 75 437 c 0,78,79
 80 437 80 437 84 446 c 128,-1,80
 88 455 88 455 86 462 c 0,81,82
 84 468 84 468 81 467 c 0,73,74
EndSplineSet
EndChar

StartChar: f
Encoding: 102 102 74
Width: 789
GlyphClass: 2
Flags: W
LayerCount: 2
Fore
SplineSet
471 564 m 1,0,-1
 471 321 l 1,1,-1
 453 349 l 1,2,3
 482 379 482 379 515 394 c 128,-1,4
 548 409 548 409 589 409 c 0,5,6
 662 409 662 409 703.5 366.5 c 128,-1,7
 745 324 745 324 745 245 c 0,8,9
 745 191 745 191 724 141.5 c 128,-1,10
 703 92 703 92 658 42 c 1,11,-1
 588 87 l 1,12,13
 622 123 622 123 643 162.5 c 128,-1,14
 664 202 664 202 664 245 c 0,15,16
 664 291 664 291 643 314.5 c 128,-1,17
 622 338 622 338 585 338 c 0,18,19
 547 338 547 338 517 317.5 c 128,-1,20
 487 297 487 297 465 263 c 1,21,-1
 471 300 l 1,22,-1
 471 0 l 1,23,-1
 388 0 l 1,24,-1
 388 244 l 1,25,-1
 404 220 l 1,26,27
 379 194 379 194 341.5 179 c 128,-1,28
 304 164 304 164 259 164 c 0,29,30
 196 164 196 164 156.5 188.5 c 128,-1,31
 117 213 117 213 99 258.5 c 128,-1,32
 81 304 81 304 81 369 c 2,33,-1
 81 564 l 1,34,-1
 37 564 l 1,35,-1
 37 637 l 1,36,-1
 733 637 l 1,37,-1
 733 564 l 1,38,-1
 471 564 l 1,0,-1
164 564 m 1,39,-1
 164 371 l 2,40,41
 164 320 164 320 175 290.5 c 128,-1,42
 186 261 186 261 208 249 c 128,-1,43
 230 237 230 237 262 237 c 0,44,45
 302 237 302 237 340.5 259.5 c 128,-1,46
 379 282 379 282 407 313 c 1,47,-1
 388 258 l 1,48,-1
 388 564 l 1,49,-1
 164 564 l 1,39,-1
EndSplineSet
EndChar

StartChar: g
Encoding: 103 103 75
Width: 477
VWidth: 1000
GlyphClass: 2
Flags: W
LayerCount: 2
Fore
SplineSet
254 -5 m 0,0,1
 187 -5 187 -5 143 28 c 128,-1,2
 99 61 99 61 73 111 c 128,-1,3
 47 161 47 161 37 219 c 128,-1,4
 27 277 27 277 27 328 c 0,5,6
 27 384 27 384 38.5 437.5 c 128,-1,7
 50 491 50 491 77 532.5 c 128,-1,8
 104 574 104 574 147.5 599.5 c 128,-1,9
 191 625 191 625 255 625 c 0,10,11
 286 625 286 625 314.5 616.5 c 128,-1,12
 343 608 343 608 365 589.5 c 128,-1,13
 387 571 387 571 400 540.5 c 128,-1,14
 413 510 413 510 413 466 c 0,15,16
 413 450 413 450 406.5 440.5 c 128,-1,17
 400 431 400 431 390.5 425.5 c 128,-1,18
 381 420 381 420 371 418.5 c 128,-1,19
 361 417 361 417 355 417 c 0,20,21
 341 417 341 417 328.5 427 c 128,-1,22
 316 437 316 437 316 466 c 0,23,24
 316 511 316 511 295.5 529 c 128,-1,25
 275 547 275 547 246 547 c 0,26,27
 226 547 226 547 207.5 530.5 c 128,-1,28
 189 514 189 514 175 483.5 c 128,-1,29
 161 453 161 453 153 410 c 128,-1,30
 145 367 145 367 145 314 c 0,31,32
 145 285 145 285 148.5 245 c 128,-1,33
 152 205 152 205 164 169 c 128,-1,34
 176 133 176 133 198 107.5 c 128,-1,35
 220 82 220 82 256 82 c 0,36,37
 285 82 285 82 301.5 96.5 c 128,-1,38
 318 111 318 111 325.5 132 c 128,-1,39
 333 153 333 153 334.5 175.5 c 128,-1,40
 336 198 336 198 335 214 c 256,41,42
 334 230 334 230 321.5 231.5 c 128,-1,43
 309 233 309 233 286 233 c 2,44,-1
 235 233 l 2,45,46
 229 233 229 233 224 239 c 128,-1,47
 219 245 219 245 216 253.5 c 128,-1,48
 213 262 213 262 211 271 c 128,-1,49
 209 280 209 280 209 286 c 0,50,51
 209 302 209 302 219.5 314.5 c 128,-1,52
 230 327 230 327 253 327 c 2,53,-1
 361 326 l 2,54,55
 392 326 392 326 417 306 c 128,-1,56
 442 286 442 286 442 249 c 0,57,58
 442 206 442 206 432.5 161 c 128,-1,59
 423 116 423 116 401 79 c 128,-1,60
 379 42 379 42 343 18.5 c 128,-1,61
 307 -5 307 -5 254 -5 c 0,0,1
159 58 m 0,62,63
 159 62 159 62 139 84 c 0,64,65
 130 93 130 93 121 106.5 c 128,-1,66
 112 120 112 120 104.5 133 c 128,-1,67
 97 146 97 146 92.5 157.5 c 128,-1,68
 88 169 88 169 88 173 c 0,69,70
 88 178 88 178 85 179.5 c 128,-1,71
 82 181 82 181 81 181 c 0,72,73
 73 181 73 181 73 170 c 256,74,75
 73 159 73 159 82 139 c 128,-1,76
 91 119 91 119 103.5 99.5 c 128,-1,77
 116 80 116 80 129.5 66 c 128,-1,78
 143 52 143 52 153 52 c 0,79,80
 159 52 159 52 159 58 c 0,62,63
182 45 m 0,81,82
 182 52 182 52 175 52 c 0,83,84
 171 52 171 52 169.5 49 c 128,-1,85
 168 46 168 46 168 44 c 0,86,87
 168 39 168 39 170.5 38 c 128,-1,88
 173 37 173 37 175 37 c 0,89,90
 182 37 182 37 182 45 c 0,81,82
EndSplineSet
EndChar

StartChar: grave
Encoding: 96 96 76
Width: 287
GlyphClass: 1
Flags: W
LayerCount: 2
Fore
SplineSet
148 784 m 1,0,1
 159 761 159 761 176.5 733.5 c 128,-1,2
 194 706 194 706 212.5 679 c 128,-1,3
 231 652 231 652 247 633 c 1,4,-1
 247 621 l 1,5,-1
 186 621 l 1,6,7
 169 635 169 635 147.5 655 c 128,-1,8
 126 675 126 675 105 697 c 128,-1,9
 84 719 84 719 67 739.5 c 128,-1,10
 50 760 50 760 41 774 c 1,11,-1
 41 784 l 1,12,-1
 148 784 l 1,0,1
EndSplineSet
EndChar

StartChar: h
Encoding: 104 104 77
Width: 415
VWidth: 1000
GlyphClass: 2
Flags: W
LayerCount: 2
Fore
SplineSet
75 0 m 0,0,1
 50 0 50 0 40 14.5 c 128,-1,2
 30 29 30 29 30 65 c 2,3,-1
 30 343 l 2,4,5
 30 434 30 434 28 518 c 0,6,7
 27 616 27 616 78 616 c 0,8,9
 97 616 97 616 115 606.5 c 128,-1,10
 133 597 133 597 133 571 c 2,11,-1
 133 358 l 2,12,13
 133 318 133 318 137 318 c 256,14,15
 141 318 141 318 146 334 c 128,-1,16
 151 350 151 350 163 369.5 c 128,-1,17
 175 389 175 389 197 405 c 128,-1,18
 219 421 219 421 255 421 c 0,19,20
 319 421 319 421 348 358 c 128,-1,21
 377 295 377 295 377 157 c 2,22,-1
 377 31 l 2,23,24
 377 0 377 0 321 0 c 0,25,26
 294 0 294 0 282 11.5 c 128,-1,27
 270 23 270 23 270 34 c 2,28,-1
 270 148 l 2,29,30
 270 200 270 200 267 232 c 128,-1,31
 264 264 264 264 258 282 c 128,-1,32
 252 300 252 300 242.5 306.5 c 128,-1,33
 233 313 233 313 219 313 c 0,34,35
 198 313 198 313 182.5 293.5 c 128,-1,36
 167 274 167 274 157 241 c 128,-1,37
 147 208 147 208 142.5 163.5 c 0,38,39
 138 123 138 123 138 121 c 2,40,-1
 138 45 l 2,41,42
 138 30 138 30 130.5 21 c 128,-1,43
 123 12 123 12 113 7.5 c 128,-1,44
 103 3 103 3 92.5 1.5 c 128,-1,45
 82 0 82 0 75 0 c 0,0,1
50 316 m 0,46,47
 53 316 53 316 55 328 c 128,-1,48
 57 340 57 340 59 355 c 128,-1,49
 61 370 61 370 62 482 c 128,-1,50
 63 594 63 594 63 595 c 0,51,52
 63 597 63 597 62.5 600 c 128,-1,53
 62 603 62 603 60 603 c 0,54,55
 55 603 55 603 51.5 595.5 c 128,-1,56
 48 588 48 588 46 479 c 128,-1,57
 44 370 44 370 43 360.5 c 128,-1,58
 42 351 42 351 42 348 c 0,59,60
 42 340 42 340 44 328 c 128,-1,61
 46 316 46 316 50 316 c 0,46,47
307 29 m 0,62,63
 307 35 307 35 305 38 c 128,-1,64
 303 41 303 41 300.5 43 c 128,-1,65
 298 45 298 45 296 49 c 128,-1,66
 294 53 294 53 294 60 c 0,67,68
 294 76 294 76 292.5 80 c 128,-1,69
 291 84 291 84 286 84 c 256,70,71
 281 84 281 84 279.5 76.5 c 128,-1,72
 278 69 278 69 278 59 c 0,73,74
 278 39 278 39 284 27 c 128,-1,75
 290 15 290 15 298 15 c 0,76,77
 301 15 301 15 304 18.5 c 128,-1,78
 307 22 307 22 307 29 c 0,62,63
74 26 m 0,79,80
 74 31 74 31 71.5 33.5 c 128,-1,81
 69 36 69 36 66 38.5 c 128,-1,82
 63 41 63 41 60.5 45 c 128,-1,83
 58 49 58 49 58 56 c 0,84,85
 58 77 58 77 51 77 c 0,86,87
 49 77 49 77 47 69.5 c 128,-1,88
 45 62 45 62 45 51 c 0,89,90
 45 36 45 36 51.5 24 c 128,-1,91
 58 12 58 12 66 12 c 0,92,93
 68 12 68 12 71 16 c 128,-1,94
 74 20 74 20 74 26 c 0,79,80
EndSplineSet
EndChar

StartChar: i
Encoding: 105 105 78
Width: 273
VWidth: 1000
GlyphClass: 2
Flags: W
LayerCount: 2
Fore
SplineSet
130 -4 m 256,0,1
 106 -4 106 -4 93 6.5 c 128,-1,2
 80 17 80 17 80 32 c 2,3,-1
 80 387 l 2,4,5
 80 396 80 396 82.5 408 c 128,-1,6
 85 420 85 420 90.5 430 c 128,-1,7
 96 440 96 440 105.5 447 c 128,-1,8
 115 454 115 454 130 454 c 256,9,10
 145 454 145 454 155.5 448 c 128,-1,11
 166 442 166 442 172.5 433 c 128,-1,12
 179 424 179 424 182.5 413 c 128,-1,13
 186 402 186 402 186 392 c 2,14,-1
 186 32 l 2,15,16
 186 16 186 16 170 6 c 128,-1,17
 154 -4 154 -4 130 -4 c 256,0,1
98 357 m 0,18,19
 101 357 101 357 102 363 c 128,-1,20
 103 369 103 369 103 377.5 c 128,-1,21
 103 386 103 386 103.5 395.5 c 128,-1,22
 104 405 104 405 106 411 c 0,23,24
 107 415 107 415 109 422 c 128,-1,25
 111 429 111 429 108 429 c 0,26,27
 103 429 103 429 99.5 423.5 c 128,-1,28
 96 418 96 418 93.5 410.5 c 128,-1,29
 91 403 91 403 90 395.5 c 128,-1,30
 89 388 89 388 89 383 c 0,31,32
 89 374 89 374 91 365.5 c 128,-1,33
 93 357 93 357 98 357 c 0,18,19
133.466796875 523.2265625 m 4,34,35
 98 523 98 523 73.001953125 552.055664062 c 132,-1,36
 48 581 48 581 47.8447265625 626.186523438 c 4,37,38
 48 651 48 651 55.34765625 673.033203125 c 4,39,40
 63 695 63 695 76.0908203125 711.12890625 c 4,41,42
 89 727 89 727 107.868164062 736.868164062 c 4,43,44
 126 747 126 747 148.47265625 746.649414062 c 4,45,46
 166 747 166 747 181.131835938 737.8984375 c 4,47,48
 196 729 196 729 206.731445312 713.702148438 c 4,49,50
 217 698 217 698 223.060546875 678.696289062 c 4,51,52
 229 659 229 659 228.798828125 637.51171875 c 4,53,54
 229 610 229 610 221.294921875 588.606445312 c 4,55,56
 214 567 214 567 200.551757812 553.083984375 c 132,-1,57
 187 539 187 539 170.098632812 530.948242188 c 4,58,59
 152 523 152 523 133.466796875 523.2265625 c 4,34,35
100.806640625 701.34765625 m 4,60,61
 107 709 107 709 108.309570312 713.702148438 c 4,62,63
 110 719 110 719 107.868164062 718.850585938 c 4,64,65
 101 719 101 719 92.8623046875 711.12890625 c 4,66,67
 85 703 85 703 78.2978515625 692.595703125 c 4,68,69
 72 682 72 682 67.2646484375 669.4296875 c 4,70,71
 62 654 62 654 62.8505859375 646.778320312 c 4,72,73
 63 645 63 645 64.173828125 638.541015625 c 4,74,75
 65 632 65 632 68.1474609375 632.36328125 c 4,76,77
 72 633 72 633 76.9736328125 655.015625 c 4,78,79
 80 669 80 669 86.68359375 681.26953125 c 4,80,81
 93 693 93 693 100.806640625 701.34765625 c 4,60,61
136.997070312 581.913085938 m 4,82,83
 148 582 148 582 162.154296875 596.328125 c 4,84,85
 177 611 177 611 176.71875 637.51171875 c 4,86,87
 177 658 177 658 167.451171875 672.002929688 c 132,-1,88
 158 686 158 686 143.17578125 685.903320312 c 260,89,90
 128 686 128 686 115.8125 672.002929688 c 4,91,92
 103 657 103 657 103.454101562 633.393554688 c 260,93,94
 104 609 104 609 113.1640625 595.298828125 c 4,95,96
 123 582 123 582 136.997070312 581.913085938 c 4,82,83
EndSplineSet
EndChar

StartChar: j
Encoding: 106 106 79
Width: 249
VWidth: 1000
GlyphClass: 2
Flags: W
LayerCount: 2
Fore
SplineSet
148 559 m 256,0,1
 122 559 122 559 106 574.5 c 128,-1,2
 90 590 90 590 90 616 c 0,3,4
 90 643 90 643 106.5 660 c 128,-1,5
 123 677 123 677 150 677 c 256,6,7
 177 677 177 677 194 661.5 c 128,-1,8
 211 646 211 646 211 621 c 0,9,10
 211 595 211 595 192.5 577 c 128,-1,11
 174 559 174 559 148 559 c 256,0,1
116 618 m 0,12,13
 118 627 118 627 121.5 631.5 c 128,-1,14
 125 636 125 636 129 638.5 c 128,-1,15
 133 641 133 641 136 643.5 c 128,-1,16
 139 646 139 646 139 650 c 0,17,18
 139 660 139 660 129 660 c 0,19,20
 117 660 117 660 109 646.5 c 128,-1,21
 101 633 101 633 101 618 c 0,22,23
 101 611 101 611 102.5 601.5 c 128,-1,24
 104 592 104 592 110 592 c 0,25,26
 115 592 115 592 115 603.5 c 128,-1,27
 115 615 115 615 116 618 c 0,12,13
203 82 m 2,28,29
 203 35 203 35 196.5 -3.5 c 128,-1,30
 190 -42 190 -42 175 -69.5 c 128,-1,31
 160 -97 160 -97 134.5 -112 c 128,-1,32
 109 -127 109 -127 70 -127 c 0,33,34
 39 -127 39 -127 26 -113.5 c 128,-1,35
 13 -100 13 -100 13 -72 c 0,36,37
 13 -56 13 -56 18 -38.5 c 128,-1,38
 23 -21 23 -21 37 -21 c 0,39,40
 44 -21 44 -21 50.5 -23.5 c 128,-1,41
 57 -26 57 -26 65 -26 c 0,42,43
 81 -26 81 -26 89 -3 c 128,-1,44
 97 20 97 20 97 82 c 2,45,-1
 97 439 l 2,46,47
 97 448 97 448 99.5 460 c 128,-1,48
 102 472 102 472 107.5 482 c 128,-1,49
 113 492 113 492 122.5 499 c 128,-1,50
 132 506 132 506 147 506 c 256,51,52
 162 506 162 506 172.5 500 c 128,-1,53
 183 494 183 494 189.5 485 c 128,-1,54
 196 476 196 476 199.5 465 c 128,-1,55
 203 454 203 454 203 444 c 2,56,-1
 203 82 l 2,28,29
115 409 m 0,57,58
 118 409 118 409 119 415 c 128,-1,59
 120 421 120 421 120 429.5 c 128,-1,60
 120 438 120 438 120.5 447.5 c 128,-1,61
 121 457 121 457 123 463 c 0,62,63
 124 467 124 467 126 474 c 128,-1,64
 128 481 128 481 125 481 c 0,65,66
 120 481 120 481 116.5 475.5 c 128,-1,67
 113 470 113 470 110.5 462.5 c 128,-1,68
 108 455 108 455 107 447.5 c 128,-1,69
 106 440 106 440 106 435 c 0,70,71
 106 426 106 426 108 417.5 c 128,-1,72
 110 409 110 409 115 409 c 0,57,58
57 -103 m 0,73,74
 57 -91 57 -91 48.5 -83 c 128,-1,75
 40 -75 40 -75 40 -66 c 0,76,77
 40 -52 40 -52 37.5 -47.5 c 128,-1,78
 35 -43 35 -43 31 -43 c 0,79,80
 28 -43 28 -43 26.5 -49.5 c 128,-1,81
 25 -56 25 -56 25 -64 c 0,82,83
 25 -83 25 -83 32 -97 c 128,-1,84
 39 -111 39 -111 47 -111 c 0,85,86
 50 -111 50 -111 53.5 -109.5 c 128,-1,87
 57 -108 57 -108 57 -103 c 0,73,74
EndSplineSet
EndChar

StartChar: k
Encoding: 107 107 80
Width: 786
GlyphClass: 2
Flags: W
LayerCount: 2
Fore
SplineSet
714 564 m 1,0,-1
 469 564 l 1,1,-1
 469 341 l 1,2,-1
 455 351 l 1,3,4
 475 377 475 377 510 393.5 c 128,-1,5
 545 410 545 410 589 410 c 0,6,7
 662 410 662 410 702.5 366 c 128,-1,8
 743 322 743 322 743 246 c 0,9,10
 743 193 743 193 722.5 143 c 128,-1,11
 702 93 702 93 657 43 c 1,12,-1
 586 88 l 1,13,14
 620 123 620 123 641 161.5 c 128,-1,15
 662 200 662 200 662 247 c 0,16,17
 662 292 662 292 640 315 c 128,-1,18
 618 338 618 338 580 338 c 0,19,20
 546 338 546 338 515.5 316 c 128,-1,21
 485 294 485 294 466 256 c 1,22,-1
 469 294 l 1,23,-1
 469 0 l 1,24,-1
 386 0 l 1,25,-1
 386 215 l 1,26,-1
 400 187 l 1,27,28
 381 168 381 168 357 152.5 c 128,-1,29
 333 137 333 137 303 129 c 128,-1,30
 273 121 273 121 239 121 c 0,31,32
 187 121 187 121 143 141 c 128,-1,33
 99 161 99 161 73 200.5 c 128,-1,34
 47 240 47 240 47 298 c 0,35,36
 47 382 47 382 103 428.5 c 128,-1,37
 159 475 159 475 258 475 c 0,38,39
 285 475 285 475 308 472.5 c 128,-1,40
 331 470 331 470 350 465 c 1,41,-1
 343 390 l 1,42,43
 326 395 326 395 305 397.5 c 128,-1,44
 284 400 284 400 260 400 c 0,45,46
 198 400 198 400 164 373 c 128,-1,47
 130 346 130 346 130 295 c 0,48,49
 130 245 130 245 161.5 220 c 128,-1,50
 193 195 193 195 239 195 c 0,51,52
 288 195 288 195 328 220 c 128,-1,53
 368 245 368 245 390 280 c 1,54,-1
 386 229 l 1,55,-1
 386 564 l 1,56,-1
 56 564 l 1,57,-1
 56 637 l 1,58,-1
 714 637 l 1,59,-1
 714 564 l 1,0,-1
EndSplineSet
EndChar

StartChar: l
Encoding: 108 108 81
Width: 694
GlyphClass: 2
Flags: W
LayerCount: 2
Fore
SplineSet
52 564 m 5,0,-1
 52 637 l 5,1,-1
 658 637 l 1,2,-1
 658 564 l 1,3,-1
 603 564 l 1,4,-1
 603 0 l 1,5,-1
 520 0 l 1,6,-1
 520 388 l 1,7,-1
 565 355 l 1,8,9
 549 362 549 362 534.5 364.5 c 128,-1,10
 520 367 520 367 508 367 c 0,11,12
 473 367 473 367 445.5 351 c 128,-1,13
 418 335 418 335 399 298 c 128,-1,14
 380 261 380 261 369 198 c 1,15,-1
 287 222 l 1,16,17
 301 330 301 330 358 384 c 128,-1,18
 415 438 415 438 508 438 c 0,19,20
 528 438 528 438 545.5 435 c 128,-1,21
 563 432 563 432 575 428 c 1,22,-1
 579 406 l 1,23,-1
 520 425 l 1,24,-1
 520 564 l 1,25,-1
 52 564 l 5,0,-1
340 311 m 1,26,27
 323 336 323 336 296 351.5 c 128,-1,28
 269 367 269 367 232 367 c 0,29,30
 184 367 184 367 156.5 337.5 c 128,-1,31
 129 308 129 308 129 260 c 0,32,33
 129 202 129 202 172 152.5 c 128,-1,34
 215 103 215 103 309 49 c 1,35,-1
 261 -14 l 1,36,37
 161 45 161 45 103.5 113 c 128,-1,38
 46 181 46 181 46 268 c 0,39,40
 46 353 46 353 96 396.5 c 128,-1,41
 146 440 146 440 224 440 c 0,42,43
 275 440 275 440 313 421 c 128,-1,44
 351 402 351 402 379 372 c 1,45,-1
 340 311 l 1,26,27
EndSplineSet
EndChar

StartChar: m
Encoding: 109 109 82
Width: 612
GlyphClass: 2
Flags: W
LayerCount: 2
Fore
SplineSet
521 564 m 1,0,-1
 521 0 l 1,1,-1
 438 0 l 1,2,-1
 438 256 l 1,3,-1
 212 256 l 1,4,-1
 212 218 l 2,5,6
 212 184 212 184 197 169.5 c 128,-1,7
 182 155 182 155 163 155 c 256,8,9
 144 155 144 155 122 167.5 c 128,-1,10
 100 180 100 180 81.5 200 c 128,-1,11
 63 220 63 220 51.5 242.5 c 128,-1,12
 40 265 40 265 40 285 c 0,13,14
 40 303 40 303 54 316 c 128,-1,15
 68 329 68 329 102 329 c 2,16,-1
 129 329 l 1,17,-1
 129 564 l 1,18,-1
 11 564 l 1,19,-1
 11 637 l 1,20,-1
 596 637 l 5,21,-1
 596 564 l 5,22,-1
 521 564 l 1,0,-1
438 564 m 1,23,-1
 212 564 l 1,24,-1
 212 329 l 1,25,-1
 438 329 l 1,26,-1
 438 564 l 1,23,-1
EndSplineSet
EndChar

StartChar: n
Encoding: 110 110 83
Width: 568
GlyphClass: 2
Flags: W
LayerCount: 2
Fore
SplineSet
58 637 m 1,0,-1
 524 637 l 5,1,-1
 524 564 l 5,2,-1
 477 564 l 1,3,-1
 477 0 l 1,4,-1
 394 0 l 1,5,-1
 394 305 l 1,6,-1
 209 305 l 1,7,-1
 209 250 l 2,8,9
 209 221 209 221 194.5 207 c 128,-1,10
 180 193 180 193 157 193 c 0,11,12
 139 193 139 193 117.5 205 c 128,-1,13
 96 217 96 217 78 237.5 c 128,-1,14
 60 258 60 258 49 281 c 128,-1,15
 38 304 38 304 38 326 c 0,16,17
 38 350 38 350 52 364 c 128,-1,18
 66 378 66 378 100 378 c 2,19,-1
 394 378 l 1,20,-1
 394 564 l 1,21,-1
 58 564 l 1,22,-1
 58 637 l 1,0,-1
EndSplineSet
EndChar

StartChar: o
Encoding: 111 111 84
Width: 444
VWidth: 1000
GlyphClass: 2
Flags: W
LayerCount: 2
Fore
SplineSet
130 266 m 1,0,-1
 130 330 l 1,1,-1
 326 330 l 1,2,-1
 326 266 l 1,3,-1
 130 266 l 1,0,-1
231 -9 m 0,4,5
 176 -9 176 -9 135.5 17.5 c 128,-1,6
 95 44 95 44 68.5 87.5 c 128,-1,7
 42 131 42 131 29 185.5 c 128,-1,8
 16 240 16 240 16 296 c 256,9,10
 16 352 16 352 28 410.5 c 128,-1,11
 40 469 40 469 66 516.5 c 128,-1,12
 92 564 92 564 133 594.5 c 128,-1,13
 174 625 174 625 232 625 c 0,14,15
 285 625 285 625 323 597.5 c 128,-1,16
 361 570 361 570 385.5 524 c 128,-1,17
 410 478 410 478 422 417.5 c 128,-1,18
 434 357 434 357 434 291 c 0,19,20
 434 236 434 236 422 182 c 128,-1,21
 410 128 410 128 385.5 85.5 c 128,-1,22
 361 43 361 43 322.5 17 c 128,-1,23
 284 -9 284 -9 231 -9 c 0,4,5
79 468 m 0,24,25
 82 468 82 468 86 473.5 c 128,-1,26
 90 479 90 479 94.5 487.5 c 128,-1,27
 99 496 99 496 104.5 505 c 128,-1,28
 110 514 110 514 115 521 c 0,29,30
 137 550 137 550 156.5 567 c 128,-1,31
 176 584 176 584 176 589 c 0,32,33
 176 592 176 592 171 593 c 0,34,35
 159 593 159 593 142.5 579 c 128,-1,36
 126 565 126 565 111 545.5 c 128,-1,37
 96 526 96 526 85.5 505.5 c 128,-1,38
 75 485 75 485 75 473 c 0,39,40
 75 468 75 468 79 468 c 0,24,25
231 71 m 0,41,42
 261 71 261 71 279.5 93.5 c 128,-1,43
 298 116 298 116 308.5 149.5 c 128,-1,44
 319 183 319 183 323 223 c 128,-1,45
 327 263 327 263 327 299 c 256,46,47
 327 335 327 335 324.5 376 c 128,-1,48
 322 417 322 417 312 452 c 128,-1,49
 302 487 302 487 283 510 c 128,-1,50
 264 533 264 533 232 533 c 0,51,52
 201 533 201 533 181 505 c 128,-1,53
 161 477 161 477 149.5 438.5 c 128,-1,54
 138 400 138 400 134 360 c 128,-1,55
 130 320 130 320 130 296 c 256,56,57
 130 272 130 272 133 233.5 c 128,-1,58
 136 195 136 195 146.5 159 c 128,-1,59
 157 123 157 123 177 97 c 128,-1,60
 197 71 197 71 231 71 c 0,41,42
80 446 m 256,61,62
 80 454 80 454 73 456 c 0,63,64
 70 456 70 456 65 452.5 c 128,-1,65
 60 449 60 449 60 441 c 0,66,67
 60 432 60 432 68 432 c 0,68,69
 71 432 71 432 75.5 435 c 128,-1,70
 80 438 80 438 80 446 c 256,61,62
EndSplineSet
EndChar

StartChar: p
Encoding: 112 112 85
Width: 581
GlyphClass: 2
Flags: W
LayerCount: 2
Fore
SplineSet
490 564 m 1,0,-1
 490 0 l 1,1,-1
 408 0 l 1,2,-1
 408 250 l 1,3,-1
 427 222 l 1,4,5
 401 197 401 197 361 181 c 128,-1,6
 321 165 321 165 272 165 c 0,7,8
 212 165 212 165 169 187.5 c 128,-1,9
 126 210 126 210 103.5 255.5 c 128,-1,10
 81 301 81 301 81 369 c 2,11,-1
 81 564 l 1,12,-1
 29 564 l 5,13,-1
 29 637 l 5,14,-1
 545 637 l 1,15,-1
 545 564 l 1,16,-1
 490 564 l 1,0,-1
408 564 m 1,17,-1
 164 564 l 1,18,-1
 164 366 l 2,19,20
 164 322 164 322 176 293.5 c 128,-1,21
 188 265 188 265 212.5 251.5 c 128,-1,22
 237 238 237 238 270 238 c 0,23,24
 315 238 315 238 356.5 263 c 128,-1,25
 398 288 398 288 424 323 c 1,26,-1
 408 269 l 1,27,-1
 408 564 l 1,17,-1
EndSplineSet
EndChar

StartChar: q
Encoding: 113 113 86
Width: 392
VWidth: 1000
GlyphClass: 2
Flags: W
LayerCount: 2
Fore
SplineSet
241.73046875 55.400390625 m 0,0,1
 239 54 239 54 238.474609375 46.400390625 c 128,-1,2
 238 39 238 39 238.474609375 28.400390625 c 0,3,4
 240 6 240 6 242.470214844 -16.7001953125 c 0,5,6
 246 -70 246 -70 246 -83 c 0,7,8
 246 -95 246 -95 237 -109.5 c 128,-1,9
 228 -124 228 -124 203 -124 c 260,10,11
 178 -124 178 -124 169.5 -108.5 c 128,-1,12
 161 -93 161 -93 161 -75 c 0,13,14
 161 -61 161 -61 162.305175781 -9.0498046875 c 0,15,16
 164 33 164 33 163.610351562 35.599609375 c 0,17,18
 164 51 164 51 158.959960938 53.599609375 c 0,19,20
 123 68 123 68 97.115234375 95 c 0,21,22
 72 122 72 122 56.1953125 158 c 0,23,24
 41 194 41 194 33.875 236.75 c 0,25,26
 27 279 27 279 26.900390625 323.599609375 c 0,27,28
 27 373 27 373 34.8046875 424.849609375 c 0,29,30
 43 477 43 477 62.240234375 519.349609375 c 0,31,32
 82 562 82 562 114.3203125 589.099609375 c 0,33,34
 147 616 147 616 196.16015625 616.099609375 c 256,35,36
 245 616 245 616 277.53515625 592.25 c 0,37,38
 310 568 310 568 328.684570312 528.349609375 c 0,39,40
 348 488 348 488 355.655273438 437 c 0,41,42
 364 386 364 386 363.559570312 331.700195312 c 0,43,44
 364 285 364 285 357.049804688 241.25 c 0,45,46
 351 198 351 198 335.66015625 161.150390625 c 0,47,48
 321 125 321 125 297.530273438 97.7001953125 c 0,49,50
 277 73 277 73 241.73046875 55.400390625 c 0,0,1
92 509.900390625 m 0,51,52
 97 520 97 520 106.879882812 535.549804688 c 0,53,54
 117 551 117 551 128.26953125 560.299804688 c 0,55,56
 134 565 134 565 129.665039062 569.75 c 0,57,58
 125 575 125 575 123.620117188 574.700195312 c 0,59,60
 118 575 118 575 110.134765625 565.700195312 c 0,61,62
 102 557 102 557 94.3251953125 544.549804688 c 0,63,64
 86 532 86 532 80.83984375 518.900390625 c 0,65,66
 75 505 75 505 75.259765625 497.299804688 c 0,67,68
 75 490 75 490 79.91015625 490.099609375 c 0,69,70
 82 490 82 490 92 509.900390625 c 0,51,52
196.16015625 105.799804688 m 0,71,72
 219 106 219 106 233.825195312 130.549804688 c 0,73,74
 248 155 248 155 256.14453125 190.849609375 c 0,75,76
 264 226 264 226 266.83984375 265.549804688 c 0,77,78
 268.271659905 283.424055995 268.271659905 283.424055995 269.629882812 332.599609375 c 0,79,80
 270 346 270 346 268.235351562 367.700195312 c 0,81,82
 267 389 267 389 263.584960938 414.5 c 128,-1,83
 260 440 260 440 255.21484375 465.799804688 c 0,84,85
 250 492 250 492 241.73046875 513.049804688 c 0,86,87
 233 534 233 534 222.200195312 547.25 c 0,88,89
 211 560 211 560 196.16015625 560.299804688 c 256,90,91
 181 560 181 560 170.120117188 546.799804688 c 0,92,93
 159 533 159 533 151.0546875 511.700195312 c 0,94,95
 143 490 143 490 138.03515625 464 c 128,-1,96
 133 438 133 438 130.129882812 412.700195312 c 0,97,98
 127 387 127 387 126.41015625 365.900390625 c 0,99,100
 125 344 125 344 125.48046875 331.700195312 c 0,101,102
 125 304 125 304 128.26953125 264.650390625 c 0,103,104
 131 225 131 225 138.96484375 190.400390625 c 0,105,106
 147 155 147 155 160.35546875 130.549804688 c 0,107,108
 174 106 174 106 196.16015625 105.799804688 c 0,71,72
78.98046875 470.299804688 m 0,109,110
 79 479 79 479 77.1201171875 481.549804688 c 0,111,112
 75 484 75 484 70.6103515625 483.799804688 c 256,113,114
 66 484 66 484 63.634765625 478.849609375 c 0,115,116
 61 474 61 474 61.3095703125 468.5 c 0,117,118
 61 461 61 461 64.5654296875 458.599609375 c 128,-1,119
 68 456 68 456 70.6103515625 455.900390625 c 0,120,121
 72 456 72 456 75.724609375 459.5 c 0,122,123
 79 463 79 463 78.98046875 470.299804688 c 0,109,110
208 -97 m 0,124,125
 208 -91 208 -91 205 -87.5 c 128,-1,126
 202 -84 202 -84 198.5 -81 c 128,-1,127
 195 -78 195 -78 192 -75.5 c 128,-1,128
 189 -73 189 -73 189 -68 c 0,129,130
 189 -50 189 -50 180 -50 c 0,131,132
 175 -50 175 -50 175 -70 c 0,133,134
 175 -80 175 -80 180.5 -94.5 c 128,-1,135
 186 -109 186 -109 197 -109 c 0,136,137
 201 -109 201 -109 204.5 -106.5 c 128,-1,138
 208 -104 208 -104 208 -97 c 0,124,125
EndSplineSet
EndChar

StartChar: r
Encoding: 114 114 87
Width: 418
GlyphClass: 2
Flags: W
LayerCount: 2
Fore
SplineSet
291 564 m 1,0,-1
 324 580 l 1,1,2
 335 554 335 554 339.5 528 c 128,-1,3
 344 502 344 502 344 469 c 0,4,5
 344 413 344 413 321 372.5 c 128,-1,6
 298 332 298 332 256.5 302.5 c 128,-1,7
 215 273 215 273 160 251 c 1,8,-1
 162 261 l 1,9,10
 191 227 191 227 227 190 c 128,-1,11
 263 153 263 153 303.5 116 c 128,-1,12
 344 79 344 79 386 43 c 1,13,-1
 327 -12 l 1,14,15
 246 61 246 61 188 122 c 128,-1,16
 130 183 130 183 90 240 c 0,17,18
 64 276 64 276 53.5 302.5 c 128,-1,19
 43 329 43 329 43 351 c 0,20,21
 43 375 43 375 57.5 389 c 128,-1,22
 72 403 72 403 97 403 c 0,23,24
 125 403 125 403 150.5 384 c 128,-1,25
 176 365 176 365 202 331 c 1,26,-1
 151 343 l 1,27,28
 209 362 209 362 235.5 396.5 c 128,-1,29
 262 431 262 431 262 479 c 0,30,31
 262 509 262 509 254.5 538 c 128,-1,32
 247 567 247 567 236 579 c 1,33,-1
 282 564 l 1,34,-1
 34 564 l 1,35,-1
 34 637 l 1,36,-1
 376 637 l 1,37,-1
 376 564 l 1,38,-1
 291 564 l 1,0,-1
EndSplineSet
EndChar

StartChar: s
Encoding: 115 115 88
Width: 692
GlyphClass: 2
Flags: W
LayerCount: 2
Fore
SplineSet
294 -14 m 1,0,1
 217 62 217 62 158 134.5 c 128,-1,2
 99 207 99 207 72 257 c 0,3,4
 58 284 58 284 50.5 306.5 c 128,-1,5
 43 329 43 329 43 348 c 0,6,7
 43 375 43 375 58 389 c 128,-1,8
 73 403 73 403 98 403 c 0,9,10
 125 403 125 403 150 384.5 c 128,-1,11
 175 366 175 366 200 334 c 1,12,-1
 152 339 l 1,13,14
 198 353 198 353 214.5 391 c 128,-1,15
 231 429 231 429 231 471 c 0,16,17
 231 507 231 507 223.5 534.5 c 128,-1,18
 216 562 216 562 207 578 c 1,19,-1
 249 564 l 1,20,-1
 37 564 l 1,21,-1
 37 637 l 1,22,-1
 427 637 l 1,23,-1
 427 564 l 1,24,-1
 257 564 l 1,25,-1
 292 580 l 1,26,27
 303 555 303 555 308.5 526 c 128,-1,28
 314 497 314 497 314 461 c 0,29,30
 314 420 314 420 302.5 385.5 c 128,-1,31
 291 351 291 351 267 325 c 1,32,-1
 263 317 l 1,33,34
 245 295 245 295 218 279 c 128,-1,35
 191 263 191 263 151 249 c 1,36,-1
 148 260 l 1,37,38
 174 225 174 225 206 190 c 128,-1,39
 238 155 238 155 275.5 118 c 128,-1,40
 313 81 313 81 356 41 c 1,41,-1
 294 -14 l 1,0,1
410 250 m 256,42,43
 368 250 368 250 319.5 259.5 c 128,-1,44
 271 269 271 269 226 294 c 1,45,-1
 254 355 l 1,46,47
 296 338 296 338 331.5 331 c 128,-1,48
 367 324 367 324 409 324 c 256,49,50
 451 324 451 324 489 331.5 c 128,-1,51
 527 339 527 339 566 356 c 1,52,-1
 566 279 l 1,53,54
 530 264 530 264 491 257 c 128,-1,55
 452 250 452 250 410 250 c 256,42,43
518 0 m 1,56,-1
 518 564 l 1,57,-1
 406 564 l 1,58,-1
 406 637 l 1,59,-1
 645 637 l 5,60,-1
 645 564 l 5,61,-1
 601 564 l 1,62,-1
 601 0 l 1,63,-1
 518 0 l 1,56,-1
EndSplineSet
EndChar

StartChar: t
Encoding: 116 116 89
Width: 516
GlyphClass: 2
Flags: W
LayerCount: 2
Fore
SplineSet
474 564 m 1,0,-1
 410 564 l 1,1,-1
 410 367 l 1,2,-1
 325 367 l 2,3,4
 231 367 231 367 180 333 c 128,-1,5
 129 299 129 299 129 222 c 0,6,7
 129 150 129 150 176 113 c 128,-1,8
 223 76 223 76 290 76 c 0,9,10
 338 76 338 76 377.5 91 c 128,-1,11
 417 106 417 106 461 138 c 1,12,-1
 496 72 l 1,13,14
 455 38 455 38 405 19 c 128,-1,15
 355 0 355 0 289 0 c 0,16,17
 218 0 218 0 164 27 c 128,-1,18
 110 54 110 54 78.5 104.5 c 128,-1,19
 47 155 47 155 47 223 c 0,20,21
 47 331 47 331 116 384.5 c 128,-1,22
 185 438 185 438 313 438 c 2,23,-1
 356 438 l 1,24,-1
 327 414 l 1,25,-1
 327 564 l 1,26,-1
 37 564 l 5,27,-1
 37 637 l 5,28,-1
 474 637 l 1,29,-1
 474 564 l 1,0,-1
EndSplineSet
EndChar

StartChar: u
Encoding: 117 117 90
Width: 426
VWidth: 1000
GlyphClass: 2
Flags: W
LayerCount: 2
Fore
SplineSet
329 0 m 0,0,1
 308 0 308 0 299.5 17 c 128,-1,2
 291 34 291 34 291 59 c 256,3,4
 291 84 291 84 287 84 c 0,5,6
 284 84 284 84 281 78.5 c 128,-1,7
 278 73 278 73 271 65 c 0,8,9
 264 56 264 56 254.5 44.5 c 128,-1,10
 245 33 245 33 232.5 23.5 c 128,-1,11
 220 14 220 14 204.5 7 c 128,-1,12
 189 0 189 0 170 0 c 0,13,14
 105 0 105 0 67.5 43.5 c 128,-1,15
 30 87 30 87 30 164 c 2,16,-1
 30 569 l 2,17,18
 30 592 30 592 44 604.5 c 128,-1,19
 58 617 58 617 78 617 c 0,20,21
 100 617 100 617 118.5 602.5 c 128,-1,22
 137 588 137 588 137 566 c 2,23,-1
 137 174 l 2,24,25
 137 140 137 140 150.5 118.5 c 128,-1,26
 164 97 164 97 186 97 c 0,27,28
 204 97 204 97 221 110.5 c 128,-1,29
 238 124 238 124 251.5 145 c 128,-1,30
 265 166 265 166 273 190 c 128,-1,31
 281 214 281 214 281 235 c 2,32,-1
 281 554 l 2,33,34
 281 617 281 617 328 617 c 0,35,36
 351 617 351 617 369 601 c 128,-1,37
 387 585 387 585 387 542 c 2,38,-1
 387 75 l 2,39,40
 387 51 387 51 382 36.5 c 128,-1,41
 377 22 377 22 369 13.5 c 128,-1,42
 361 5 361 5 350.5 2.5 c 128,-1,43
 340 0 340 0 329 0 c 0,0,1
316 588 m 256,44,45
 324 596 324 596 321.5 600.5 c 128,-1,46
 319 605 319 605 313 605 c 0,47,48
 305 605 305 605 298 591.5 c 128,-1,49
 291 578 291 578 291 567 c 0,50,51
 291 560 291 560 293 558.5 c 128,-1,52
 295 557 295 557 298 557 c 0,53,54
 302 557 302 557 305 568.5 c 128,-1,55
 308 580 308 580 316 588 c 256,44,45
70 597 m 0,56,57
 70 604 70 604 66 604 c 0,58,59
 61 604 61 604 51 591.5 c 128,-1,60
 41 579 41 579 41 568 c 0,61,62
 41 558 41 558 46 558 c 0,63,64
 49 558 49 558 53 563 c 128,-1,65
 57 568 57 568 61 575 c 128,-1,66
 65 582 65 582 67.5 588 c 128,-1,67
 70 594 70 594 70 597 c 0,56,57
112 52 m 0,68,69
 112 57 112 57 108 60.5 c 128,-1,70
 104 64 104 64 98.5 68 c 128,-1,71
 93 72 93 72 87.5 77.5 c 128,-1,72
 82 83 82 83 79 92 c 0,73,74
 75 103 75 103 72.5 109.5 c 128,-1,75
 70 116 70 116 66 116 c 0,76,77
 58 116 58 116 58 103 c 0,78,79
 58 96 58 96 63 85 c 128,-1,80
 68 74 68 74 75.5 64 c 128,-1,81
 83 54 83 54 90.5 47 c 128,-1,82
 98 40 98 40 104 40 c 0,83,84
 112 40 112 40 112 52 c 0,68,69
317 52 m 0,85,86
 316 62 316 62 316 69 c 128,-1,87
 316 76 316 76 312 76 c 256,88,89
 308 76 308 76 306.5 69.5 c 128,-1,90
 305 63 305 63 305 55 c 0,91,92
 305 42 305 42 311 27 c 128,-1,93
 317 12 317 12 324 12 c 0,94,95
 326 12 326 12 325.5 15.5 c 128,-1,96
 325 19 325 19 323 25 c 128,-1,97
 321 31 321 31 319 38 c 128,-1,98
 317 45 317 45 317 52 c 0,85,86
EndSplineSet
EndChar

StartChar: v
Encoding: 118 118 91
Width: 569
GlyphClass: 2
Flags: W
LayerCount: 2
Fore
SplineSet
535 564 m 5,0,-1
 478 564 l 1,1,-1
 478 0 l 1,2,-1
 396 0 l 1,3,-1
 396 203 l 1,4,-1
 424 186 l 1,5,6
 393 152 393 152 348 135 c 128,-1,7
 303 118 303 118 247 118 c 256,8,9
 191 118 191 118 145.5 139 c 128,-1,10
 100 160 100 160 73.5 200 c 128,-1,11
 47 240 47 240 47 296 c 0,12,13
 47 387 47 387 106.5 431 c 128,-1,14
 166 475 166 475 259 475 c 0,15,16
 288 475 288 475 313 472 c 128,-1,17
 338 469 338 469 359 464 c 1,18,-1
 354 390 l 1,19,20
 332 395 332 395 310.5 397.5 c 128,-1,21
 289 400 289 400 262 400 c 0,22,23
 205 400 205 400 167.5 373 c 128,-1,24
 130 346 130 346 130 294 c 0,25,26
 130 248 130 248 159.5 219.5 c 128,-1,27
 189 191 189 191 247 191 c 0,28,29
 297 191 297 191 338.5 214.5 c 128,-1,30
 380 238 380 238 407 275 c 1,31,-1
 396 225 l 1,32,-1
 396 564 l 1,33,-1
 56 564 l 1,34,-1
 56 637 l 1,35,-1
 535 637 l 5,36,-1
 535 564 l 5,0,-1
EndSplineSet
EndChar

StartChar: w
Encoding: 119 119 92
Width: 608
VWidth: 1000
GlyphClass: 2
Flags: W
LayerCount: 2
Fore
SplineSet
190 -2 m 4,0,1
 155 -2 155 -2 132.5 5 c 132,-1,2
 110 12 110 12 101 29 c 4,3,4
 95 39 95 39 87 77.5 c 132,-1,5
 79 116 79 116 70 169.5 c 132,-1,6
 61 223 61 223 52 284.5 c 132,-1,7
 43 346 43 346 36 402.5 c 132,-1,8
 29 459 29 459 24.5 503.5 c 132,-1,9
 20 548 20 548 20 567 c 4,10,11
 20 588 20 588 34 603 c 132,-1,12
 48 618 48 618 69 618 c 260,13,14
 90 618 90 618 107.5 608 c 132,-1,15
 125 598 125 598 130 569 c 4,16,17
 132 560 132 560 135.5 520.5 c 132,-1,18
 139 481 139 481 144 428 c 132,-1,19
 149 375 149 375 155 315.5 c 132,-1,20
 161 256 161 256 167 206.5 c 132,-1,21
 173 157 173 157 178.5 124 c 132,-1,22
 184 91 184 91 188 91 c 4,23,24
 189 91 189 91 194 125 c 132,-1,25
 199 159 199 159 206.5 210.5 c 132,-1,26
 214 262 214 262 222 323 c 132,-1,27
 230 384 230 384 237.5 438.5 c 132,-1,28
 245 493 245 493 251 533 c 132,-1,29
 257 573 257 573 259 582 c 4,30,31
 264 605 264 605 275.5 611.5 c 132,-1,32
 287 618 287 618 307 618 c 4,33,34
 328 618 328 618 346 608 c 132,-1,35
 364 598 364 598 369 569 c 4,36,37
 370 562 370 562 372.5 537.5 c 132,-1,38
 375 513 375 513 378 478 c 132,-1,39
 381 443 381 443 384.5 400.5 c 132,-1,40
 388 358 388 358 392 314.5 c 132,-1,41
 396 271 396 271 400 230 c 132,-1,42
 404 189 404 189 408 157.5 c 132,-1,43
 412 126 412 126 416 107 c 132,-1,44
 420 88 420 88 423 88 c 4,45,46
 424 88 424 88 429 122 c 132,-1,47
 434 156 434 156 441.5 208 c 132,-1,48
 449 260 449 260 457 321.5 c 132,-1,49
 465 383 465 383 472.5 438 c 132,-1,50
 480 493 480 493 486 533 c 132,-1,51
 492 573 492 573 494 582 c 4,52,53
 498 599 498 599 506.5 608 c 132,-1,54
 515 617 515 617 525 617 c 4,55,56
 531 617 531 617 540.5 615 c 132,-1,57
 550 613 550 613 558.5 609 c 132,-1,58
 567 605 567 605 573.5 599 c 132,-1,59
 580 593 580 593 580 585 c 4,60,61
 580 579 580 579 575.5 541 c 132,-1,62
 571 503 571 503 563.5 449 c 132,-1,63
 556 395 556 395 546.5 331 c 132,-1,64
 537 267 537 267 527.5 208.5 c 132,-1,65
 518 150 518 150 509.5 104.5 c 132,-1,66
 501 59 501 59 495 40 c 4,67,68
 491 27 491 27 482 19 c 132,-1,69
 473 11 473 11 463 6.5 c 132,-1,70
 453 2 453 2 442.5 0 c 132,-1,71
 432 -2 432 -2 425 -2 c 4,72,73
 390 -2 390 -2 368 5 c 132,-1,74
 346 12 346 12 336 29 c 4,75,76
 334 33 334 33 330.5 54.5 c 132,-1,77
 327 76 327 76 323.5 105 c 132,-1,78
 320 134 320 134 316 167 c 132,-1,79
 312 200 312 200 308.5 228 c 132,-1,80
 305 256 305 256 302.5 274.5 c 132,-1,81
 300 293 300 293 298 293 c 260,82,83
 296 293 296 293 292.5 276 c 132,-1,84
 289 259 289 259 285 233.5 c 132,-1,85
 281 208 281 208 277.5 177 c 132,-1,86
 274 146 274 146 270.5 117.5 c 132,-1,87
 267 89 267 89 263.5 68 c 132,-1,88
 260 47 260 47 258 40 c 4,89,90
 254 27 254 27 245.5 19 c 132,-1,91
 237 11 237 11 227 6.5 c 132,-1,92
 217 2 217 2 207 0 c 132,-1,93
 197 -2 197 -2 190 -2 c 4,0,1
521 584 m 4,94,95
 521 597 521 597 517 597 c 4,96,97
 512 597 512 597 508.5 586 c 132,-1,98
 505 575 505 575 505 564 c 4,99,100
 505 559 505 559 506 554 c 132,-1,101
 507 549 507 549 509 549 c 260,102,103
 511 549 511 549 513.5 553.5 c 132,-1,104
 516 558 516 558 517.5 564 c 132,-1,105
 519 570 519 570 520 576 c 132,-1,106
 521 582 521 582 521 584 c 4,94,95
286 584 m 4,107,108
 286 597 286 597 282 597 c 4,109,110
 277 597 277 597 273.5 586 c 132,-1,111
 270 575 270 575 270 564 c 4,112,113
 270 559 270 559 271 554 c 132,-1,114
 272 549 272 549 274 549 c 260,115,116
 276 549 276 549 278.5 553.5 c 132,-1,117
 281 558 281 558 282.5 564 c 132,-1,118
 284 570 284 570 285 576 c 132,-1,119
 286 582 286 582 286 584 c 4,107,108
52 579 m 4,120,121
 57 587 57 587 54.5 591.5 c 132,-1,122
 52 596 52 596 48 596 c 4,123,124
 42 596 42 596 37.5 580.5 c 132,-1,125
 33 565 33 565 33 545 c 4,126,127
 33 522 33 522 38 522 c 4,128,129
 41 522 41 522 42 529.5 c 132,-1,130
 43 537 43 537 44.5 546.5 c 132,-1,131
 46 556 46 556 47.5 565.5 c 132,-1,132
 49 575 49 575 52 579 c 4,120,121
363 40 m 4,133,134
 356 52 356 52 352.5 67.5 c 132,-1,135
 349 83 349 83 343 83 c 4,136,137
 340 83 340 83 339.5 78.5 c 132,-1,138
 339 74 339 74 339 71 c 260,139,140
 339 68 339 68 340.5 60 c 132,-1,141
 342 52 342 52 345 44 c 132,-1,142
 348 36 348 36 351.5 29.5 c 132,-1,143
 355 23 355 23 359 23 c 4,144,145
 364 23 364 23 366 27.5 c 132,-1,146
 368 32 368 32 363 40 c 4,133,134
128 40 m 4,147,148
 121 52 121 52 117.5 67.5 c 132,-1,149
 114 83 114 83 108 83 c 4,150,151
 105 83 105 83 104.5 78.5 c 132,-1,152
 104 74 104 74 104 71 c 260,153,154
 104 68 104 68 105.5 60 c 132,-1,155
 107 52 107 52 110 44 c 132,-1,156
 113 36 113 36 116.5 29.5 c 132,-1,157
 120 23 120 23 124 23 c 4,158,159
 129 23 129 23 131 27.5 c 132,-1,160
 133 32 133 32 128 40 c 4,147,148
EndSplineSet
EndChar

StartChar: x
Encoding: 120 120 93
Width: 456
VWidth: 1000
GlyphClass: 2
Flags: W
LayerCount: 2
Fore
SplineSet
54 -3 m 0,0,1
 39 -3 39 -3 27.5 7.5 c 128,-1,2
 16 18 16 18 16 29 c 0,3,4
 16 36 16 36 20 43 c 2,5,-1
 142 282 l 2,6,7
 158 312 158 312 158 321 c 0,8,9
 158 327 158 327 154 335.5 c 128,-1,10
 150 344 150 344 145 352 c 2,11,-1
 40 526 l 2,12,13
 35 535 35 535 30.5 547 c 128,-1,14
 26 559 26 559 26 574 c 0,15,16
 26 588 26 588 40.5 602 c 128,-1,17
 55 616 55 616 82 616 c 0,18,19
 88 616 88 616 93.5 614 c 128,-1,20
 99 612 99 612 105 606 c 128,-1,21
 111 600 111 600 118 589.5 c 128,-1,22
 125 579 125 579 135 562 c 2,23,-1
 206 439 l 2,24,25
 212 429 212 429 215.5 423 c 128,-1,26
 219 417 219 417 221 417 c 256,27,28
 223 417 223 417 225 422.5 c 128,-1,29
 227 428 227 428 235 439 c 2,30,-1
 337 602 l 2,31,32
 342 610 342 610 348.5 613 c 128,-1,33
 355 616 355 616 362 616 c 256,34,35
 369 616 369 616 381 613 c 128,-1,36
 393 610 393 610 403 603 c 128,-1,37
 413 596 413 596 417.5 586 c 128,-1,38
 422 576 422 576 413 561 c 2,39,-1
 293 370 l 2,40,41
 284 355 284 355 280.5 346 c 128,-1,42
 277 337 277 337 277 333 c 256,43,44
 277 329 277 329 283.5 318.5 c 128,-1,45
 290 308 290 308 304 282 c 2,46,-1
 434 43 l 2,47,48
 436 39 436 39 432 31.5 c 128,-1,49
 428 24 428 24 419.5 17 c 128,-1,50
 411 10 411 10 398 5 c 128,-1,51
 385 0 385 0 370 0 c 0,52,53
 365 0 365 0 357.5 2 c 128,-1,54
 350 4 350 4 346 11 c 2,55,-1
 239 201 l 2,56,57
 234 210 234 210 229.5 217.5 c 128,-1,58
 225 225 225 225 221 225 c 256,59,60
 217 225 217 225 213 219 c 128,-1,61
 209 213 209 213 201 198 c 2,62,-1
 112 34 l 2,63,64
 101 13 101 13 86 5 c 128,-1,65
 71 -3 71 -3 54 -3 c 0,0,1
349 568 m 0,66,67
 349 577 349 577 364 590 c 0,68,69
 378 604 378 604 370 604 c 0,70,71
 364 604 364 604 355.5 601 c 128,-1,72
 347 598 347 598 341 587 c 0,73,74
 333 573 333 573 334.5 567.5 c 128,-1,75
 336 562 336 562 341 562 c 0,76,77
 349 562 349 562 349 568 c 0,66,67
57 563 m 0,78,79
 57 575 57 575 62.5 579.5 c 128,-1,80
 68 584 68 584 67 588 c 0,81,82
 65 596 65 596 58 596 c 0,83,84
 54 596 54 596 50 590.5 c 128,-1,85
 46 585 46 585 44 577 c 128,-1,86
 42 569 42 569 42.5 560 c 128,-1,87
 43 551 43 551 47 544 c 0,88,89
 51 538 51 538 55 539 c 0,90,91
 60 541 60 541 58.5 549.5 c 128,-1,92
 57 558 57 558 57 563 c 0,78,79
377 13 m 0,93,94
 380 18 380 18 366 27 c 0,95,96
 363 29 363 29 359 34.5 c 128,-1,97
 355 40 355 40 352 46 c 128,-1,98
 349 52 349 52 346 57 c 128,-1,99
 343 62 343 62 341 62 c 0,100,101
 336 62 336 62 336 56 c 0,102,103
 336 52 336 52 338.5 45 c 128,-1,104
 341 38 341 38 345.5 30.5 c 128,-1,105
 350 23 350 23 355.5 17 c 128,-1,106
 361 11 361 11 367 10 c 0,107,108
 370 10 370 10 373.5 10 c 128,-1,109
 377 10 377 10 377 13 c 0,93,94
62 19 m 0,110,111
 59 22 59 22 51.5 29 c 128,-1,112
 44 36 44 36 46 41 c 0,113,114
 49 49 49 49 44.5 49 c 128,-1,115
 40 49 40 49 34 43 c 0,116,117
 27 35 27 35 33 24.5 c 128,-1,118
 39 14 39 14 49 12 c 0,119,120
 57 10 57 10 62 11 c 128,-1,121
 67 12 67 12 62 19 c 0,110,111
EndSplineSet
EndChar

StartChar: y
Encoding: 121 121 94
Width: 593
GlyphClass: 2
Flags: W
LayerCount: 2
Fore
SplineSet
558 637 m 1,0,-1
 558 564 l 1,1,-1
 503 564 l 1,2,-1
 503 0 l 1,3,-1
 420 0 l 1,4,-1
 420 221 l 1,5,-1
 443 196 l 1,6,7
 413 170 413 170 374 152.5 c 128,-1,8
 335 135 335 135 276 135 c 0,9,10
 177 135 177 135 118.5 192.5 c 128,-1,11
 60 250 60 250 34 367 c 1,12,13
 113 381 113 381 147.5 405 c 128,-1,14
 182 429 182 429 182 470 c 0,15,16
 182 503 182 503 164.5 531.5 c 128,-1,17
 147 560 147 560 119 580 c 1,18,-1
 163 564 l 1,19,-1
 45 564 l 1,20,-1
 45 637 l 1,21,-1
 558 637 l 1,0,-1
179 564 m 1,22,-1
 208 586 l 1,23,24
 237 557 237 557 250.5 525.5 c 128,-1,25
 264 494 264 494 264 461 c 0,26,27
 264 407 264 407 233.5 371.5 c 128,-1,28
 203 336 203 336 136 314 c 1,29,30
 154 261 154 261 186.5 234.5 c 128,-1,31
 219 208 219 208 275 208 c 0,32,33
 329 208 329 208 368.5 235 c 128,-1,34
 408 262 408 262 435 297 c 1,35,-1
 420 245 l 1,36,-1
 420 564 l 1,37,-1
 179 564 l 1,22,-1
EndSplineSet
EndChar

StartChar: z
Encoding: 122 122 95
Width: 759
GlyphClass: 2
Flags: W
LayerCount: 2
Fore
SplineSet
669 564 m 1,0,-1
 669 0 l 1,1,-1
 586 0 l 1,2,-1
 586 379 l 1,3,-1
 445 379 l 2,4,5
 418 379 418 379 402.5 380 c 128,-1,6
 387 381 387 381 378 384 c 1,7,-1
 371 394 l 1,8,9
 414 364 414 364 441.5 319 c 128,-1,10
 469 274 469 274 469 223 c 0,11,12
 469 176 469 176 448 144.5 c 128,-1,13
 427 113 427 113 392.5 97.5 c 128,-1,14
 358 82 358 82 317 82 c 256,15,16
 276 82 276 82 239 99.5 c 128,-1,17
 202 117 202 117 166.5 155.5 c 128,-1,18
 131 194 131 194 98 256.5 c 128,-1,19
 65 319 65 319 32 411 c 1,20,-1
 104 436 l 1,21,22
 136 345 136 345 169 282.5 c 128,-1,23
 202 220 202 220 237.5 188.5 c 128,-1,24
 273 157 273 157 313 157 c 0,25,26
 346 157 346 157 367 174 c 128,-1,27
 388 191 388 191 388 232 c 0,28,29
 388 277 388 277 357 317 c 128,-1,30
 326 357 326 357 280 386 c 1,31,-1
 309 452 l 1,32,-1
 586 452 l 1,33,-1
 586 564 l 1,34,-1
 84 564 l 5,35,-1
 84 637 l 5,36,-1
 720 637 l 1,37,-1
 720 564 l 1,38,-1
 669 564 l 1,0,-1
EndSplineSet
EndChar

StartChar: uni0090
Encoding: 144 144 112
Width: 491
Flags: W
LayerCount: 2
Fore
SplineSet
41 87 m 0,0,1
 41 105 41 105 57 120.5 c 128,-1,2
 73 136 73 136 101.5 148 c 128,-1,3
 130 160 130 160 168.5 166.5 c 128,-1,4
 207 173 207 173 251 173 c 0,5,6
 296 173 296 173 334.5 166.5 c 128,-1,7
 373 160 373 160 401 148 c 128,-1,8
 429 136 429 136 445.5 120.5 c 128,-1,9
 462 105 462 105 462 87 c 0,10,11
 462 70 462 70 445.5 54.5 c 128,-1,12
 429 39 429 39 401 27.5 c 128,-1,13
 373 16 373 16 334.5 9.5 c 128,-1,14
 296 3 296 3 251 3 c 0,15,16
 207 3 207 3 168.5 9.5 c 128,-1,17
 130 16 130 16 101.5 27.5 c 128,-1,18
 73 39 73 39 57 54.5 c 128,-1,19
 41 70 41 70 41 87 c 0,0,1
123 87 m 256,20,21
 123 76 123 76 132.5 66 c 128,-1,22
 142 56 142 56 159.5 49.5 c 128,-1,23
 177 43 177 43 200.5 39 c 128,-1,24
 224 35 224 35 251 35 c 0,25,26
 279 35 279 35 302 39 c 128,-1,27
 325 43 325 43 342 49.5 c 128,-1,28
 359 56 359 56 369 66 c 128,-1,29
 379 76 379 76 379 87 c 256,30,31
 379 98 379 98 369 108 c 128,-1,32
 359 118 359 118 342 125 c 128,-1,33
 325 132 325 132 302 136 c 128,-1,34
 279 140 279 140 251 140 c 0,35,36
 224 140 224 140 200.5 136 c 128,-1,37
 177 132 177 132 159.5 125 c 128,-1,38
 142 118 142 118 132.5 108 c 128,-1,39
 123 98 123 98 123 87 c 256,20,21
41 279 m 0,40,41
 41 297 41 297 57 312.5 c 128,-1,42
 73 328 73 328 101.5 339.5 c 128,-1,43
 130 351 130 351 168.5 357.5 c 128,-1,44
 207 364 207 364 251 364 c 0,45,46
 296 364 296 364 334.5 357.5 c 128,-1,47
 373 351 373 351 401 339.5 c 128,-1,48
 429 328 429 328 445.5 312.5 c 128,-1,49
 462 297 462 297 462 279 c 0,50,51
 462 262 462 262 445.5 246 c 128,-1,52
 429 230 429 230 401 219 c 128,-1,53
 373 208 373 208 334.5 201 c 128,-1,54
 296 194 296 194 251 194 c 0,55,56
 207 194 207 194 168.5 201 c 128,-1,57
 130 208 130 208 101.5 219 c 128,-1,58
 73 230 73 230 57 246 c 128,-1,59
 41 262 41 262 41 279 c 0,40,41
123 279 m 256,60,61
 123 268 123 268 132.5 258 c 128,-1,62
 142 248 142 248 159.5 240.5 c 128,-1,63
 177 233 177 233 200.5 229 c 128,-1,64
 224 225 224 225 251 225 c 0,65,66
 279 225 279 225 302 229 c 128,-1,67
 325 233 325 233 342 240.5 c 128,-1,68
 359 248 359 248 369 257.5 c 128,-1,69
 379 267 379 267 379 279 c 256,70,71
 379 290 379 290 369 299.5 c 128,-1,72
 359 309 359 309 342 316.5 c 128,-1,73
 325 324 325 324 302 328 c 128,-1,74
 279 332 279 332 251 332 c 0,75,76
 224 332 224 332 200.5 328 c 128,-1,77
 177 324 177 324 159.5 316.5 c 128,-1,78
 142 309 142 309 132.5 299.5 c 128,-1,79
 123 290 123 290 123 279 c 256,60,61
41 472 m 256,80,81
 41 489 41 489 57 505 c 128,-1,82
 73 521 73 521 101.5 532.5 c 128,-1,83
 130 544 130 544 168.5 550.5 c 128,-1,84
 207 557 207 557 251 557 c 0,85,86
 296 557 296 557 334.5 550.5 c 128,-1,87
 373 544 373 544 401 532.5 c 128,-1,88
 429 521 429 521 445.5 505 c 128,-1,89
 462 489 462 489 462 472 c 256,90,91
 462 455 462 455 445.5 439.5 c 128,-1,92
 429 424 429 424 401 412 c 128,-1,93
 373 400 373 400 334.5 393.5 c 128,-1,94
 296 387 296 387 251 387 c 0,95,96
 207 387 207 387 168.5 393.5 c 128,-1,97
 130 400 130 400 101.5 412 c 128,-1,98
 73 424 73 424 57 439.5 c 128,-1,99
 41 455 41 455 41 472 c 256,80,81
123 472 m 256,100,101
 123 461 123 461 132.5 451 c 128,-1,102
 142 441 142 441 159.5 434 c 128,-1,103
 177 427 177 427 200.5 423 c 128,-1,104
 224 419 224 419 251 419 c 0,105,106
 279 419 279 419 302 423 c 128,-1,107
 325 427 325 427 342 434 c 128,-1,108
 359 441 359 441 369 451 c 128,-1,109
 379 461 379 461 379 472 c 256,110,111
 379 483 379 483 369 493 c 128,-1,112
 359 503 359 503 342 510 c 128,-1,113
 325 517 325 517 302 521 c 128,-1,114
 279 525 279 525 251 525 c 0,115,116
 224 525 224 525 200.5 521 c 128,-1,117
 177 517 177 517 159.5 510 c 128,-1,118
 142 503 142 503 132.5 493 c 128,-1,119
 123 483 123 483 123 472 c 256,100,101
41 664 m 256,120,121
 41 681 41 681 57 697 c 128,-1,122
 73 713 73 713 101.5 724 c 128,-1,123
 130 735 130 735 168.5 742 c 128,-1,124
 207 749 207 749 251 749 c 0,125,126
 296 749 296 749 334.5 742 c 128,-1,127
 373 735 373 735 401 724 c 128,-1,128
 429 713 429 713 445.5 697 c 128,-1,129
 462 681 462 681 462 664 c 256,130,131
 462 647 462 647 445.5 631 c 128,-1,132
 429 615 429 615 401 603.5 c 128,-1,133
 373 592 373 592 334.5 585.5 c 128,-1,134
 296 579 296 579 251 579 c 0,135,136
 207 579 207 579 168.5 585.5 c 128,-1,137
 130 592 130 592 101.5 603.5 c 128,-1,138
 73 615 73 615 57 631 c 128,-1,139
 41 647 41 647 41 664 c 256,120,121
123 664 m 0,140,141
 123 653 123 653 132.5 643 c 128,-1,142
 142 633 142 633 159.5 625.5 c 128,-1,143
 177 618 177 618 200.5 614 c 128,-1,144
 224 610 224 610 251 610 c 0,145,146
 279 610 279 610 302 614 c 128,-1,147
 325 618 325 618 342 625.5 c 128,-1,148
 359 633 359 633 369 642.5 c 128,-1,149
 379 652 379 652 379 664 c 0,150,151
 379 674 379 674 369 684 c 128,-1,152
 359 694 359 694 342 701.5 c 128,-1,153
 325 709 325 709 302 713 c 128,-1,154
 279 717 279 717 251 717 c 0,155,156
 224 717 224 717 200.5 713 c 128,-1,157
 177 709 177 709 159.5 701.5 c 128,-1,158
 142 694 142 694 132.5 684 c 128,-1,159
 123 674 123 674 123 664 c 0,140,141
EndSplineSet
Validated: 1
EndChar

StartChar: uni0091
Encoding: 145 145 113
Width: 491
Flags: W
LayerCount: 2
Fore
SplineSet
41 87 m 0,0,1
 41 105 41 105 57 120.5 c 128,-1,2
 73 136 73 136 101.5 148 c 128,-1,3
 130 160 130 160 168.5 166.5 c 128,-1,4
 207 173 207 173 251 173 c 0,5,6
 296 173 296 173 334.5 166.5 c 128,-1,7
 373 160 373 160 401 148 c 128,-1,8
 429 136 429 136 445.5 120.5 c 128,-1,9
 462 105 462 105 462 87 c 0,10,11
 462 70 462 70 445.5 54.5 c 128,-1,12
 429 39 429 39 401 27.5 c 128,-1,13
 373 16 373 16 334.5 9.5 c 128,-1,14
 296 3 296 3 251 3 c 0,15,16
 207 3 207 3 168.5 9.5 c 128,-1,17
 130 16 130 16 101.5 27.5 c 128,-1,18
 73 39 73 39 57 54.5 c 128,-1,19
 41 70 41 70 41 87 c 0,0,1
41 279 m 0,20,21
 41 297 41 297 57 312.5 c 128,-1,22
 73 328 73 328 101.5 339.5 c 128,-1,23
 130 351 130 351 168.5 357.5 c 128,-1,24
 207 364 207 364 251 364 c 0,25,26
 296 364 296 364 334.5 357.5 c 128,-1,27
 373 351 373 351 401 339.5 c 128,-1,28
 429 328 429 328 445.5 312.5 c 128,-1,29
 462 297 462 297 462 279 c 0,30,31
 462 262 462 262 445.5 246 c 128,-1,32
 429 230 429 230 401 219 c 128,-1,33
 373 208 373 208 334.5 201 c 128,-1,34
 296 194 296 194 251 194 c 0,35,36
 207 194 207 194 168.5 201 c 128,-1,37
 130 208 130 208 101.5 219 c 128,-1,38
 73 230 73 230 57 246 c 128,-1,39
 41 262 41 262 41 279 c 0,20,21
123 279 m 256,40,41
 123 268 123 268 132.5 258 c 128,-1,42
 142 248 142 248 159.5 240.5 c 128,-1,43
 177 233 177 233 200.5 229 c 128,-1,44
 224 225 224 225 251 225 c 0,45,46
 279 225 279 225 302 229 c 128,-1,47
 325 233 325 233 342 240.5 c 128,-1,48
 359 248 359 248 369 257.5 c 128,-1,49
 379 267 379 267 379 279 c 256,50,51
 379 290 379 290 369 299.5 c 128,-1,52
 359 309 359 309 342 316.5 c 128,-1,53
 325 324 325 324 302 328 c 128,-1,54
 279 332 279 332 251 332 c 0,55,56
 224 332 224 332 200.5 328 c 128,-1,57
 177 324 177 324 159.5 316.5 c 128,-1,58
 142 309 142 309 132.5 299.5 c 128,-1,59
 123 290 123 290 123 279 c 256,40,41
41 472 m 256,60,61
 41 489 41 489 57 505 c 128,-1,62
 73 521 73 521 101.5 532.5 c 128,-1,63
 130 544 130 544 168.5 550.5 c 128,-1,64
 207 557 207 557 251 557 c 0,65,66
 296 557 296 557 334.5 550.5 c 128,-1,67
 373 544 373 544 401 532.5 c 128,-1,68
 429 521 429 521 445.5 505 c 128,-1,69
 462 489 462 489 462 472 c 256,70,71
 462 455 462 455 445.5 439.5 c 128,-1,72
 429 424 429 424 401 412 c 128,-1,73
 373 400 373 400 334.5 393.5 c 128,-1,74
 296 387 296 387 251 387 c 0,75,76
 207 387 207 387 168.5 393.5 c 128,-1,77
 130 400 130 400 101.5 412 c 128,-1,78
 73 424 73 424 57 439.5 c 128,-1,79
 41 455 41 455 41 472 c 256,60,61
123 472 m 256,80,81
 123 461 123 461 132.5 451 c 128,-1,82
 142 441 142 441 159.5 434 c 128,-1,83
 177 427 177 427 200.5 423 c 128,-1,84
 224 419 224 419 251 419 c 0,85,86
 279 419 279 419 302 423 c 128,-1,87
 325 427 325 427 342 434 c 128,-1,88
 359 441 359 441 369 451 c 128,-1,89
 379 461 379 461 379 472 c 256,90,91
 379 483 379 483 369 493 c 128,-1,92
 359 503 359 503 342 510 c 128,-1,93
 325 517 325 517 302 521 c 128,-1,94
 279 525 279 525 251 525 c 0,95,96
 224 525 224 525 200.5 521 c 128,-1,97
 177 517 177 517 159.5 510 c 128,-1,98
 142 503 142 503 132.5 493 c 128,-1,99
 123 483 123 483 123 472 c 256,80,81
41 664 m 256,100,101
 41 681 41 681 57 697 c 128,-1,102
 73 713 73 713 101.5 724 c 128,-1,103
 130 735 130 735 168.5 742 c 128,-1,104
 207 749 207 749 251 749 c 0,105,106
 296 749 296 749 334.5 742 c 128,-1,107
 373 735 373 735 401 724 c 128,-1,108
 429 713 429 713 445.5 697 c 128,-1,109
 462 681 462 681 462 664 c 256,110,111
 462 647 462 647 445.5 631 c 128,-1,112
 429 615 429 615 401 603.5 c 128,-1,113
 373 592 373 592 334.5 585.5 c 128,-1,114
 296 579 296 579 251 579 c 0,115,116
 207 579 207 579 168.5 585.5 c 128,-1,117
 130 592 130 592 101.5 603.5 c 128,-1,118
 73 615 73 615 57 631 c 128,-1,119
 41 647 41 647 41 664 c 256,100,101
123 664 m 0,120,121
 123 653 123 653 132.5 643 c 128,-1,122
 142 633 142 633 159.5 625.5 c 128,-1,123
 177 618 177 618 200.5 614 c 128,-1,124
 224 610 224 610 251 610 c 0,125,126
 279 610 279 610 302 614 c 128,-1,127
 325 618 325 618 342 625.5 c 128,-1,128
 359 633 359 633 369 642.5 c 128,-1,129
 379 652 379 652 379 664 c 0,130,131
 379 674 379 674 369 684 c 128,-1,132
 359 694 359 694 342 701.5 c 128,-1,133
 325 709 325 709 302 713 c 128,-1,134
 279 717 279 717 251 717 c 0,135,136
 224 717 224 717 200.5 713 c 128,-1,137
 177 709 177 709 159.5 701.5 c 128,-1,138
 142 694 142 694 132.5 684 c 128,-1,139
 123 674 123 674 123 664 c 0,120,121
EndSplineSet
Validated: 1
EndChar

StartChar: uni0092
Encoding: 146 146 114
Width: 491
Flags: W
LayerCount: 2
Fore
SplineSet
41 87 m 0,0,1
 41 105 41 105 57 120.5 c 128,-1,2
 73 136 73 136 101.5 148 c 128,-1,3
 130 160 130 160 168.5 166.5 c 128,-1,4
 207 173 207 173 251 173 c 0,5,6
 296 173 296 173 334.5 166.5 c 128,-1,7
 373 160 373 160 401 148 c 128,-1,8
 429 136 429 136 445.5 120.5 c 128,-1,9
 462 105 462 105 462 87 c 0,10,11
 462 70 462 70 445.5 54.5 c 128,-1,12
 429 39 429 39 401 27.5 c 128,-1,13
 373 16 373 16 334.5 9.5 c 128,-1,14
 296 3 296 3 251 3 c 0,15,16
 207 3 207 3 168.5 9.5 c 128,-1,17
 130 16 130 16 101.5 27.5 c 128,-1,18
 73 39 73 39 57 54.5 c 128,-1,19
 41 70 41 70 41 87 c 0,0,1
123 87 m 256,20,21
 123 76 123 76 132.5 66 c 128,-1,22
 142 56 142 56 159.5 49.5 c 128,-1,23
 177 43 177 43 200.5 39 c 128,-1,24
 224 35 224 35 251 35 c 0,25,26
 279 35 279 35 302 39 c 128,-1,27
 325 43 325 43 342 49.5 c 128,-1,28
 359 56 359 56 369 66 c 128,-1,29
 379 76 379 76 379 87 c 256,30,31
 379 98 379 98 369 108 c 128,-1,32
 359 118 359 118 342 125 c 128,-1,33
 325 132 325 132 302 136 c 128,-1,34
 279 140 279 140 251 140 c 0,35,36
 224 140 224 140 200.5 136 c 128,-1,37
 177 132 177 132 159.5 125 c 128,-1,38
 142 118 142 118 132.5 108 c 128,-1,39
 123 98 123 98 123 87 c 256,20,21
41 279 m 0,40,41
 41 297 41 297 57 312.5 c 128,-1,42
 73 328 73 328 101.5 339.5 c 128,-1,43
 130 351 130 351 168.5 357.5 c 128,-1,44
 207 364 207 364 251 364 c 0,45,46
 296 364 296 364 334.5 357.5 c 128,-1,47
 373 351 373 351 401 339.5 c 128,-1,48
 429 328 429 328 445.5 312.5 c 128,-1,49
 462 297 462 297 462 279 c 0,50,51
 462 262 462 262 445.5 246 c 128,-1,52
 429 230 429 230 401 219 c 128,-1,53
 373 208 373 208 334.5 201 c 128,-1,54
 296 194 296 194 251 194 c 0,55,56
 207 194 207 194 168.5 201 c 128,-1,57
 130 208 130 208 101.5 219 c 128,-1,58
 73 230 73 230 57 246 c 128,-1,59
 41 262 41 262 41 279 c 0,40,41
41 472 m 256,60,61
 41 489 41 489 57 505 c 128,-1,62
 73 521 73 521 101.5 532.5 c 128,-1,63
 130 544 130 544 168.5 550.5 c 128,-1,64
 207 557 207 557 251 557 c 0,65,66
 296 557 296 557 334.5 550.5 c 128,-1,67
 373 544 373 544 401 532.5 c 128,-1,68
 429 521 429 521 445.5 505 c 128,-1,69
 462 489 462 489 462 472 c 256,70,71
 462 455 462 455 445.5 439.5 c 128,-1,72
 429 424 429 424 401 412 c 128,-1,73
 373 400 373 400 334.5 393.5 c 128,-1,74
 296 387 296 387 251 387 c 0,75,76
 207 387 207 387 168.5 393.5 c 128,-1,77
 130 400 130 400 101.5 412 c 128,-1,78
 73 424 73 424 57 439.5 c 128,-1,79
 41 455 41 455 41 472 c 256,60,61
123 472 m 256,80,81
 123 461 123 461 132.5 451 c 128,-1,82
 142 441 142 441 159.5 434 c 128,-1,83
 177 427 177 427 200.5 423 c 128,-1,84
 224 419 224 419 251 419 c 0,85,86
 279 419 279 419 302 423 c 128,-1,87
 325 427 325 427 342 434 c 128,-1,88
 359 441 359 441 369 451 c 128,-1,89
 379 461 379 461 379 472 c 256,90,91
 379 483 379 483 369 493 c 128,-1,92
 359 503 359 503 342 510 c 128,-1,93
 325 517 325 517 302 521 c 128,-1,94
 279 525 279 525 251 525 c 0,95,96
 224 525 224 525 200.5 521 c 128,-1,97
 177 517 177 517 159.5 510 c 128,-1,98
 142 503 142 503 132.5 493 c 128,-1,99
 123 483 123 483 123 472 c 256,80,81
41 664 m 256,100,101
 41 681 41 681 57 697 c 128,-1,102
 73 713 73 713 101.5 724 c 128,-1,103
 130 735 130 735 168.5 742 c 128,-1,104
 207 749 207 749 251 749 c 0,105,106
 296 749 296 749 334.5 742 c 128,-1,107
 373 735 373 735 401 724 c 128,-1,108
 429 713 429 713 445.5 697 c 128,-1,109
 462 681 462 681 462 664 c 256,110,111
 462 647 462 647 445.5 631 c 128,-1,112
 429 615 429 615 401 603.5 c 128,-1,113
 373 592 373 592 334.5 585.5 c 128,-1,114
 296 579 296 579 251 579 c 0,115,116
 207 579 207 579 168.5 585.5 c 128,-1,117
 130 592 130 592 101.5 603.5 c 128,-1,118
 73 615 73 615 57 631 c 128,-1,119
 41 647 41 647 41 664 c 256,100,101
123 664 m 0,120,121
 123 653 123 653 132.5 643 c 128,-1,122
 142 633 142 633 159.5 625.5 c 128,-1,123
 177 618 177 618 200.5 614 c 128,-1,124
 224 610 224 610 251 610 c 0,125,126
 279 610 279 610 302 614 c 128,-1,127
 325 618 325 618 342 625.5 c 128,-1,128
 359 633 359 633 369 642.5 c 128,-1,129
 379 652 379 652 379 664 c 0,130,131
 379 674 379 674 369 684 c 128,-1,132
 359 694 359 694 342 701.5 c 128,-1,133
 325 709 325 709 302 713 c 128,-1,134
 279 717 279 717 251 717 c 0,135,136
 224 717 224 717 200.5 713 c 128,-1,137
 177 709 177 709 159.5 701.5 c 128,-1,138
 142 694 142 694 132.5 684 c 128,-1,139
 123 674 123 674 123 664 c 0,120,121
EndSplineSet
Validated: 1
EndChar

StartChar: uni0093
Encoding: 147 147 115
Width: 491
Flags: W
LayerCount: 2
Fore
SplineSet
41 87 m 0,0,1
 41 105 41 105 57 120.5 c 128,-1,2
 73 136 73 136 101.5 148 c 128,-1,3
 130 160 130 160 168.5 166.5 c 128,-1,4
 207 173 207 173 251 173 c 0,5,6
 296 173 296 173 334.5 166.5 c 128,-1,7
 373 160 373 160 401 148 c 128,-1,8
 429 136 429 136 445.5 120.5 c 128,-1,9
 462 105 462 105 462 87 c 0,10,11
 462 70 462 70 445.5 54.5 c 128,-1,12
 429 39 429 39 401 27.5 c 128,-1,13
 373 16 373 16 334.5 9.5 c 128,-1,14
 296 3 296 3 251 3 c 0,15,16
 207 3 207 3 168.5 9.5 c 128,-1,17
 130 16 130 16 101.5 27.5 c 128,-1,18
 73 39 73 39 57 54.5 c 128,-1,19
 41 70 41 70 41 87 c 0,0,1
41 279 m 0,20,21
 41 297 41 297 57 312.5 c 128,-1,22
 73 328 73 328 101.5 339.5 c 128,-1,23
 130 351 130 351 168.5 357.5 c 128,-1,24
 207 364 207 364 251 364 c 0,25,26
 296 364 296 364 334.5 357.5 c 128,-1,27
 373 351 373 351 401 339.5 c 128,-1,28
 429 328 429 328 445.5 312.5 c 128,-1,29
 462 297 462 297 462 279 c 0,30,31
 462 262 462 262 445.5 246 c 128,-1,32
 429 230 429 230 401 219 c 128,-1,33
 373 208 373 208 334.5 201 c 128,-1,34
 296 194 296 194 251 194 c 0,35,36
 207 194 207 194 168.5 201 c 128,-1,37
 130 208 130 208 101.5 219 c 128,-1,38
 73 230 73 230 57 246 c 128,-1,39
 41 262 41 262 41 279 c 0,20,21
41 472 m 256,40,41
 41 489 41 489 57 505 c 128,-1,42
 73 521 73 521 101.5 532.5 c 128,-1,43
 130 544 130 544 168.5 550.5 c 128,-1,44
 207 557 207 557 251 557 c 0,45,46
 296 557 296 557 334.5 550.5 c 128,-1,47
 373 544 373 544 401 532.5 c 128,-1,48
 429 521 429 521 445.5 505 c 128,-1,49
 462 489 462 489 462 472 c 256,50,51
 462 455 462 455 445.5 439.5 c 128,-1,52
 429 424 429 424 401 412 c 128,-1,53
 373 400 373 400 334.5 393.5 c 128,-1,54
 296 387 296 387 251 387 c 0,55,56
 207 387 207 387 168.5 393.5 c 128,-1,57
 130 400 130 400 101.5 412 c 128,-1,58
 73 424 73 424 57 439.5 c 128,-1,59
 41 455 41 455 41 472 c 256,40,41
123 472 m 256,60,61
 123 461 123 461 132.5 451 c 128,-1,62
 142 441 142 441 159.5 434 c 128,-1,63
 177 427 177 427 200.5 423 c 128,-1,64
 224 419 224 419 251 419 c 0,65,66
 279 419 279 419 302 423 c 128,-1,67
 325 427 325 427 342 434 c 128,-1,68
 359 441 359 441 369 451 c 128,-1,69
 379 461 379 461 379 472 c 256,70,71
 379 483 379 483 369 493 c 128,-1,72
 359 503 359 503 342 510 c 128,-1,73
 325 517 325 517 302 521 c 128,-1,74
 279 525 279 525 251 525 c 0,75,76
 224 525 224 525 200.5 521 c 128,-1,77
 177 517 177 517 159.5 510 c 128,-1,78
 142 503 142 503 132.5 493 c 128,-1,79
 123 483 123 483 123 472 c 256,60,61
41 664 m 256,80,81
 41 681 41 681 57 697 c 128,-1,82
 73 713 73 713 101.5 724 c 128,-1,83
 130 735 130 735 168.5 742 c 128,-1,84
 207 749 207 749 251 749 c 0,85,86
 296 749 296 749 334.5 742 c 128,-1,87
 373 735 373 735 401 724 c 128,-1,88
 429 713 429 713 445.5 697 c 128,-1,89
 462 681 462 681 462 664 c 256,90,91
 462 647 462 647 445.5 631 c 128,-1,92
 429 615 429 615 401 603.5 c 128,-1,93
 373 592 373 592 334.5 585.5 c 128,-1,94
 296 579 296 579 251 579 c 0,95,96
 207 579 207 579 168.5 585.5 c 128,-1,97
 130 592 130 592 101.5 603.5 c 128,-1,98
 73 615 73 615 57 631 c 128,-1,99
 41 647 41 647 41 664 c 256,80,81
123 664 m 0,100,101
 123 653 123 653 132.5 643 c 128,-1,102
 142 633 142 633 159.5 625.5 c 128,-1,103
 177 618 177 618 200.5 614 c 128,-1,104
 224 610 224 610 251 610 c 0,105,106
 279 610 279 610 302 614 c 128,-1,107
 325 618 325 618 342 625.5 c 128,-1,108
 359 633 359 633 369 642.5 c 128,-1,109
 379 652 379 652 379 664 c 0,110,111
 379 674 379 674 369 684 c 128,-1,112
 359 694 359 694 342 701.5 c 128,-1,113
 325 709 325 709 302 713 c 128,-1,114
 279 717 279 717 251 717 c 0,115,116
 224 717 224 717 200.5 713 c 128,-1,117
 177 709 177 709 159.5 701.5 c 128,-1,118
 142 694 142 694 132.5 684 c 128,-1,119
 123 674 123 674 123 664 c 0,100,101
EndSplineSet
Validated: 1
EndChar

StartChar: uni0094
Encoding: 148 148 116
Width: 491
Flags: W
LayerCount: 2
Fore
SplineSet
41 87 m 0,0,1
 41 105 41 105 57 120.5 c 128,-1,2
 73 136 73 136 101.5 148 c 128,-1,3
 130 160 130 160 168.5 166.5 c 128,-1,4
 207 173 207 173 251 173 c 0,5,6
 296 173 296 173 334.5 166.5 c 128,-1,7
 373 160 373 160 401 148 c 128,-1,8
 429 136 429 136 445.5 120.5 c 128,-1,9
 462 105 462 105 462 87 c 0,10,11
 462 70 462 70 445.5 54.5 c 128,-1,12
 429 39 429 39 401 27.5 c 128,-1,13
 373 16 373 16 334.5 9.5 c 128,-1,14
 296 3 296 3 251 3 c 0,15,16
 207 3 207 3 168.5 9.5 c 128,-1,17
 130 16 130 16 101.5 27.5 c 128,-1,18
 73 39 73 39 57 54.5 c 128,-1,19
 41 70 41 70 41 87 c 0,0,1
123 87 m 256,20,21
 123 76 123 76 132.5 66 c 128,-1,22
 142 56 142 56 159.5 49.5 c 128,-1,23
 177 43 177 43 200.5 39 c 128,-1,24
 224 35 224 35 251 35 c 0,25,26
 279 35 279 35 302 39 c 128,-1,27
 325 43 325 43 342 49.5 c 128,-1,28
 359 56 359 56 369 66 c 128,-1,29
 379 76 379 76 379 87 c 256,30,31
 379 98 379 98 369 108 c 128,-1,32
 359 118 359 118 342 125 c 128,-1,33
 325 132 325 132 302 136 c 128,-1,34
 279 140 279 140 251 140 c 0,35,36
 224 140 224 140 200.5 136 c 128,-1,37
 177 132 177 132 159.5 125 c 128,-1,38
 142 118 142 118 132.5 108 c 128,-1,39
 123 98 123 98 123 87 c 256,20,21
41 279 m 0,40,41
 41 297 41 297 57 312.5 c 128,-1,42
 73 328 73 328 101.5 339.5 c 128,-1,43
 130 351 130 351 168.5 357.5 c 128,-1,44
 207 364 207 364 251 364 c 0,45,46
 296 364 296 364 334.5 357.5 c 128,-1,47
 373 351 373 351 401 339.5 c 128,-1,48
 429 328 429 328 445.5 312.5 c 128,-1,49
 462 297 462 297 462 279 c 0,50,51
 462 262 462 262 445.5 246 c 128,-1,52
 429 230 429 230 401 219 c 128,-1,53
 373 208 373 208 334.5 201 c 128,-1,54
 296 194 296 194 251 194 c 0,55,56
 207 194 207 194 168.5 201 c 128,-1,57
 130 208 130 208 101.5 219 c 128,-1,58
 73 230 73 230 57 246 c 128,-1,59
 41 262 41 262 41 279 c 0,40,41
123 279 m 256,60,61
 123 268 123 268 132.5 258 c 128,-1,62
 142 248 142 248 159.5 240.5 c 128,-1,63
 177 233 177 233 200.5 229 c 128,-1,64
 224 225 224 225 251 225 c 0,65,66
 279 225 279 225 302 229 c 128,-1,67
 325 233 325 233 342 240.5 c 128,-1,68
 359 248 359 248 369 257.5 c 128,-1,69
 379 267 379 267 379 279 c 256,70,71
 379 290 379 290 369 299.5 c 128,-1,72
 359 309 359 309 342 316.5 c 128,-1,73
 325 324 325 324 302 328 c 128,-1,74
 279 332 279 332 251 332 c 0,75,76
 224 332 224 332 200.5 328 c 128,-1,77
 177 324 177 324 159.5 316.5 c 128,-1,78
 142 309 142 309 132.5 299.5 c 128,-1,79
 123 290 123 290 123 279 c 256,60,61
41 472 m 256,80,81
 41 489 41 489 57 505 c 128,-1,82
 73 521 73 521 101.5 532.5 c 128,-1,83
 130 544 130 544 168.5 550.5 c 128,-1,84
 207 557 207 557 251 557 c 0,85,86
 296 557 296 557 334.5 550.5 c 128,-1,87
 373 544 373 544 401 532.5 c 128,-1,88
 429 521 429 521 445.5 505 c 128,-1,89
 462 489 462 489 462 472 c 256,90,91
 462 455 462 455 445.5 439.5 c 128,-1,92
 429 424 429 424 401 412 c 128,-1,93
 373 400 373 400 334.5 393.5 c 128,-1,94
 296 387 296 387 251 387 c 0,95,96
 207 387 207 387 168.5 393.5 c 128,-1,97
 130 400 130 400 101.5 412 c 128,-1,98
 73 424 73 424 57 439.5 c 128,-1,99
 41 455 41 455 41 472 c 256,80,81
41 664 m 256,100,101
 41 681 41 681 57 697 c 128,-1,102
 73 713 73 713 101.5 724 c 128,-1,103
 130 735 130 735 168.5 742 c 128,-1,104
 207 749 207 749 251 749 c 0,105,106
 296 749 296 749 334.5 742 c 128,-1,107
 373 735 373 735 401 724 c 128,-1,108
 429 713 429 713 445.5 697 c 128,-1,109
 462 681 462 681 462 664 c 256,110,111
 462 647 462 647 445.5 631 c 128,-1,112
 429 615 429 615 401 603.5 c 128,-1,113
 373 592 373 592 334.5 585.5 c 128,-1,114
 296 579 296 579 251 579 c 0,115,116
 207 579 207 579 168.5 585.5 c 128,-1,117
 130 592 130 592 101.5 603.5 c 128,-1,118
 73 615 73 615 57 631 c 128,-1,119
 41 647 41 647 41 664 c 256,100,101
123 664 m 0,120,121
 123 653 123 653 132.5 643 c 128,-1,122
 142 633 142 633 159.5 625.5 c 128,-1,123
 177 618 177 618 200.5 614 c 128,-1,124
 224 610 224 610 251 610 c 0,125,126
 279 610 279 610 302 614 c 128,-1,127
 325 618 325 618 342 625.5 c 128,-1,128
 359 633 359 633 369 642.5 c 128,-1,129
 379 652 379 652 379 664 c 0,130,131
 379 674 379 674 369 684 c 128,-1,132
 359 694 359 694 342 701.5 c 128,-1,133
 325 709 325 709 302 713 c 128,-1,134
 279 717 279 717 251 717 c 0,135,136
 224 717 224 717 200.5 713 c 128,-1,137
 177 709 177 709 159.5 701.5 c 128,-1,138
 142 694 142 694 132.5 684 c 128,-1,139
 123 674 123 674 123 664 c 0,120,121
EndSplineSet
Validated: 1
EndChar

StartChar: uni0095
Encoding: 149 149 117
Width: 491
Flags: W
LayerCount: 2
Fore
SplineSet
41 87 m 0,0,1
 41 105 41 105 57 120.5 c 128,-1,2
 73 136 73 136 101.5 148 c 128,-1,3
 130 160 130 160 168.5 166.5 c 128,-1,4
 207 173 207 173 251 173 c 0,5,6
 296 173 296 173 334.5 166.5 c 128,-1,7
 373 160 373 160 401 148 c 128,-1,8
 429 136 429 136 445.5 120.5 c 128,-1,9
 462 105 462 105 462 87 c 0,10,11
 462 70 462 70 445.5 54.5 c 128,-1,12
 429 39 429 39 401 27.5 c 128,-1,13
 373 16 373 16 334.5 9.5 c 128,-1,14
 296 3 296 3 251 3 c 0,15,16
 207 3 207 3 168.5 9.5 c 128,-1,17
 130 16 130 16 101.5 27.5 c 128,-1,18
 73 39 73 39 57 54.5 c 128,-1,19
 41 70 41 70 41 87 c 0,0,1
41 279 m 0,20,21
 41 297 41 297 57 312.5 c 128,-1,22
 73 328 73 328 101.5 339.5 c 128,-1,23
 130 351 130 351 168.5 357.5 c 128,-1,24
 207 364 207 364 251 364 c 0,25,26
 296 364 296 364 334.5 357.5 c 128,-1,27
 373 351 373 351 401 339.5 c 128,-1,28
 429 328 429 328 445.5 312.5 c 128,-1,29
 462 297 462 297 462 279 c 0,30,31
 462 262 462 262 445.5 246 c 128,-1,32
 429 230 429 230 401 219 c 128,-1,33
 373 208 373 208 334.5 201 c 128,-1,34
 296 194 296 194 251 194 c 0,35,36
 207 194 207 194 168.5 201 c 128,-1,37
 130 208 130 208 101.5 219 c 128,-1,38
 73 230 73 230 57 246 c 128,-1,39
 41 262 41 262 41 279 c 0,20,21
123 279 m 256,40,41
 123 268 123 268 132.5 258 c 128,-1,42
 142 248 142 248 159.5 240.5 c 128,-1,43
 177 233 177 233 200.5 229 c 128,-1,44
 224 225 224 225 251 225 c 0,45,46
 279 225 279 225 302 229 c 128,-1,47
 325 233 325 233 342 240.5 c 128,-1,48
 359 248 359 248 369 257.5 c 128,-1,49
 379 267 379 267 379 279 c 256,50,51
 379 290 379 290 369 299.5 c 128,-1,52
 359 309 359 309 342 316.5 c 128,-1,53
 325 324 325 324 302 328 c 128,-1,54
 279 332 279 332 251 332 c 0,55,56
 224 332 224 332 200.5 328 c 128,-1,57
 177 324 177 324 159.5 316.5 c 128,-1,58
 142 309 142 309 132.5 299.5 c 128,-1,59
 123 290 123 290 123 279 c 256,40,41
41 472 m 256,60,61
 41 489 41 489 57 505 c 128,-1,62
 73 521 73 521 101.5 532.5 c 128,-1,63
 130 544 130 544 168.5 550.5 c 128,-1,64
 207 557 207 557 251 557 c 0,65,66
 296 557 296 557 334.5 550.5 c 128,-1,67
 373 544 373 544 401 532.5 c 128,-1,68
 429 521 429 521 445.5 505 c 128,-1,69
 462 489 462 489 462 472 c 256,70,71
 462 455 462 455 445.5 439.5 c 128,-1,72
 429 424 429 424 401 412 c 128,-1,73
 373 400 373 400 334.5 393.5 c 128,-1,74
 296 387 296 387 251 387 c 0,75,76
 207 387 207 387 168.5 393.5 c 128,-1,77
 130 400 130 400 101.5 412 c 128,-1,78
 73 424 73 424 57 439.5 c 128,-1,79
 41 455 41 455 41 472 c 256,60,61
41 664 m 256,80,81
 41 681 41 681 57 697 c 128,-1,82
 73 713 73 713 101.5 724 c 128,-1,83
 130 735 130 735 168.5 742 c 128,-1,84
 207 749 207 749 251 749 c 0,85,86
 296 749 296 749 334.5 742 c 128,-1,87
 373 735 373 735 401 724 c 128,-1,88
 429 713 429 713 445.5 697 c 128,-1,89
 462 681 462 681 462 664 c 256,90,91
 462 647 462 647 445.5 631 c 128,-1,92
 429 615 429 615 401 603.5 c 128,-1,93
 373 592 373 592 334.5 585.5 c 128,-1,94
 296 579 296 579 251 579 c 0,95,96
 207 579 207 579 168.5 585.5 c 128,-1,97
 130 592 130 592 101.5 603.5 c 128,-1,98
 73 615 73 615 57 631 c 128,-1,99
 41 647 41 647 41 664 c 256,80,81
123 664 m 0,100,101
 123 653 123 653 132.5 643 c 128,-1,102
 142 633 142 633 159.5 625.5 c 128,-1,103
 177 618 177 618 200.5 614 c 128,-1,104
 224 610 224 610 251 610 c 0,105,106
 279 610 279 610 302 614 c 128,-1,107
 325 618 325 618 342 625.5 c 128,-1,108
 359 633 359 633 369 642.5 c 128,-1,109
 379 652 379 652 379 664 c 0,110,111
 379 674 379 674 369 684 c 128,-1,112
 359 694 359 694 342 701.5 c 128,-1,113
 325 709 325 709 302 713 c 128,-1,114
 279 717 279 717 251 717 c 0,115,116
 224 717 224 717 200.5 713 c 128,-1,117
 177 709 177 709 159.5 701.5 c 128,-1,118
 142 694 142 694 132.5 684 c 128,-1,119
 123 674 123 674 123 664 c 0,100,101
EndSplineSet
Validated: 1
EndChar

StartChar: uni0096
Encoding: 150 150 118
Width: 491
Flags: W
LayerCount: 2
Fore
SplineSet
41 87 m 0,0,1
 41 105 41 105 57 120.5 c 128,-1,2
 73 136 73 136 101.5 148 c 128,-1,3
 130 160 130 160 168.5 166.5 c 128,-1,4
 207 173 207 173 251 173 c 0,5,6
 296 173 296 173 334.5 166.5 c 128,-1,7
 373 160 373 160 401 148 c 128,-1,8
 429 136 429 136 445.5 120.5 c 128,-1,9
 462 105 462 105 462 87 c 0,10,11
 462 70 462 70 445.5 54.5 c 128,-1,12
 429 39 429 39 401 27.5 c 128,-1,13
 373 16 373 16 334.5 9.5 c 128,-1,14
 296 3 296 3 251 3 c 0,15,16
 207 3 207 3 168.5 9.5 c 128,-1,17
 130 16 130 16 101.5 27.5 c 128,-1,18
 73 39 73 39 57 54.5 c 128,-1,19
 41 70 41 70 41 87 c 0,0,1
123 87 m 256,20,21
 123 76 123 76 132.5 66 c 128,-1,22
 142 56 142 56 159.5 49.5 c 128,-1,23
 177 43 177 43 200.5 39 c 128,-1,24
 224 35 224 35 251 35 c 0,25,26
 279 35 279 35 302 39 c 128,-1,27
 325 43 325 43 342 49.5 c 128,-1,28
 359 56 359 56 369 66 c 128,-1,29
 379 76 379 76 379 87 c 256,30,31
 379 98 379 98 369 108 c 128,-1,32
 359 118 359 118 342 125 c 128,-1,33
 325 132 325 132 302 136 c 128,-1,34
 279 140 279 140 251 140 c 0,35,36
 224 140 224 140 200.5 136 c 128,-1,37
 177 132 177 132 159.5 125 c 128,-1,38
 142 118 142 118 132.5 108 c 128,-1,39
 123 98 123 98 123 87 c 256,20,21
41 279 m 0,40,41
 41 297 41 297 57 312.5 c 128,-1,42
 73 328 73 328 101.5 339.5 c 128,-1,43
 130 351 130 351 168.5 357.5 c 128,-1,44
 207 364 207 364 251 364 c 0,45,46
 296 364 296 364 334.5 357.5 c 128,-1,47
 373 351 373 351 401 339.5 c 128,-1,48
 429 328 429 328 445.5 312.5 c 128,-1,49
 462 297 462 297 462 279 c 0,50,51
 462 262 462 262 445.5 246 c 128,-1,52
 429 230 429 230 401 219 c 128,-1,53
 373 208 373 208 334.5 201 c 128,-1,54
 296 194 296 194 251 194 c 0,55,56
 207 194 207 194 168.5 201 c 128,-1,57
 130 208 130 208 101.5 219 c 128,-1,58
 73 230 73 230 57 246 c 128,-1,59
 41 262 41 262 41 279 c 0,40,41
41 472 m 256,60,61
 41 489 41 489 57 505 c 128,-1,62
 73 521 73 521 101.5 532.5 c 128,-1,63
 130 544 130 544 168.5 550.5 c 128,-1,64
 207 557 207 557 251 557 c 0,65,66
 296 557 296 557 334.5 550.5 c 128,-1,67
 373 544 373 544 401 532.5 c 128,-1,68
 429 521 429 521 445.5 505 c 128,-1,69
 462 489 462 489 462 472 c 256,70,71
 462 455 462 455 445.5 439.5 c 128,-1,72
 429 424 429 424 401 412 c 128,-1,73
 373 400 373 400 334.5 393.5 c 128,-1,74
 296 387 296 387 251 387 c 0,75,76
 207 387 207 387 168.5 393.5 c 128,-1,77
 130 400 130 400 101.5 412 c 128,-1,78
 73 424 73 424 57 439.5 c 128,-1,79
 41 455 41 455 41 472 c 256,60,61
41 664 m 256,80,81
 41 681 41 681 57 697 c 128,-1,82
 73 713 73 713 101.5 724 c 128,-1,83
 130 735 130 735 168.5 742 c 128,-1,84
 207 749 207 749 251 749 c 0,85,86
 296 749 296 749 334.5 742 c 128,-1,87
 373 735 373 735 401 724 c 128,-1,88
 429 713 429 713 445.5 697 c 128,-1,89
 462 681 462 681 462 664 c 256,90,91
 462 647 462 647 445.5 631 c 128,-1,92
 429 615 429 615 401 603.5 c 128,-1,93
 373 592 373 592 334.5 585.5 c 128,-1,94
 296 579 296 579 251 579 c 0,95,96
 207 579 207 579 168.5 585.5 c 128,-1,97
 130 592 130 592 101.5 603.5 c 128,-1,98
 73 615 73 615 57 631 c 128,-1,99
 41 647 41 647 41 664 c 256,80,81
123 664 m 0,100,101
 123 653 123 653 132.5 643 c 128,-1,102
 142 633 142 633 159.5 625.5 c 128,-1,103
 177 618 177 618 200.5 614 c 128,-1,104
 224 610 224 610 251 610 c 0,105,106
 279 610 279 610 302 614 c 128,-1,107
 325 618 325 618 342 625.5 c 128,-1,108
 359 633 359 633 369 642.5 c 128,-1,109
 379 652 379 652 379 664 c 0,110,111
 379 674 379 674 369 684 c 128,-1,112
 359 694 359 694 342 701.5 c 128,-1,113
 325 709 325 709 302 713 c 128,-1,114
 279 717 279 717 251 717 c 0,115,116
 224 717 224 717 200.5 713 c 128,-1,117
 177 709 177 709 159.5 701.5 c 128,-1,118
 142 694 142 694 132.5 684 c 128,-1,119
 123 674 123 674 123 664 c 0,100,101
EndSplineSet
Validated: 1
EndChar

